<?xml version="1.0" standalone="no"?>
<!DOCTYPE svg PUBLIC "-//W3C//DTD SVG 1.1//EN" "http://www.w3.org/Graphics/SVG/1.1/DTD/svg11.dtd" >
<svg xmlns="http://www.w3.org/2000/svg" xmlns:xlink="http://www.w3.org/1999/xlink" version="1.1">
<metadata>
Created by FontForge 20170731 at Sun Mar 26 23:18:27 2023
 By Aleksey,,,
Copyright (c) 2019 by Muhammad Iqbal Firdaus. All rights reserved.
</metadata>
<defs>
<font id="TGSilokaSundanese-Regular" horiz-adv-x="1228" >
  <font-face 
    font-family="TG Siloka Sundanese"
    font-weight="400"
    font-stretch="normal"
    units-per-em="2048"
    panose-1="0 0 5 0 0 0 0 0 0 0"
    ascent="1638"
    descent="-410"
    bbox="-1925 -721 3506 1909"
    underline-thickness="102"
    underline-position="-409"
    unicode-range="U+001D-25CC"
  />
<missing-glyph 
d="M1008 1741v-2458h-779v2458h779zM819 1577h-405v-82h159v-90h-163v-82h409v82h-164v90h164v82zM655 1260h-245v-256h409v83h-164v173zM573 1176v-89h-81v89h81zM819 938h-409v-82h163v-90h-163v-82h245v172h164v82zM819 791h-82v-164h-327v-82h409v246zM819 489h-246
v-137h82v58h82v-117h-245v196h-82v-276h409v276zM819 66h-409v-279h409v279zM737 -16v-115h-245v115h245zM819 -270h-409v-80h172l-172 -117v-80h409v80h-252l172 117h80v80z" />
    <glyph glyph-name="uni1B891B80.liga" unicode="&#x1b89;&#x1b80;" horiz-adv-x="1435" 
d="M1128 1288q-97 0 -165 68.5t-68 165.5q0 95 68 163t165 68q95 0 163.5 -68t68.5 -163q0 -97 -68.5 -165.5t-163.5 -68.5zM541 1288h-115l-334 430h166l225 -286l224 286h165zM1128 1628q-43 0 -72.5 -30.5t-29.5 -75.5q0 -47 29.5 -78t72.5 -31q42 0 71.5 31t29.5 78
q0 45 -29.5 75.5t-71.5 30.5zM1022 670q148 -3 242 -85.5t94 -232.5q0 -160 -147 -268.5t-388 -108.5q-190 0 -342 75.5t-241.5 222t-89.5 341.5q0 236 147 471h166q-148 -252 -148 -471q0 -114 41.5 -207.5t112 -153t162 -92t192.5 -32.5q161 0 265 66.5t104 171.5
q0 73 -50 117.5t-125.5 57t-168.5 -0.5l-82 -15l-31 54l326 352h-350v153h647l6 -49z" />
    <glyph glyph-name="uni1B891B81.liga" unicode="&#x1b89;&#x1b81;" horiz-adv-x="1550" 
d="M991 1376l-125 41l109 242h184l148 -223l196 288l113 -65l-252 -371h-115l-180 262zM551 1288h-115l-334 430h166l226 -286l223 286h166zM1419 1085l6 -49l-342 -366q148 -3 242 -85.5t94 -232.5q0 -160 -146.5 -268.5t-387.5 -108.5q-190 0 -342 75.5t-242 222
t-90 341.5q0 236 147 471h166q-147 -250 -147 -471q0 -114 41.5 -207.5t112 -153t162 -92t192.5 -32.5q161 0 264.5 66.5t103.5 171.5q0 73 -50 117.5t-125.5 57t-168.5 -0.5l-82 -15l-30 54l325 352h-350v153h647z" />
    <glyph glyph-name="uni1B8A1BA6.liga" unicode="&#x1b8a;&#x1ba6;" horiz-adv-x="2131" 
d="M1440 1085l-336 -1085h-174l287 932h-361l47 153h537zM2152 1085l-327 -1085h-174l286 932h-360l47 153h528zM739 276h-274l-45 -143h340l-41 -133h-494l156 506h-299l41 133h455l-72 -229h274z" />
    <glyph glyph-name="uni1B8B1BA6.liga" unicode="&#x1b8b;&#x1ba6;" horiz-adv-x="2363" 
d="M2384 1085l-334 -1085h-176l289 932h-205q-97 0 -127 -94l-258 -838h-176l289 932h-230q-78 0 -102 -78l-258 -854h-172l268 889q60 196 264 196h928zM739 276h-274l-45 -143h340l-41 -133h-494l156 506h-299l41 133h455l-72 -229h274z" />
    <glyph glyph-name="uni1B8C1BA6.liga" unicode="&#x1b8c;&#x1ba6;" horiz-adv-x="2062" 
d="M2021 639l-133 -442q-61 -197 -264 -197h-700l286 932h-360l47 153h537l-289 -931h479q79 0 102 77l76 254h-278l47 154h450zM739 276h-274l-45 -143h340l-41 -133h-494l156 506h-299l41 133h455l-72 -229h274z" />
    <glyph glyph-name="uni1B8D1BA6.liga" unicode="&#x1b8d;&#x1ba6;" horiz-adv-x="1894" 
d="M1849 287q43 -145 -9.5 -216t-205.5 -71h-710l286 932h-360l47 153h537l-289 -931h510q28 0 39.5 15.5t3.5 41.5l-133 428h176zM739 276h-274l-45 -143h340l-41 -133h-494l156 506h-299l41 133h455l-72 -229h274z" />
    <glyph glyph-name="uni1B8E1BA6.liga" unicode="&#x1b8e;&#x1ba6;" horiz-adv-x="2410" 
d="M2257 1085h174l-248 -815q-44 -143 -148 -222.5t-234 -74t-247 96.5l-86 67q-72 -166 -268 -166q-99 0 -179.5 66.5t-80.5 173.5q0 105 74 172.5t182 67.5q54 0 100 -22.5t70 -53.5l4 2l170 555h-360l47 153h536l-250 -813l70 -57q141 -114 269 -80.5t176 191.5zM739 276
h-274l-45 -143h340l-41 -133h-494l156 506h-299l41 133h455l-72 -229h274zM1208 113q50 0 78.5 29.5t28.5 72.5q0 40 -30.5 67t-76.5 27q-42 0 -72 -29t-30 -69q0 -41 29.5 -69.5t72.5 -28.5z" />
    <glyph glyph-name="uni1B8F1BA6.liga" unicode="&#x1b8f;&#x1ba6;" horiz-adv-x="2400" 
d="M1767 639h123l197 -639h-174l-133 436l-74 -239q-62 -197 -264 -197h-516l262 856q37 118 113 173.5t198 55.5h254l-47 -153h-221q-97 0 -127 -94l-211 -684h293q81 0 104 75l96 316q30 94 127 94zM739 276h-274l-45 -143h340l-41 -133h-494l156 506h-299l41 133h455
l-72 -229h274zM2187 639l197 -639h-174l-197 639h174z" />
    <glyph glyph-name="uni1B901BA6.liga" unicode="&#x1b90;&#x1ba6;" horiz-adv-x="2236" 
d="M1946 659q129 0 197.5 -94t33.5 -209l-106 -356h-173l105 350q17 59 -11 98t-89 39q-54 0 -92 -28t-58 -97l-49 -165q-58 -197 -264 -197h-516l288 932h-360l47 153h537l-291 -931h295q81 0 102 77l45 152q26 87 65.5 145t90.5 85t97 36.5t106 9.5zM739 276h-274
l-45 -143h340l-41 -133h-494l156 506h-299l41 133h455l-72 -229h274z" />
    <glyph glyph-name="uni1B911BA6.liga" unicode="&#x1b91;&#x1ba6;" horiz-adv-x="2551" 
d="M2572 1085l-331 -1085h-228l-229 459l-80 -262q-61 -197 -264 -197h-516l286 932h-360l47 153h537l-289 -931h295q79 0 102 77l96 314q27 94 127 94h117l234 -487l237 780h-297q-29 0 -35 -25l-24 -82h-172l41 133q39 127 172 127h534zM739 276h-274l-45 -143h340
l-41 -133h-494l156 506h-299l41 133h455l-72 -229h274z" />
    <glyph glyph-name="uni1B921BA6.liga" unicode="&#x1b92;&#x1ba6;" horiz-adv-x="2416" 
d="M2376 639l-197 -639h-172l150 485h-367l-86 -288q-58 -197 -264 -197h-516l151 485h-278l47 154h454l-151 -485h293q79 0 102 77l258 854h172l-135 -446h539zM739 276h-274l-45 -143h340l-41 -133h-494l156 506h-299l41 133h455l-72 -229h274z" />
    <glyph glyph-name="uni1B931BA6.liga" unicode="&#x1b93;&#x1ba6;" horiz-adv-x="2111" 
d="M1888 639l197 -639h-174l-133 436l-74 -239q-62 -197 -264 -197h-516l262 856q37 118 113 173.5t198 55.5h254l-47 -153h-221q-97 0 -127 -94l-211 -684h293q81 0 104 75l96 316q30 94 127 94h123zM739 276h-274l-45 -143h340l-41 -133h-494l156 506h-299l41 133h455
l-72 -229h274z" />
    <glyph glyph-name="uni1B941BA6.liga" unicode="&#x1b94;&#x1ba6;" horiz-adv-x="1695" 
d="M1145 154h520l-47 -154h-694l286 932h-483l47 153h660zM739 276h-274l-45 -143h340l-41 -133h-494l156 506h-299l41 133h455l-72 -229h274z" />
    <glyph glyph-name="uni1B951BA6.liga" unicode="&#x1b95;&#x1ba6;" horiz-adv-x="2136" 
d="M2157 1085l-269 -888q-61 -197 -264 -197h-700l286 932h-360l47 153h537l-289 -931h479q79 0 102 77l211 701h-258l47 153h431zM739 276h-274l-45 -143h340l-41 -133h-494l156 506h-299l41 133h455l-72 -229h274z" />
    <glyph glyph-name="uni1B961BA6.liga" unicode="&#x1b96;&#x1ba6;" horiz-adv-x="2115" 
d="M1964 1085h172l-268 -888q-61 -197 -264 -197h-701l287 932h-361l48 153h536l-289 -931h480q79 0 102 77zM739 276h-274l-45 -143h340l-41 -133h-494l156 506h-299l41 133h455l-72 -229h274z" />
    <glyph glyph-name="uni1B971BA6.liga" unicode="&#x1b97;&#x1ba6;" horiz-adv-x="2115" 
d="M1964 1085h172l-268 -888q-61 -197 -264 -197h-701l334 1085h176l-289 -931h480q79 0 102 77zM739 276h-274l-45 -143h340l-41 -133h-494l156 506h-299l41 133h455l-72 -229h274z" />
    <glyph glyph-name="uni1B981BA6.liga" unicode="&#x1b98;&#x1ba6;" horiz-adv-x="2531" 
d="M2552 1085l-332 -1085h-227l-230 459l-80 -262q-61 -197 -264 -197h-516l262 856q37 118 113.5 173.5t198.5 55.5h172l-54 -153h-133q-97 0 -127 -94l-211 -684h295q80 0 103 77l96 314q27 94 127 94h117l233 -487l238 780h-297q-29 0 -35 -25l-25 -82h-172l41 133
q39 127 172 127h535zM739 276h-274l-45 -143h340l-41 -133h-494l156 506h-299l41 133h455l-72 -229h274z" />
    <glyph glyph-name="uni1B991BA6.liga" unicode="&#x1b99;&#x1ba6;" horiz-adv-x="2093" 
d="M2114 1085l-269 -888q-59 -197 -264 -197h-659l149 485h-278l47 154h454l-151 -485h438q79 0 102 77l211 701h-903l45 153h1078zM739 276h-274l-45 -143h340l-41 -133h-494l156 506h-299l41 133h455l-72 -229h274z" />
    <glyph glyph-name="uni1B9A1BA6.liga" unicode="&#x1b9a;&#x1ba6;" horiz-adv-x="2476" 
d="M2263 639h172l-194 -639h-222l-241 436l-72 -239q-31 -100 -95.5 -148.5t-168.5 -48.5h-516l151 485h-278l47 154h454l-151 -485h293q79 0 102 77l258 854h172l-125 -413l269 -508zM739 276h-274l-45 -143h340l-41 -133h-494l156 506h-299l41 133h455l-72 -229h274z" />
    <glyph glyph-name="uni1B9B1BA6.liga" unicode="&#x1b9b;&#x1ba6;" horiz-adv-x="1665" 
d="M1057 1085h618l-47 -153h-618zM1585 793l-246 -793h-174l78 254h-344l47 154h344l72 231h-442l47 154h618zM739 276h-274l-45 -143h340l-41 -133h-494l156 506h-299l41 133h455l-72 -229h274z" />
    <glyph glyph-name="uni1B9C1BA6.liga" unicode="&#x1b9c;&#x1ba6;" horiz-adv-x="2377" 
d="M2226 1085h172l-268 -888q-58 -197 -264 -197h-490l285 932h-203q-78 0 -102 -78l-258 -854h-174l270 889q58 196 264 196h422l-285 -931h271q79 0 102 77zM739 276h-274l-45 -143h340l-41 -133h-494l156 506h-299l41 133h455l-72 -229h274z" />
    <glyph glyph-name="uni1B9D1BA6.liga" unicode="&#x1b9d;&#x1ba6;" horiz-adv-x="2084" 
d="M2023 639l-133 -442q-61 -197 -264 -197h-700l262 856q37 118 113 173.5t198 55.5h334l-47 -153h-301q-97 0 -127 -94l-211 -684h479q80 0 103 77l75 254h-278l47 154h450zM739 276h-274l-45 -143h340l-41 -133h-494l156 506h-299l41 133h455l-72 -229h274z" />
    <glyph glyph-name="uni1B9E1BA6.liga" unicode="&#x1b9e;&#x1ba6;" horiz-adv-x="2156" 
d="M1456 1085l-184 -596v-4h-2l-150 -485h-174l150 485h-297l47 154h297l90 293h-361l48 153h536zM1993 489v-4h-2l-150 -485h-174l150 485h-297l47 154h297l90 293h-361l47 153h537zM739 276h-274l-45 -143h340l-41 -133h-494l156 506h-299l41 133h455l-72 -229h274z" />
    <glyph glyph-name="uni1B9F1BA6.liga" unicode="&#x1b9f;&#x1ba6;" horiz-adv-x="2031" 
d="M2052 1085l-336 -1085h-174l150 485h-422l-152 -485h-174l150 485h-297l47 154h297l90 293h-361l48 153h1134zM1317 639h422l90 293h-324q-100 0 -127 -94zM739 276h-274l-45 -143h340l-41 -133h-494l156 506h-299l41 133h455l-72 -229h274z" />
    <glyph glyph-name="uni1BA01BA6.liga" unicode="&#x1ba0;&#x1ba6;" horiz-adv-x="2424" 
d="M2445 1085l-331 -1085h-172l284 932h-260q-78 0 -102 -78l-199 -657q-59 -197 -264 -197h-475l149 485h-278l47 154h454l-151 -485h254q79 0 102 77l199 658q60 196 264 196h479zM739 276h-274l-45 -143h340l-41 -133h-494l156 506h-299l41 133h455l-72 -229h274z" />
    <glyph glyph-name="uni1BA11BA5.liga" unicode="&#x1ba1;&#x1ba5;" horiz-adv-x="1196" 
d="M231 506q-45 0 -57 -43l-205 -656q-20 -65 -62 -95.5t-110 -30.5h-985l41 135h920q45 0 57 43l203 653q39 127 172 127h379l-199 -639h-154l156 506h-156zM625 -184l-195 -496h-139l149 383h-268l33 113h420z" />
    <glyph glyph-name="uni1BA21BA5.liga" unicode="&#x1ba2;&#x1ba5;" horiz-adv-x="0" 
d="M-240 -184l-194 -496h-139l149 383h-268l33 113h419zM-956 -199q99 -66 143.5 -178.5t-2.5 -212.5q-32 -60 -81.5 -92t-107 -35.5t-110 6.5t-107.5 31q-70 26 -146 73.5t-123 84.5t-116 96l-245 -145l-74 102l338 199l33 -29q227 -204 383 -262q48 -19 90.5 -25t84 8
t60.5 54q28 58 -5.5 119.5t-100.5 117.5z" />
    <glyph glyph-name="uni1BA31BA5.liga" unicode="&#x1ba3;&#x1ba5;" horiz-adv-x="122" 
d="M-868 -184l-150 -383h234l-43 -113h-375l149 383h-192q-46 0 -60 -41l-133 -342h-139l145 375q25 63 68 92t109 29h387zM-365 -184l-194 -496h-139l149 383h-268l33 113h419z" />
    <glyph glyph-name="uni1BA41B80.liga" unicode="&#x1ba4;&#x1b80;" horiz-adv-x="137" 
d="M-238 1733q95 0 163.5 -68.5t68.5 -163.5q0 -97 -68 -165t-164 -68q-97 0 -165 68t-68 165q0 95 68.5 163.5t164.5 68.5zM-526 1716l-119 -440l-66 -27l-333 99l34 127l260 -76l56 205h-279l31 112h416zM-238 1393q42 0 71.5 30.5t29.5 77.5q0 45 -29.5 76t-71.5 31
q-43 0 -72.5 -30.5t-29.5 -76.5q0 -47 29.5 -77.5t72.5 -30.5z" />
    <glyph glyph-name="uni1BA41B81.liga" unicode="&#x1ba4;&#x1b81;" horiz-adv-x="188" 
d="M117 1724l112 -65l-252 -371h-114l-180 262l-78 -174l-125 41l108 242h185l147 -223zM-567 1716l-119 -440l-66 -27l-333 99l34 127l260 -76l56 205h-279l31 112h416z" />
    <glyph glyph-name="uni1BA81B80.liga" unicode="&#x1ba8;&#x1b80;" horiz-adv-x="137" 
d="M-115 1733q95 0 163.5 -68.5t68.5 -163.5q0 -97 -68.5 -165t-163.5 -68q-97 0 -165 68t-68 165q0 95 68 163.5t165 68.5zM-838 1432l224 286h165l-331 -430h-115l-334 430h166zM-115 1393q42 0 71.5 30.5t29.5 77.5q0 45 -29.5 76t-71.5 31q-43 0 -72.5 -30.5
t-29.5 -76.5q0 -47 29.5 -77.5t72.5 -30.5z" />
    <glyph glyph-name="uni1BA81B81.liga" unicode="&#x1ba8;&#x1b81;" horiz-adv-x="102" 
d="M123 1724l113 -65l-252 -371h-115l-180 262l-78 -174l-125 41l108 242h185l147 -223zM-981 1432l223 286h166l-332 -430h-114l-334 430h166z" />
    <glyph glyph-name="uni1BA91B80.liga" unicode="&#x1ba9;&#x1b80;" horiz-adv-x="45" 
d="M-817 1430l225 288h164l-332 -430h-114l-334 430h164l114 -147l6 4q-28 242 199 334l88 -97l-2 -4q-108 -45 -166.5 -143t-48.5 -188zM-145 1733q95 0 163 -68.5t68 -163.5q0 -97 -68 -165t-163 -68q-97 0 -165.5 68t-68.5 165q0 95 68.5 163.5t165.5 68.5zM-145 1393
q42 0 71 30.5t29 77.5q0 45 -29 76t-71 31q-43 0 -73 -31t-30 -76q0 -47 30 -77.5t73 -30.5z" />
    <glyph glyph-name="uni1BA91B81.liga" unicode="&#x1ba9;&#x1b81;" horiz-adv-x="131" 
d="M-899 1430l225 288h164l-332 -430h-114l-334 430h164l114 -147l6 4q-28 242 199 334l88 -97l-2 -4q-108 -45 -166.5 -143t-48.5 -188zM141 1724l113 -65l-252 -371h-115l-180 262l-78 -174l-125 41l109 242h184l148 -223z" />
    <glyph glyph-name="uni1BAC1BA5.liga" unicode="&#x1bac;&#x1ba5;" horiz-adv-x="143" 
d="M-1083 -369q19 49 34 112.5t21 101.5t6 49h133q-27 -191 -59 -289q-46 -145 -165.5 -233.5t-307.5 -88.5q-123 0 -230 43t-170 117.5t-63 161.5q0 118 75.5 186t204.5 78.5t301 -23.5l17 -120l-4 -7q-163 37 -264 28t-146 -45.5t-45 -96.5q0 -80 87.5 -138.5t211.5 -58.5
q134 0 224.5 52.5t138.5 170.5zM-301 -184l-195 -496h-139l150 383h-269l33 113h420z" />
    <glyph glyph-name="uni1BAD1BA5.liga" unicode="&#x1bad;&#x1ba5;" horiz-adv-x="194" 
d="M-1034 -184l-150 -383h234l-43 -113h-375l149 383h-235l43 113h377zM-532 -184l-150 -383h233l-43 -113h-374l149 383h-235l43 113h377zM-31 -184l-194 -496h-140l150 383h-268l32 113h420z" />
    <glyph glyph-name="uni1BAE1BA6.liga" unicode="&#x1bae;&#x1ba6;" horiz-adv-x="3399" 
d="M3410 1085l-332 -1085h-172l285 932h-182q-79 0 -103 -78l-199 -657q-59 -197 -264 -197h-475l150 485h-277l-149 -485h-174l286 932h-323q-100 0 -127 -94l-260 -838h-174l286 932h-360l47 153h1135l-138 -446h451l-152 -485h254q80 0 103 77l198 658q60 196 265 196
h401zM739 276h-274l-45 -143h340l-41 -133h-494l156 506h-299l41 133h455l-72 -229h274z" />
    <glyph glyph-name="uni1BAF1BA6.liga" unicode="&#x1baf;&#x1ba6;" horiz-adv-x="3495" 
d="M3332 639h174l-196 -639h-222l-239 436l-74 -239q-60 -197 -264 -197h-514l149 485h-278l-150 -485h-174l150 485h-422l-152 -485h-174l150 485h-297l47 154h297l90 293h-361l48 153h1134l-137 -446h453l-152 -485h293q79 0 102 77l248 813h172l-115 -370l269 -510z
M1319 639h422l90 293h-324q-100 0 -127 -94zM739 276h-274l-45 -143h340l-41 -133h-494l156 506h-299l41 133h455l-72 -229h274z" />
    <glyph glyph-name=".notdef" 
d="M1008 1741v-2458h-779v2458h779zM819 1577h-405v-82h159v-90h-163v-82h409v82h-164v90h164v82zM655 1260h-245v-256h409v83h-164v173zM573 1176v-89h-81v89h81zM819 938h-409v-82h163v-90h-163v-82h245v172h164v82zM819 791h-82v-164h-327v-82h409v246zM819 489h-246
v-137h82v58h82v-117h-245v196h-82v-276h409v276zM819 66h-409v-279h409v279zM737 -16v-115h-245v115h245zM819 -270h-409v-80h172l-172 -117v-80h409v80h-252l172 117h80v80z" />
    <glyph glyph-name="uni0000" horiz-adv-x="0" 
 />
    <glyph glyph-name="uni0000" horiz-adv-x="0" 
 />
    <glyph glyph-name="nonmarkingreturn" horiz-adv-x="682" 
 />
    <glyph glyph-name="space" unicode=" " horiz-adv-x="614" 
 />
    <glyph glyph-name="exclam" unicode="!" horiz-adv-x="602" 
d="M362 377h-122l-19 708h160zM227 150h148v-150h-148v150z" />
    <glyph glyph-name="quotedbl" unicode="&#x22;" horiz-adv-x="825" 
d="M154 1475h165v-502h-165v502zM506 1475h166v-502h-166v502z" />
    <glyph glyph-name="numbersign" unicode="#" horiz-adv-x="1497" 
d="M338 344h-195v156h217l60 430h-197v155h219l47 345h156l-47 -345h406l47 345h155l-47 -345h195v-155h-217l-60 -430h195v-156h-217l-49 -344h-156l49 344h-405l-50 -344h-155zM981 930h-406l-59 -430h406z" />
    <glyph glyph-name="percent" unicode="%" horiz-adv-x="1716" 
d="M1122 1130h156l-686 -1175h-156zM457 481q-65 0 -112.5 26.5t-73.5 72.5t-38 99.5t-12 117.5q0 55 6 99t22 86t41.5 70t68 45t98.5 17q70 0 118 -25t73 -71.5t35.5 -99.5t10.5 -121q0 -64 -12 -117.5t-38 -100t-73.5 -72.5t-113.5 -26zM457 592q98 0 98 205v11
q0 26 -0.5 41t-3 42t-8.5 43.5t-16.5 34.5t-28 26.5t-41.5 8.5q-23 0 -40.5 -10t-27.5 -29.5t-16.5 -38t-9 -46.5t-3 -43.5t-0.5 -39.5q0 -205 97 -205zM1260 -29q-66 0 -113.5 26.5t-74 72.5t-38.5 99.5t-12 117.5q0 55 6 99t22 86t42 70t68.5 45t99.5 17q69 0 116.5 -25
t72.5 -71.5t35.5 -99.5t10.5 -121q0 -64 -12 -117.5t-37.5 -99.5t-73 -72.5t-112.5 -26.5zM1260 82q96 0 96 205q0 99 -10 135q-21 72 -86 72q-34 0 -56 -21t-30.5 -59t-10.5 -63.5t-2 -63.5q0 -205 99 -205z" />
    <glyph glyph-name="ampersand" unicode="&#x26;" horiz-adv-x="1165" 
d="M1018 598q-10 -124 -41.5 -210t-85.5 -169l192 -219h-198l-90 109q-58 -67 -133.5 -97t-182.5 -30q-163 0 -259.5 84.5t-96.5 224.5q0 120 64 197t182 124q-36 45 -56.5 75.5t-38.5 79t-18 97.5q0 128 81 194t208 66q116 0 194 -63.5t78 -186.5q0 -97 -69.5 -169
t-172.5 -119l226 -256q32 50 46.5 110t20.5 158h150zM403 862q0 -35 16.5 -72t34 -59t48.5 -55q66 30 117 79.5t51 112.5q0 136 -133 136q-57 0 -95.5 -37.5t-38.5 -104.5zM291 301q0 -88 64 -143.5t153 -55.5q112 0 203 107l-265 311q-39 -26 -61 -44t-47 -45t-36 -59
t-11 -71z" />
    <glyph glyph-name="quotesingle" unicode="'" horiz-adv-x="473" 
d="M154 1475h165v-502h-165v502z" />
    <glyph glyph-name="parenleft" unicode="(" horiz-adv-x="634" 
d="M451 -254q-151 224 -234.5 432t-83.5 432q0 119 24 233.5t71.5 225t98 201.5t124.5 205h153q-66 -116 -111.5 -206.5t-92 -204.5t-70 -228.5t-23.5 -225.5q0 -213 79.5 -422.5t217.5 -441.5h-153z" />
    <glyph glyph-name="parenright" unicode=")" horiz-adv-x="634" 
d="M184 -254h-153q138 232 217.5 441.5t79.5 422.5q0 111 -23.5 225.5t-70 228.5t-92 204.5t-111.5 206.5h153q74 -114 124.5 -205t98 -201.5t71.5 -225t24 -233.5q0 -224 -83.5 -432t-234.5 -432z" />
    <glyph glyph-name="asterisk" unicode="*" horiz-adv-x="1138" 
d="M569 1038l-143 -241l-129 88l192 213l-280 59l49 148l264 -109l-28 279h159l-26 -279l256 109l47 -148l-275 -59l187 -213l-131 -88z" />
    <glyph glyph-name="plus" unicode="+" 
d="M221 639h322v322h143v-322h322v-143h-322v-322h-143v322h-322v143z" />
    <glyph glyph-name="comma" unicode="," horiz-adv-x="583" 
d="M211 229h209l-174 -501h-164z" />
    <glyph glyph-name="hyphen" unicode="-" horiz-adv-x="968" 
d="M221 629h527v-156h-527v156z" />
    <glyph glyph-name="period" unicode="." horiz-adv-x="516" 
d="M164 188h188v-188h-188v188z" />
    <glyph glyph-name="slash" unicode="/" horiz-adv-x="794" 
d="M713 1087l-369 -1112h-180l368 1112h181z" />
    <glyph glyph-name="zero" unicode="0" 
 />
    <glyph glyph-name="one" unicode="1" 
 />
    <glyph glyph-name="two" unicode="2" 
 />
    <glyph glyph-name="three" unicode="3" 
 />
    <glyph glyph-name="four" unicode="4" 
 />
    <glyph glyph-name="five" unicode="5" 
 />
    <glyph glyph-name="six" unicode="6" 
 />
    <glyph glyph-name="seven" unicode="7" 
 />
    <glyph glyph-name="eight" unicode="8" 
 />
    <glyph glyph-name="nine" unicode="9" 
 />
    <glyph glyph-name="colon" unicode=":" horiz-adv-x="557" 
d="M373 856h-189v188h189v-188zM184 188h189v-188h-189v188z" />
    <glyph glyph-name="semicolon" unicode=";" horiz-adv-x="583" 
d="M420 856h-189v188h189v-188zM211 229h209l-174 -501h-164z" />
    <glyph glyph-name="equal" unicode="=" 
d="M221 864h787v-143h-787v143zM221 406h787v-144h-787v144z" />
    <glyph glyph-name="question" unicode="?" 
d="M528 336q0 74 20.5 121.5t78.5 113.5q5 6 25 29t27 32.5t23.5 31t23.5 36t17 35t13.5 41t3.5 41.5q0 79 -56 119.5t-137 40.5q-145 0 -233 -64l-12 150q120 53 264 53q89 0 165 -32t126.5 -99.5t50.5 -157.5q0 -58 -23.5 -112.5t-52.5 -90.5t-73 -88.5t-68 -89.5
q-33 -48 -33 -116v-29h-150v35zM528 150h150v-150h-150v150z" />
    <glyph glyph-name="A" unicode="A" 
 />
    <glyph glyph-name="B" unicode="B" 
 />
    <glyph glyph-name="C" unicode="C" 
 />
    <glyph glyph-name="D" unicode="D" 
 />
    <glyph glyph-name="E" unicode="E" 
 />
    <glyph glyph-name="F" unicode="F" 
 />
    <glyph glyph-name="G" unicode="G" 
 />
    <glyph glyph-name="H" unicode="H" 
 />
    <glyph glyph-name="I" unicode="I" 
 />
    <glyph glyph-name="J" unicode="J" 
 />
    <glyph glyph-name="K" unicode="K" 
 />
    <glyph glyph-name="L" unicode="L" 
 />
    <glyph glyph-name="M" unicode="M" 
 />
    <glyph glyph-name="N" unicode="N" 
 />
    <glyph glyph-name="O" unicode="O" 
 />
    <glyph glyph-name="P" unicode="P" 
 />
    <glyph glyph-name="Q" unicode="Q" 
 />
    <glyph glyph-name="R" unicode="R" 
 />
    <glyph glyph-name="S" unicode="S" 
 />
    <glyph glyph-name="T" unicode="T" 
 />
    <glyph glyph-name="U" unicode="U" 
 />
    <glyph glyph-name="V" unicode="V" 
 />
    <glyph glyph-name="W" unicode="W" 
 />
    <glyph glyph-name="X" unicode="X" 
 />
    <glyph glyph-name="Y" unicode="Y" 
 />
    <glyph glyph-name="Z" unicode="Z" 
 />
    <glyph glyph-name="bracketleft" unicode="[" horiz-adv-x="591" 
d="M123 1475h387v-154h-219v-1440h219v-153h-387v1747z" />
    <glyph glyph-name="bracketright" unicode="]" horiz-adv-x="591" 
d="M469 1475v-1747h-387v153h219v1440h-219v154h387z" />
    <glyph glyph-name="underscore" unicode="_" horiz-adv-x="1466" 
d="M1245 -119v-137h-1024v137h1024z" />
    <glyph glyph-name="a" unicode="a" 
 />
    <glyph glyph-name="b" unicode="b" 
 />
    <glyph glyph-name="c" unicode="c" 
 />
    <glyph glyph-name="d" unicode="d" 
 />
    <glyph glyph-name="e" unicode="e" 
 />
    <glyph glyph-name="f" unicode="f" 
 />
    <glyph glyph-name="g" unicode="g" 
 />
    <glyph glyph-name="h" unicode="h" 
 />
    <glyph glyph-name="i" unicode="i" 
 />
    <glyph glyph-name="j" unicode="j" 
 />
    <glyph glyph-name="k" unicode="k" 
 />
    <glyph glyph-name="l" unicode="l" 
 />
    <glyph glyph-name="m" unicode="m" 
 />
    <glyph glyph-name="n" unicode="n" 
 />
    <glyph glyph-name="o" unicode="o" 
 />
    <glyph glyph-name="p" unicode="p" 
 />
    <glyph glyph-name="q" unicode="q" 
 />
    <glyph glyph-name="r" unicode="r" 
 />
    <glyph glyph-name="s" unicode="s" 
 />
    <glyph glyph-name="t" unicode="t" 
 />
    <glyph glyph-name="u" unicode="u" 
 />
    <glyph glyph-name="v" unicode="v" 
 />
    <glyph glyph-name="w" unicode="w" 
 />
    <glyph glyph-name="x" unicode="x" 
 />
    <glyph glyph-name="y" unicode="y" 
 />
    <glyph glyph-name="z" unicode="z" 
 />
    <glyph glyph-name="braceleft" unicode="{" horiz-adv-x="708" 
d="M627 1317h-109q-96 0 -96 -148v-325q0 -48 -14 -88t-34 -65t-45.5 -43t-46 -25.5t-38.5 -10.5v-4q18 -2 38 -8.5t46 -24t46 -42t34 -67t14 -95.5v-322q0 -145 96 -145h109v-158h-150q-80 0 -149.5 65.5t-69.5 176.5v352q0 92 -51 147.5t-115 55.5v135q63 0 114.5 53
t51.5 139v361q0 111 69.5 177.5t149.5 66.5h150v-158z" />
    <glyph glyph-name="bar" unicode="|" horiz-adv-x="473" 
d="M154 1475h165v-1782h-165v1782z" />
    <glyph glyph-name="braceright" unicode="}" horiz-adv-x="708" 
d="M82 1317v158h149q80 0 150 -66.5t70 -177.5v-361q0 -86 51 -139t114 -53v-135q-64 0 -114.5 -55t-50.5 -148v-352q0 -111 -70 -176.5t-150 -65.5h-149v158h108q97 0 97 145v322q0 53 14 95.5t34 67t46 42t46 24t38 8.5v4q-18 3 -38.5 10.5t-46 25.5t-45.5 43t-34 65
t-14 88v325q0 148 -97 148h-108z" />
    <glyph glyph-name="multiply" unicode="&#xd7;" 
d="M387 895l227 -227l228 227l102 -100l-227 -228l227 -227l-102 -102l-228 227l-227 -227l-102 102l229 227l-229 228z" />
    <glyph glyph-name="divide" unicode="&#xf7;" 
d="M492 893q0 51 36.5 88t87.5 37q48 0 85.5 -37.5t37.5 -87.5q0 -46 -37.5 -84.5t-83.5 -38.5q-52 0 -89 36.5t-37 86.5zM207 631h815v-144h-815v144zM492 225q0 51 36.5 87t87.5 36q48 0 85.5 -37t37.5 -86q0 -46 -38 -85.5t-83 -39.5q-52 0 -89 37t-37 88z" />
    <glyph glyph-name="uni1B80" unicode="&#x1b80;" horiz-adv-x="122" 
d="M-565 1268q-97 0 -165.5 68t-68.5 165q0 95 68.5 163.5t165.5 68.5q95 0 163 -68.5t68 -163.5q0 -97 -68 -165t-163 -68zM-565 1393q42 0 71 30.5t29 77.5q0 45 -29 76t-71 31q-43 0 -73 -31t-30 -76q0 -47 30 -77.5t73 -30.5z" />
    <glyph glyph-name="uni1B81" unicode="&#x1b81;" horiz-adv-x="61" 
d="M-285 1724l113 -65l-252 -371h-115l-180 262l-78 -174l-125 41l109 242h184l148 -223z" />
    <glyph glyph-name="uni1B82" unicode="&#x1b82;" horiz-adv-x="804" 
d="M217 639l197 -639h-154l-199 639h156zM526 639l197 -639h-154l-198 639h155z" />
    <glyph glyph-name="uni1B83" unicode="&#x1b83;" horiz-adv-x="1398" 
d="M965 670q148 -3 241.5 -85.5t93.5 -232.5q0 -160 -146.5 -268.5t-387.5 -108.5q-190 0 -342 75.5t-242 222t-90 341.5q0 234 148 471h166q-148 -252 -148 -471q0 -114 41.5 -207.5t112 -153t162 -92t192.5 -32.5q161 0 265 66.5t104 171.5q0 73 -50 117.5t-125.5 57
t-168.5 -0.5l-82 -15l-31 54l326 352h-351v153h647l7 -49z" />
    <glyph glyph-name="uni1B84" unicode="&#x1b84;" horiz-adv-x="1112" 
d="M899 414h172l-65 -217q-61 -197 -265 -197h-700l262 856q37 118 113 173.5t198 55.5h334l-47 -153h-301q-97 0 -127 -94l-211 -684h479q80 0 103 77z" />
    <glyph glyph-name="uni1B85" unicode="&#x1b85;" horiz-adv-x="1208" 
d="M1018 485q-58 0 -90.5 -29.5t-32.5 -74.5q0 -31 11.5 -62t29.5 -56t40 -48.5t44.5 -41t40.5 -30.5t29 -21l12 -7l-37 -115h-950l286 932h-360l47 153h537l-289 -931h512l2 6q-18 14 -39.5 37.5t-49 75t-32.5 104.5q-8 117 73 189.5t230 72.5h156l-43 -154h-127z" />
    <glyph glyph-name="uni1B86" unicode="&#x1b86;" horiz-adv-x="1460" 
d="M1038 737q157 126 328 37l-29 -141h-2q-60 40 -147.5 47.5t-151.5 -18.5q120 -19 192 -99t72 -211q0 -160 -146.5 -268.5t-387.5 -108.5q-190 0 -342 75.5t-242 222t-90 341.5q0 234 148 471h166q-148 -252 -148 -471q0 -114 41.5 -207.5t112 -153t162 -92t192.5 -32.5
q161 0 265 66.5t104 171.5q0 73 -50 117.5t-125.5 57t-168.5 -0.5l-82 -15l-31 54l326 352h-351v153h647l7 -49l-275 -293z" />
    <glyph glyph-name="uni1B87" unicode="&#x1b87;" horiz-adv-x="1529" 
d="M1239 659q129 0 197.5 -94t33.5 -209l-106 -356h-172l104 350q17 59 -11 98t-89 39q-54 0 -91.5 -28t-57.5 -97l-50 -165q-58 -197 -264 -197h-516l117 379l-293 706h688l-291 -931h295q82 0 103 77l45 152q26 87 65.5 145t90 85t96.5 36.5t106 9.5zM287 932l125 -301
l94 301h-219z" />
    <glyph glyph-name="uni1B88" unicode="&#x1b88;" horiz-adv-x="1380" 
d="M92 614q0 139 53 281l160 -29q-47 -137 -47 -252q0 -230 135.5 -360t360.5 -125q148 3 232.5 75t105.5 191l-5 4q-147 13 -275 73.5t-202.5 161.5t-56.5 214q42 270 426 270q126 0 307 -43l-41 -153q-6 1 -40 10t-51 12.5t-49.5 9.5t-64 8.5t-65.5 2.5q-244 0 -256 -142
q-5 -66 49 -125.5t137.5 -97t177 -58t170.5 -16.5l29 -34q-84 -505 -528 -517q-290 -7 -476 172.5t-186 466.5z" />
    <glyph glyph-name="uni1B89" unicode="&#x1b89;" horiz-adv-x="1380" 
d="M940 1044h-115l-254 326h166l146 -184l145 184h164zM973 606q135 -9 221 -83t86 -191q0 -160 -145 -258.5t-390 -98.5q-185 0 -332.5 75.5t-234 222t-86.5 341.5q0 90 37.5 223.5t110.5 247.5h166q-71 -115 -109.5 -249.5t-38.5 -221.5q0 -152 66 -263.5t175 -166.5
t246 -55q160 0 264.5 58.5t104.5 148.5q1 60 -51 97t-131.5 44.5t-173.5 -2.5l-70 -10l-31 53l252 250h-315v154h647l6 -50z" />
    <glyph glyph-name="uni1B8A" unicode="&#x1b8a;" horiz-adv-x="1316" 
d="M625 1085l-336 -1085h-174l286 932h-360l47 153h537zM1337 1085l-327 -1085h-174l286 932h-360l47 153h528z" />
    <glyph glyph-name="uni1B8B" unicode="&#x1b8b;" horiz-adv-x="1480" 
d="M1501 1085l-334 -1085h-176l289 932h-205q-97 0 -127 -94l-258 -838h-176l289 932h-230q-78 0 -102 -78l-258 -854h-172l268 889q60 196 264 196h928z" />
    <glyph glyph-name="uni1B8C" unicode="&#x1b8c;" horiz-adv-x="1253" 
d="M1212 639l-133 -442q-61 -197 -264 -197h-700l286 932h-360l47 153h537l-289 -931h479q80 0 103 77l75 254h-278l47 154h450z" />
    <glyph glyph-name="uni1B8D" unicode="&#x1b8d;" horiz-adv-x="1085" 
d="M1040 287q43 -145 -9.5 -216t-205.5 -71h-710l286 932h-360l47 153h537l-289 -931h510q28 0 39.5 15.5t3.5 41.5l-133 428h176z" />
    <glyph glyph-name="uni1B8E" unicode="&#x1b8e;" horiz-adv-x="1562" 
d="M1409 1085h174l-248 -815q-44 -143 -148 -222.5t-233.5 -74t-246.5 96.5l-86 67q-72 -166 -269 -166q-99 0 -179.5 66.5t-80.5 173.5q0 105 74 172.5t182 67.5q54 0 100 -22.5t70 -53.5l4 2l170 555h-360l47 153h536l-249 -813l69 -57q141 -114 269 -80.5t176 191.5z
M360 113q50 0 78.5 29.5t28.5 72.5q0 40 -30.5 67t-76.5 27q-42 0 -72 -29t-30 -69q0 -41 29.5 -69.5t72.5 -28.5z" />
    <glyph glyph-name="uni1B8F" unicode="&#x1b8f;" horiz-adv-x="1515" 
d="M883 639h123l196 -639h-174l-133 436l-74 -239q-62 -197 -264 -197h-516l262 856q37 118 113 173.5t198 55.5h254l-47 -153h-221q-97 0 -127 -94l-211 -684h293q81 0 104 75l97 316q30 94 127 94zM1303 639l196 -639h-174l-197 639h175z" />
    <glyph glyph-name="uni1B90" unicode="&#x1b90;" horiz-adv-x="1425" 
d="M1135 659q129 0 197.5 -94t33.5 -209l-106 -356h-173l105 350q17 59 -11 98t-89 39q-54 0 -92 -28t-58 -97l-49 -165q-58 -197 -264 -197h-516l288 932h-360l47 153h537l-291 -931h295q81 0 102 77l45 152q26 87 65.5 145t90.5 85t97 36.5t106 9.5z" />
    <glyph glyph-name="uni1B91" unicode="&#x1b91;" horiz-adv-x="1742" 
d="M1763 1085l-331 -1085h-228l-229 459l-80 -262q-61 -197 -264 -197h-516l286 932h-360l47 153h537l-289 -931h295q79 0 102 77l96 314q27 94 127 94h117l234 -487l237 780h-297q-29 0 -35 -25l-24 -82h-172l41 133q39 127 172 127h534z" />
    <glyph glyph-name="uni1B92" unicode="&#x1b92;" horiz-adv-x="1650" 
d="M1610 639l-197 -639h-172l150 485h-367l-86 -288q-58 -197 -264 -197h-516l151 485h-278l47 154h454l-151 -485h293q79 0 102 77l258 854h172l-135 -446h539z" />
    <glyph glyph-name="uni1B93" unicode="&#x1b93;" 
d="M1006 639l196 -639h-174l-133 436l-74 -239q-62 -197 -264 -197h-516l262 856q37 118 113 173.5t198 55.5h254l-47 -153h-221q-97 0 -127 -94l-211 -684h293q81 0 104 75l97 316q30 94 127 94h123z" />
    <glyph glyph-name="uni1B94" unicode="&#x1b94;" horiz-adv-x="1050" 
d="M500 154h520l-47 -154h-694l286 932h-483l47 153h659z" />
    <glyph glyph-name="uni1B95" unicode="&#x1b95;" horiz-adv-x="1329" 
d="M1348 1085l-269 -888q-61 -197 -264 -197h-700l286 932h-360l47 153h537l-289 -931h479q80 0 103 77l210 701h-258l48 153h430z" />
    <glyph glyph-name="uni1B96" unicode="&#x1b96;" horiz-adv-x="1327" 
d="M1176 1085h172l-269 -888q-61 -197 -264 -197h-700l286 932h-360l47 153h537l-289 -931h479q80 0 103 77z" />
    <glyph glyph-name="uni1B97" unicode="&#x1b97;" horiz-adv-x="1232" 
d="M1081 1085h172l-268 -888q-61 -197 -264 -197h-701l334 1085h176l-288 -931h479q79 0 102 77z" />
    <glyph glyph-name="uni1B98" unicode="&#x1b98;" horiz-adv-x="1671" 
d="M1690 1085l-332 -1085h-228l-229 459l-80 -262q-61 -197 -264 -197h-516l262 856q37 118 113 173.5t198 55.5h172l-53 -153h-133q-97 0 -127 -94l-211 -684h295q79 0 102 77l97 314q27 94 127 94h116l234 -487l237 780h-296q-29 0 -35 -25l-25 -82h-172l41 133
q39 127 172 127h535z" />
    <glyph glyph-name="uni1B99" unicode="&#x1b99;" horiz-adv-x="1331" 
d="M1352 1085l-269 -888q-59 -197 -264 -197h-659l149 485h-278l47 154h454l-151 -485h438q80 0 103 77l211 701h-904l45 153h1078z" />
    <glyph glyph-name="uni1B9A" unicode="&#x1b9a;" horiz-adv-x="1710" 
d="M1495 639h172l-194 -639h-222l-241 436l-72 -239q-31 -100 -95.5 -148.5t-168.5 -48.5h-516l151 485h-278l47 154h454l-151 -485h293q79 0 102 77l258 854h172l-125 -413l269 -508z" />
    <glyph glyph-name="uni1B9B" unicode="&#x1b9b;" horiz-adv-x="804" 
d="M199 1085h618l-47 -153h-618zM727 793l-246 -793h-174l78 254h-344l47 154h344l72 231h-443l48 154h618z" />
    <glyph glyph-name="uni1B9C" unicode="&#x1b9c;" horiz-adv-x="1495" 
d="M1343 1085h173l-269 -888q-58 -197 -264 -197h-489l284 932h-203q-78 0 -102 -78l-258 -854h-174l270 889q58 196 264 196h422l-284 -931h270q79 0 102 77z" />
    <glyph glyph-name="uni1B9D" unicode="&#x1b9d;" horiz-adv-x="1200" 
d="M1139 639l-133 -442q-61 -197 -265 -197h-700l262 856q37 118 113 173.5t198 55.5h334l-47 -153h-301q-97 0 -127 -94l-211 -684h479q80 0 103 77l76 254h-279l47 154h451z" />
    <glyph glyph-name="uni1B9E" unicode="&#x1b9e;" horiz-adv-x="1398" 
d="M698 1085l-184 -596v-4h-2l-150 -485h-174l150 485h-297l47 154h297l90 293h-360l47 153h536zM1235 489v-4h-2l-150 -485h-174l150 485h-297l47 154h297l90 293h-360l47 153h536z" />
    <glyph glyph-name="uni1B9F" unicode="&#x1b9f;" horiz-adv-x="1277" 
d="M1296 1085l-335 -1085h-175l150 485h-422l-152 -485h-174l150 485h-297l47 154h297l90 293h-360l47 153h1134zM561 639h422l90 293h-323q-100 0 -127 -94z" />
    <glyph glyph-name="uni1BA0" unicode="&#x1ba0;" horiz-adv-x="1658" 
d="M1679 1085l-331 -1085h-172l284 932h-260q-78 0 -102 -78l-199 -657q-59 -197 -264 -197h-475l149 485h-278l47 154h454l-151 -485h254q79 0 102 77l199 658q60 196 264 196h479z" />
    <glyph glyph-name="uni1BA1" unicode="&#x1ba1;" horiz-adv-x="665" 
d="M584 639l-199 -639h-154l156 506h-156q-45 0 -57 -43l-205 -656q-20 -65 -62 -95.5t-110 -30.5h-985l41 135h920q45 0 57 43l203 653q39 127 172 127h379z" />
    <glyph glyph-name="uni1BA2" unicode="&#x1ba2;" horiz-adv-x="0" 
d="M-362 -199q99 -66 143.5 -178.5t-2.5 -212.5q-32 -60 -81.5 -92t-107 -35.5t-110 6.5t-107.5 31q-70 26 -146 73.5t-123 84.5t-116 96l-245 -145l-74 102l338 199l32 -29q227 -204 383 -262q48 -19 90.5 -25t84.5 8t61 54q28 58 -6 119.5t-101 117.5z" />
    <glyph glyph-name="uni1BA3" unicode="&#x1ba3;" horiz-adv-x="40" 
d="M-711 -567h234l-43 -113h-375l150 383h-193q-45 0 -59 -41l-133 -342h-140l146 375q25 63 67.5 92t108.5 29h387z" />
    <glyph glyph-name="uni1BA4" unicode="&#x1ba4;" horiz-adv-x="122" 
d="M-322 1716l-118 -440l-66 -27l-334 99l35 127l260 -76l56 205h-279l31 112h415z" />
    <glyph glyph-name="uni1BA5" unicode="&#x1ba5;" horiz-adv-x="0" 
d="M-571 -184l-195 -496h-139l149 383h-268l33 113h420z" />
    <glyph glyph-name="uni1BA6" unicode="&#x1ba6;" horiz-adv-x="882" 
d="M465 276l-45 -143h340l-41 -133h-494l156 506h-299l41 133h455l-72 -229h274l-41 -134h-274z" />
    <glyph glyph-name="uni1BA7" unicode="&#x1ba7;" horiz-adv-x="841" 
d="M461 133h299l-41 -133h-455l74 240h-277l41 133h279l41 133h-340l41 133h493z" />
    <glyph glyph-name="uni1BA8" unicode="&#x1ba8;" horiz-adv-x="40" 
d="M-328 1718h166l-332 -430h-114l-334 430h166l225 -286z" />
    <glyph glyph-name="uni1BA9" unicode="&#x1ba9;" horiz-adv-x="20" 
d="M-346 1718h164l-332 -430h-115l-334 430h164l115 -147l6 4q-28 242 199 334l88 -97l-2 -4q-108 -45 -166.5 -143t-48.5 -188l37 -47z" />
    <glyph glyph-name="uni1BAA" unicode="&#x1baa;" horiz-adv-x="905" 
d="M453 383q94 -6 146 -62.5t52 -142.5q0 -54 -23.5 -95.5t-73.5 -74.5t-109.5 -57.5t-151.5 -52.5q-62 -18 -95.5 -29t-76.5 -30t-64.5 -37t-37 -45t-15.5 -60q0 -51 45 -86t110 -50t141 -20.5t135 -2.5t95 9l-14 -133q-39 -4 -82 -6t-110.5 0t-127.5 10t-124 28.5t-110 51
t-75.5 82t-29.5 117.5q0 56 22.5 104t57 80.5t87.5 61.5t101 47t111 37q17 5 57.5 16.5t57.5 16.5t48 16t44.5 19.5t30.5 21.5t23.5 28t6.5 33q0 52 -74 78.5t-170 3.5l-31 -8l-26 53l184 201h-283l23 133h528l4 -33z" />
    <glyph glyph-name="uni1BAB" unicode="&#x1bab;" horiz-adv-x="1396" 
d="M82 1526v-1577h1233v1577h-1233zM184 1423h1028v-1372h-1028v1372zM348 801h285v286h129v-286h285v-127h-285v-285h-129v285h-285v127z" />
    <glyph glyph-name="uni1BAC" unicode="&#x1bac;" horiz-adv-x="0" 
d="M-532 -281q-163 37 -264 28t-146 -45.5t-45 -96.5q0 -80 87.5 -138.5t211.5 -58.5q133 0 223.5 52t138.5 171q19 49 34.5 112.5t21.5 102t6 48.5h133q-27 -191 -59 -289q-46 -144 -166 -233t-308 -89q-123 0 -229.5 43t-169.5 117.5t-63 161.5q0 118 75.5 186t204.5 78.5
t301 -23.5l17 -120z" />
    <glyph glyph-name="uni1BAD" unicode="&#x1bad;" horiz-adv-x="81" 
d="M-891 -184l-149 -383h233l-43 -113h-375l150 383h-236l43 113h377zM-539 -567h234l-43 -113h-375l150 383h-236l43 113h377z" />
    <glyph glyph-name="uni1BAE" unicode="&#x1bae;" horiz-adv-x="2600" 
d="M2605 1085l-332 -1085h-172l285 932h-182q-79 0 -103 -78l-198 -657q-59 -197 -265 -197h-475l150 485h-277l-149 -485h-174l286 932h-323q-100 0 -127 -94l-260 -838h-174l286 932h-360l47 153h1135l-138 -446h451l-152 -485h254q80 0 103 77l198 658q60 196 265 196
h401z" />
    <glyph glyph-name="uni1BAF" unicode="&#x1baf;" horiz-adv-x="2734" 
d="M2574 639h174l-196 -639h-221l-240 436l-74 -239q-60 -197 -264 -197h-514l150 485h-279l-149 -485h-175l150 485h-422l-152 -485h-174l150 485h-297l47 154h297l90 293h-360l47 153h1134l-137 -446h453l-152 -485h293q79 0 102 77l248 813h172l-114 -370l268 -510z
M561 639h422l90 293h-323q-100 0 -127 -94z" />
    <glyph glyph-name="uni1BB0" unicode="&#x1bb0;" horiz-adv-x="1363" 
d="M682 -25q-124 0 -233.5 46.5t-187.5 126t-123.5 188t-45.5 229.5t45.5 229.5t123.5 188t187.5 126t233.5 46.5t233.5 -46.5t187.5 -126t123.5 -188t45.5 -229.5t-45.5 -229.5t-123.5 -188t-187.5 -126t-233.5 -46.5zM682 129q185 0 306.5 125t121.5 311t-121.5 311
t-306.5 125t-306.5 -125t-121.5 -311t121.5 -311t306.5 -125z" />
    <glyph glyph-name="uni1BB1" unicode="&#x1bb1;" horiz-adv-x="1400" 
d="M1360 639l-133 -442q-61 -197 -264 -197h-721l262 856q10 35 31 76h-263q-28 0 -34 -25l-25 -82h-172l41 133q39 127 172 127h940l-47 -153h-346q-97 0 -127 -94l-211 -684h500q79 0 102 77l76 254h-174q-29 0 -35 -24l-25 -82h-172l41 133q39 127 172 127h412z" />
    <glyph glyph-name="uni1BB2" unicode="&#x1bb2;" horiz-adv-x="1310" 
d="M1098 414h172l-66 -217q-61 -197 -264 -197h-700l286 932h-254q-28 0 -34 -25l-25 -82h-172l41 133q39 127 172 127h496l-138 -446h277l-47 -154h-279l-102 -331h479q79 0 102 77z" />
    <glyph glyph-name="uni1BB3" unicode="&#x1bb3;" horiz-adv-x="1333" 
d="M1143 485q-58 0 -90.5 -29.5t-32.5 -74.5q0 -31 11.5 -62t29.5 -56t40.5 -48.5t44.5 -41t40 -30.5t30 -21l11 -7l-37 -115h-950l286 932h-254q-28 0 -34 -25l-25 -82h-172l41 133q39 127 172 127h496l-289 -931h512l2 6q-18 14 -39.5 37.5t-49 75t-32.5 104.5
q-8 117 73 189.5t230 72.5h156l-43 -154h-127z" />
    <glyph glyph-name="uni1BB4" unicode="&#x1bb4;" horiz-adv-x="817" 
d="M838 639l-47 -154h-211l-150 -485h-174l150 485h-297l47 154h297l90 293h-271q-28 0 -34 -25l-25 -82h-172l41 133q39 127 172 127h512l-137 -446h209z" />
    <glyph glyph-name="uni1BB5" unicode="&#x1bb5;" horiz-adv-x="1570" 
d="M1298 932h-159l198 -645q44 -145 -9 -216t-206 -71h-673q-154 0 -207 71t-9 216l199 645h-160q-28 0 -34 -25l-25 -82h-172l41 133q36 121 160 127h413l-137 -446l-133 -428q-8 -26 3.5 -41.5t39.5 -15.5h715q28 0 39.5 15.5t3.5 41.5l-133 428l-138 446h402
q133 0 172 -127l41 -133h-172l-25 82q-6 25 -35 25z" />
    <glyph glyph-name="uni1BB6" unicode="&#x1bb6;" horiz-adv-x="1134" 
d="M944 485q-58 0 -90.5 -29.5t-32.5 -74.5q0 -31 11.5 -62t29.5 -56t40 -48.5t44.5 -41t40.5 -30.5t29 -21l12 -7l-37 -115h-950l262 856q37 118 113 173.5t198 55.5h379l-47 -153h-346q-97 0 -127 -94l-211 -684h512l2 6q-18 14 -39.5 37.5t-49 75t-32.5 104.5
q-8 117 73 189.5t230 72.5h156l-43 -154h-127z" />
    <glyph glyph-name="uni1BB7" unicode="&#x1bb7;" horiz-adv-x="1718" 
d="M1567 1085h172l-269 -888q-58 -197 -264 -197h-489l284 932h-202q-79 0 -103 -78l-198 -657q-61 -197 -265 -197h-202l47 154h153q80 0 103 77l201 658q58 196 264 196h422l-285 -931h270q80 0 103 77z" />
    <glyph glyph-name="uni1BB8" unicode="&#x1bb8;" horiz-adv-x="1562" 
d="M1409 1085h174l-248 -815q-44 -143 -148 -222.5t-233.5 -74t-246.5 96.5l-86 67q-72 -166 -269 -166q-99 0 -179.5 66.5t-80.5 173.5q0 105 74 172.5t182 67.5q54 0 100 -22.5t70 -53.5l4 2l170 555h-293q-28 0 -34 -25l-25 -82h-172l41 133q39 127 170 127h536
l-249 -813l69 -57q141 -114 269 -80.5t176 191.5zM360 113q50 0 78.5 29.5t28.5 72.5q0 40 -30.5 67t-76.5 27q-42 0 -72 -29t-30 -69q0 -41 29.5 -69.5t72.5 -28.5z" />
    <glyph glyph-name="uni1BB9" unicode="&#x1bb9;" horiz-adv-x="1253" 
d="M1104 485q-58 0 -90.5 -29.5t-32.5 -74.5q0 -31 11.5 -62t29.5 -56t40 -48.5t44.5 -41t40.5 -30.5t29 -21l12 -7l-37 -115h-950l262 856q10 35 31 76h-222q-28 0 -34 -25l-25 -82h-172l41 133q39 127 172 127h899l-47 -153h-346q-97 0 -127 -94l-211 -684h512l2 6
q-18 14 -39.5 37.5t-49 75t-32.5 104.5q-8 117 73 189.5t230 72.5h156l-43 -154h-127z" />
    <glyph glyph-name="uni1BBA" unicode="&#x1bba;" horiz-adv-x="677" 
d="M514 489v-4l-254 -819h-174l252 819h-297l47 154h297l90 293h-360l47 153h536z" />
    <glyph glyph-name="uni1BBB" unicode="&#x1bbb;" horiz-adv-x="1355" 
d="M1376 1085l-266 -888q-61 -197 -264 -197h-701l285 932h-360l47 153h536l-286 -931h479q79 0 102 77l211 701h-260l47 153h430zM41 -338l47 154h905l-45 -154h-907z" />
    <glyph glyph-name="uni1BBC" unicode="&#x1bbc;" horiz-adv-x="2066" 
d="M1028 0l-133 436l-74 -239q-62 -197 -264 -197h-516l262 856q37 118 113 173.5t198 55.5h459l-47 -153h-426q-97 0 -127 -94l-211 -684h293q81 0 104 75l97 316q30 94 127 94h123l196 -639h-174zM1931 -119l156 -26l-2 -41q-6 -123 -39.5 -221.5t-84 -159.5t-114.5 -97
t-131.5 -41.5t-134 14.5t-123.5 64l-69 56q-74 -150 -261 -150q-99 0 -179.5 66.5t-80.5 173.5q0 105 74 172t182 67q55 0 100.5 -22t69.5 -53l4 2l383 1247h-360l47 153h537l-469 -1525l51 -41q57 -46 115.5 -64t113 -2t99.5 61.5t75.5 132.5t38.5 206zM1137 -580
q50 0 78 29.5t28 73.5q0 40 -30 67t-76 27q-43 0 -73 -29t-30 -69q0 -41 30 -70t73 -29z" />
    <glyph glyph-name="uni1BBD" unicode="&#x1bbd;" horiz-adv-x="1996" 
d="M1956 1085l-154 -499h-174l107 346h-283q-78 0 -102 -78l-211 -700h458l-47 -154h-1509l47 154h311q82 0 105 75l215 703h-232q-97 0 -127 -94l-79 -254h-175l84 272q69 229 312 229h440l-289 -931h234q79 0 102 77l199 658q60 196 264 196h504z" />
    <glyph glyph-name="uni1BBE" unicode="&#x1bbe;" horiz-adv-x="2011" 
d="M1628 154h322l-47 -154l-1778 -2l47 156h322l239 778h-592l47 153h768l-288 -931h786l240 778h-592l47 153h768zM219 309l109 359h-267l39 133h424l-151 -492h-154zM1178 309l110 359h-266l39 133h424l-154 -492h-153z" />
    <glyph glyph-name="uni1BBF" unicode="&#x1bbf;" horiz-adv-x="1122" 
d="M1143 1085l-336 -1085h-174l287 932h-592l47 153h768zM711 801l-47 -154h-424l47 154h424zM143 334l47 155h424l-47 -153zM41 -2l47 156h424l-47 -154z" />
    <glyph glyph-name="uni1CC0" unicode="&#x1cc0;" horiz-adv-x="1955" 
d="M1853 956v-165l-282 -222v-4v-2l282 -221v-166l-303 236q-40 -153 -150 -264.5t-263 -151.5l235 -307h-166l-223 286l-225 -286h-166l237 305q-156 39 -267.5 152t-151.5 268l-308 -240v166l287 225l-287 223v166l308 -237q40 154 151 266.5t266 153.5l-235 303h166
l223 -285h4l221 285h166l-235 -305q153 -40 263 -150t150 -262zM981 129q185 0 306.5 125t121.5 311t-121.5 311t-306.5 125t-306.5 -125t-121.5 -311t121.5 -311t306.5 -125z" />
    <glyph glyph-name="uni1CC1" unicode="&#x1cc1;" horiz-adv-x="1384" 
d="M692 1155q124 0 233.5 -46.5t187.5 -126t123.5 -188t45.5 -229.5t-45.5 -229.5t-123.5 -188t-187.5 -126t-233.5 -46.5t-233.5 46.5t-187.5 126t-123.5 188t-45.5 229.5t45.5 229.5t123.5 188t187.5 126t233.5 46.5zM944 922q-108 79 -252 79q-142 0 -252 -77l254 -252z
M264 565q0 -140 74 -250l264 265l-254 251q-84 -117 -84 -266zM1049 315q71 110 71 250q0 150 -84 264l-250 -249zM426 219q114 -90 266 -90q155 0 269 90l-267 268z" />
    <glyph glyph-name="uni1CC2" unicode="&#x1cc2;" horiz-adv-x="1384" 
d="M692 1155q124 0 233.5 -46.5t187.5 -126t123.5 -188t45.5 -229.5t-45.5 -229.5t-123.5 -188t-187.5 -126t-233.5 -46.5t-233.5 46.5t-187.5 126t-123.5 188t-45.5 229.5t45.5 229.5t123.5 188t187.5 126t233.5 46.5zM911 944q-97 57 -219 57q-118 0 -217 -55
q22 -73 82 -118.5t137 -45.5q76 0 135.5 45.5t81.5 116.5zM1024 283q96 120 96 282q0 170 -102 291q-43 -93 -131 -150t-193 -57t-193 57.5t-132 149.5q-105 -121 -105 -291q0 -162 98 -284q40 98 130.5 159.5t201.5 61.5q109 0 198.5 -60.5t131.5 -158.5zM471 188
q95 -59 221 -59q123 0 223 59q-15 77 -77.5 129t-143.5 52q-83 0 -145.5 -51.5t-77.5 -129.5z" />
    <glyph glyph-name="uni1CC3" unicode="&#x1cc3;" horiz-adv-x="1384" 
d="M692 -25q-124 0 -233.5 46.5t-187.5 126t-123.5 188t-45.5 229.5t45.5 229.5t123.5 188t187.5 126t233.5 46.5t233.5 -46.5t187.5 -126t123.5 -188t45.5 -229.5t-45.5 -229.5t-123.5 -188t-187.5 -126t-233.5 -46.5zM692 129q185 0 306.5 125t121.5 311t-121.5 311
t-306.5 125t-306.5 -125t-121.5 -311t121.5 -311t306.5 -125z" />
    <glyph glyph-name="uni1CC4" unicode="&#x1cc4;" horiz-adv-x="2502" 
d="M1028 0l-133 436l-74 -239q-62 -197 -264 -197h-516l262 856q37 118 113 173.5t198 55.5h459l-47 -153h-426q-97 0 -127 -94l-211 -684h293q81 0 104 75l97 316q30 94 127 94h123l196 -639h-174zM1905 1085l-490 -1591q-66 -215 -287 -215q-99 0 -179.5 66.5t-80.5 173.5
q0 105 74 172t182 67q55 0 100.5 -22t69.5 -53l4 2l383 1247h-360l47 153h537zM2068 1085h414l-37 -153h-424zM1933 647l47 154h424l-47 -154h-424zM1837 334l47 155h424l-47 -153zM1735 -2l47 156h424l-47 -154zM1137 -580q50 0 78 29.5t28 73.5q0 40 -30 67t-76 27
q-43 0 -73 -29t-30 -69q0 -41 30 -70t73 -29z" />
    <glyph glyph-name="uni1CC5" unicode="&#x1cc5;" horiz-adv-x="1198" 
d="M627 1085l-336 -1085h-174l286 932h-362l47 153h539zM795 1085h424l-48 -153h-423zM657 647l48 154h423l-47 -154h-424zM561 334l47 155h424l-47 -153zM459 -2l47 156h424l-47 -154z" />
    <glyph glyph-name="uni1CC6" unicode="&#x1cc6;" horiz-adv-x="2070" 
d="M2050 1085l-37 -153h-1413q-97 0 -127 -94l-211 -684h293q81 0 104 75l97 316q30 94 127 94h123l196 -639h-174l-133 436l-74 -239q-62 -197 -264 -197h-516l262 856q37 118 113 173.5t198 55.5h1436zM1212 647l-47 154h807l-47 -154h-713zM1307 334l-47 155h616
l-47 -153zM1407 -2l-47 156h414l-48 -154z" />
    <glyph glyph-name="uni1CC7" unicode="&#x1cc7;" horiz-adv-x="2836" 
d="M2294 1085l-332 -1085h-227l-230 459l-80 -262q-61 -197 -264 -197h-516l262 856q10 35 31 76h-610l47 153h1016l-54 -153h-133q-97 0 -127 -94l-211 -684h295q80 0 103 77l96 314q27 94 127 94h117l233 -487l238 780h-297q-29 0 -35 -25l-25 -82h-172l41 133
q39 127 172 127h535zM2443 1085h414l-37 -153h-424zM711 801l-47 -154h-424l47 154h424zM2308 647l47 154h424l-47 -154h-424zM143 334l47 155h424l-47 -153zM2212 334l47 155h424l-47 -153zM41 0l47 154h424l-47 -154h-424zM2109 -2l48 156h423l-47 -154z" />
    <glyph glyph-name="endash" unicode="&#x2013;" horiz-adv-x="1466" 
d="M221 623h1024v-144h-1024v144z" />
    <glyph glyph-name="emdash" unicode="&#x2014;" horiz-adv-x="2490" 
d="M221 623h2048v-144h-2048v144z" />
    <glyph glyph-name="quoteleft" unicode="&#x2018;" horiz-adv-x="624" 
d="M311 973h-209l174 502h164z" />
    <glyph glyph-name="quoteright" unicode="&#x2019;" horiz-adv-x="624" 
d="M313 1477h209l-174 -502h-164z" />
    <glyph glyph-name="quotesinglbase" unicode="&#x201a;" 
d="M211 229h209l-174 -501h-164z" />
    <glyph glyph-name="quotedblleft" unicode="&#x201c;" horiz-adv-x="964" 
d="M311 971h-209l174 502h164zM651 971h-209l174 502h164z" />
    <glyph glyph-name="quotedblright" unicode="&#x201d;" horiz-adv-x="964" 
d="M313 1475h209l-174 -502h-164zM653 1475h209l-174 -502h-164z" />
    <glyph glyph-name="quotedblbase" unicode="&#x201e;" 
d="M211 229h209l-174 -501h-164zM551 229h209l-174 -501h-164z" />
    <glyph glyph-name="bullet" unicode="&#x2022;" horiz-adv-x="1001" 
d="M199 530q0 128 88 216t215 88q128 0 216.5 -88.5t88.5 -215.5q0 -129 -88.5 -217t-216.5 -88t-215.5 88t-87.5 217z" />
    <glyph glyph-name="ellipsis" unicode="&#x2026;" horiz-adv-x="1323" 
d="M164 188h188v-188h-188v188zM575 188h189v-188h-189v188zM971 188h188v-188h-188v188z" />
    <glyph glyph-name="minus" unicode="&#x2212;" 
d="M221 639h787v-143h-787v143z" />
    <glyph glyph-name="uni25CC" unicode="&#x25cc;" horiz-adv-x="1217" 
d="M981 858q0 -49 -49 -49q-51 0 -51 49t51 49q49 0 49 -49zM831 956q0 -49 -47 -49q-53 0 -53 49q0 52 53 52q47 0 47 -52zM1079 711q0 -52 -51 -52q-49 0 -49 52q0 49 51 49q49 0 49 -49zM1114 537q0 -52 -47 -52q-51 0 -51 52q0 49 51 49q47 0 47 -49zM657 993
q0 -51 -49 -51q-51 0 -51 51q0 49 51 49q49 0 49 -49zM485 956q0 -49 -51 -49q-49 0 -49 49q0 52 49 52q51 0 51 -52zM1079 362q0 -49 -51 -49q-49 0 -49 49q0 52 49 52q51 0 51 -52zM338 858q0 -49 -51 -49q-49 0 -49 45q0 53 49 53q51 0 51 -49zM981 213q0 -49 -49 -49
q-51 0 -51 49t51 49q49 0 49 -49zM831 115q0 -49 -47 -49q-53 0 -53 49q0 51 53 51q47 0 47 -51zM238 711q0 -52 -48 -52q-53 0 -53 52q0 49 51 49q50 0 50 -49zM203 537q0 -52 -49 -52q-52 0 -52 52q0 49 52 49q49 0 49 -49zM657 82q0 -51 -49 -51q-51 0 -51 51q0 47 51 47
q49 0 49 -47zM238 362q0 -49 -50 -49q-51 0 -51 49q0 52 51 52q50 0 50 -52zM485 119q0 -53 -51 -53q-49 0 -49 49q0 51 49 51q51 0 51 -47zM338 213q0 -49 -51 -49q-49 0 -49 49t49 49q51 0 51 -49z" />
    <glyph glyph-name="uni0009" horiz-adv-x="682" 
 />
    <glyph glyph-name="uni1B9B1B80" horiz-adv-x="806" 
d="M541 1268q-97 0 -165.5 68t-68.5 165q0 95 68.5 163.5t165.5 68.5q95 0 163 -68.5t68 -163.5q0 -97 -68 -165t-163 -68zM541 1608q-43 0 -73 -31t-30 -76q0 -47 30 -77.5t73 -30.5q42 0 71 30.5t29 77.5q0 45 -29 76t-71 31zM199 1085h618l-47 -153h-618zM727 793
l-246 -793h-174l78 254h-344l47 154h344l72 231h-443l48 154h618z" />
    <glyph glyph-name="uni1B9B1B81" horiz-adv-x="989" 
d="M453 1550l-78 -174l-125 41l108 242h185l147 -223l197 288l112 -65l-251 -371h-115zM152 932l47 153h618l-47 -153h-618zM727 793l-246 -793h-174l78 254h-344l47 154h344l72 231h-443l48 154h618z" />
    <glyph glyph-name="uni1B9B1BA2" horiz-adv-x="1171" 
d="M563 1085h619l-47 -153h-619zM453 408h344l71 231h-442l47 154h619l-246 -793h-174l78 254h-344zM948 -199q99 -67 144 -179t-2 -212q-32 -60 -81.5 -92t-107 -35.5t-110 6.5t-107.5 31q-70 26 -146 73.5t-123 84.5t-116 96l-246 -145l-73 102l337 199l33 -29
q227 -204 383 -262q48 -19 90.5 -25t84.5 8t61 54q28 58 -6 119.5t-101 117.5z" />
    <glyph glyph-name="uni1B9B1BA3" horiz-adv-x="1126" 
d="M518 1085h619l-47 -153h-619zM1047 793l-246 -793h-174l78 254h-345l48 154h344l71 231h-442l47 154h619zM750 -184l-150 -383h234l-43 -113h-375l149 383h-192q-46 0 -60 -41l-133 -342h-139l145 375q25 63 67.5 92t108.5 29h388z" />
    <glyph glyph-name="uni1B9B1BA4" horiz-adv-x="806" 
d="M688 1276l-65 -27l-334 99l35 127l260 -76l55 205h-279l31 112h416zM199 1085h618l-47 -153h-618zM727 793l-246 -793h-174l78 254h-344l47 154h344l72 231h-443l48 154h618z" />
    <glyph glyph-name="uni1B9B1BA5" horiz-adv-x="841" 
d="M233 1085h619l-47 -153h-619zM762 793l-246 -793h-174l78 254h-344l47 154h344l72 231h-443l47 154h619zM494 -184l-195 -496h-139l149 383h-268l33 113h420z" />
    <glyph glyph-name="uni1B9B1BA8" horiz-adv-x="935" 
d="M614 1288h-114l-334 430h166l225 -286l223 286h166zM152 932l47 153h618l-47 -153h-618zM727 793l-246 -793h-174l78 254h-344l47 154h344l72 231h-443l48 154h618z" />
    <glyph glyph-name="uni1B9B1BA9" horiz-adv-x="937" 
d="M616 1288h-114l-334 430h164l114 -147l7 4q-28 243 198 334l88 -97l-2 -4q-108 -45 -166.5 -143t-48.5 -188l37 -47l225 288h164zM152 932l47 153h618l-47 -153h-618zM727 793l-246 -793h-174l78 254h-344l47 154h344l72 231h-443l48 154h618z" />
    <glyph glyph-name="uni1B9B1BAD" horiz-adv-x="1114" 
d="M506 1085h618l-47 -153h-618zM395 408h344l72 231h-442l47 154h618l-246 -793h-174l78 254h-344zM461 -184l-150 -383h234l-43 -113h-375l149 383h-235l43 113h377zM963 -184l-150 -383h234l-43 -113h-375l149 383h-235l43 113h377z" />
    </font>
</defs>
</svg>
