<?xml version="1.0" standalone="no"?>
<!DOCTYPE svg PUBLIC "-//W3C//DTD SVG 1.1//EN" "http://www.w3.org/Graphics/SVG/1.1/DTD/svg11.dtd" >
<svg xmlns="http://www.w3.org/2000/svg" xmlns:xlink="http://www.w3.org/1999/xlink" version="1.1">
<metadata>
Created by FontForge 20170731 at Wed Jun 24 21:50:37 2020
 By Aleksey,,,
Copyright 2020 Aditya Bayu Perdana. All Rights Reserved.
</metadata>
<defs>
<font id="Vimala" horiz-adv-x="0" >
  <font-face 
    font-family="Vimala"
    font-weight="400"
    font-stretch="normal"
    units-per-em="1000"
    panose-1="2 2 5 2 6 5 5 2 2 4"
    ascent="800"
    descent="-200"
    bbox="-1459 -895 2349 1140"
    underline-thickness="50"
    underline-position="-175"
    unicode-range="U+0020-25CC"
  />
<missing-glyph horiz-adv-x="600" 
d="M94 0v714h411v-714h-411zM145 663v-612h309v612h-309z" />
    <glyph glyph-name="uni1B34_uni1B02" unicode="&#x1b34;&#x1b02;" 
d="M-573 530q-62 0 -62 51q0 18 8 43q19 -47 101 -47l25 1q-29 -44 -63 -47zM-413 530q-62 0 -62 51q0 18 8 43q19 -47 101 -47l25 1q-29 -44 -63 -47zM-513 640q-62 0 -62 51q0 18 8 43q19 -47 101 -47l25 1q-29 -44 -63 -47zM-225 542q-47 148 -154 253l38 59
q59 -36 92 -125.5t42 -182.5z" />
    <glyph glyph-name="uni1B34_uni1B03" unicode="&#x1b34;&#x1b03;" 
d="M4 533q-100 20 -208.5 142.5t-132.5 297.5l80 -21q38 -149 116.5 -259t150.5 -142zM-473 530q-62 0 -62 51q0 18 8 43q19 -47 101 -47l25 1q-29 -44 -63 -47zM-313 530q-62 0 -62 51q0 18 8 43q19 -47 101 -47l25 1q-29 -44 -63 -47zM-413 640q-62 0 -62 51q0 18 8 43
q19 -47 101 -47l25 1q-29 -44 -63 -47z" />
    <glyph glyph-name="uni1B34_uni1B36" unicode="&#x1b34;&#x1b36;" 
d="M-331 529q-115 46 -212 169l21 22q61 -67 92 -89q-26 48 -26 95l2 23q10 71 61 115t120 44q75 0 125 -50t50 -126v-10q-4 -64 -30.5 -106t-77.5 -83l-13 12q59 69 64 126l1 24q0 58 -33.5 91.5t-93.5 33.5l-26 -2q-92 -17 -98 -110l-1 -14q0 -86 85 -141zM-760 527
q-62 0 -62 51q0 18 8 43q19 -47 101 -47l25 1q-29 -44 -63 -47zM-600 527q-62 0 -62 51q0 18 8 43q19 -47 101 -47l25 1q-29 -44 -63 -47zM-700 637q-62 0 -62 51q0 18 8 43q19 -47 101 -47l25 1q-29 -44 -63 -47z" />
    <glyph glyph-name="uni1B34_uni1B36_uni1B02" unicode="&#x1b34;&#x1b36;&#x1b02;" 
d="M-561 529q-115 46 -212 169l21 22q61 -67 92 -89q-26 48 -26 95l2 23q10 71 61 115t120 44q75 0 125 -50t50 -126v-10q-4 -64 -30.5 -106t-77.5 -83l-13 12q59 69 64 126l1 24q0 58 -33.5 91.5t-93.5 33.5l-26 -2q-92 -17 -98 -110l-1 -14q0 -86 85 -141zM-125 542
q-47 148 -154 253l38 59q59 -36 92 -125.5t42 -182.5zM-973 530q-62 0 -62 51q0 18 8 43q19 -47 101 -47l25 1q-29 -44 -63 -47zM-813 530q-62 0 -62 51q0 18 8 43q19 -47 101 -47l25 1q-29 -44 -63 -47zM-913 640q-62 0 -62 51q0 18 8 43q19 -47 101 -47l25 1
q-29 -44 -63 -47z" />
    <glyph glyph-name="uni1B34_uni1B36_uni1B03" unicode="&#x1b34;&#x1b36;&#x1b03;" 
d="M-561 529q-115 46 -212 169l21 22q61 -67 92 -89q-26 48 -26 95l2 23q10 71 61 115t120 44q75 0 125 -50t50 -126v-10q-4 -64 -30.5 -106t-77.5 -83l-13 12q59 69 64 126l1 24q0 58 -33.5 91.5t-93.5 33.5l-26 -2q-92 -17 -98 -110l-1 -14q0 -86 85 -141zM4 533
q-100 20 -208.5 142.5t-132.5 297.5l80 -21q38 -149 116.5 -259t150.5 -142zM-973 530q-62 0 -62 51q0 18 8 43q19 -47 101 -47l25 1q-29 -44 -63 -47zM-813 530q-62 0 -62 51q0 18 8 43q19 -47 101 -47l25 1q-29 -44 -63 -47zM-913 640q-62 0 -62 51q0 18 8 43
q19 -47 101 -47l25 1q-29 -44 -63 -47z" />
    <glyph glyph-name="uni1B34_uni1B37" unicode="&#x1b34;&#x1b37;" 
d="M-246 551q-45 123 -106 180l42 50q74 -50 80 -222zM-331 529q-115 46 -212 169l21 22q61 -67 92 -89q-26 48 -26 95l2 23q10 71 61 115t120 44q75 0 125 -50t50 -126v-10q-4 -64 -30.5 -106t-77.5 -83l-13 12q59 69 64 126l1 24q0 58 -33.5 91.5t-93.5 33.5l-26 -2
q-92 -17 -98 -110l-1 -14q0 -86 85 -141zM-331 529q-115 46 -212 169l21 22q61 -67 92 -89q-26 48 -26 95l2 23q10 71 61 115t120 44q75 0 125 -50t50 -126v-10q-4 -64 -30.5 -106t-77.5 -83l-13 12q59 69 64 126l1 24q0 58 -33.5 91.5t-93.5 33.5l-26 -2q-92 -17 -98 -110
l-1 -14q0 -86 85 -141zM-760 527q-62 0 -62 51q0 18 8 43q19 -47 101 -47l25 1q-29 -44 -63 -47zM-600 527q-62 0 -62 51q0 18 8 43q19 -47 101 -47l25 1q-29 -44 -63 -47zM-700 637q-62 0 -62 51q0 18 8 43q19 -47 101 -47l25 1q-29 -44 -63 -47z" />
    <glyph glyph-name="uni1B34_uni1B37_uni1B02" unicode="&#x1b34;&#x1b37;&#x1b02;" 
d="M-561 529q-115 46 -212 169l21 22q61 -67 92 -89q-26 48 -26 95l2 23q10 71 61 115t120 44q75 0 125 -50t50 -126v-10q-4 -64 -30.5 -106t-77.5 -83l-13 12q59 69 64 126l1 24q0 58 -33.5 91.5t-93.5 33.5l-26 -2q-92 -17 -98 -110l-1 -14q0 -86 85 -141zM-125 542
q-47 148 -154 253l38 59q59 -36 92 -125.5t42 -182.5zM-973 530q-62 0 -62 51q0 18 8 43q19 -47 101 -47l25 1q-29 -44 -63 -47zM-813 530q-62 0 -62 51q0 18 8 43q19 -47 101 -47l25 1q-29 -44 -63 -47zM-913 640q-62 0 -62 51q0 18 8 43q19 -47 101 -47l25 1
q-29 -44 -63 -47zM-476 551q-45 123 -106 180l42 50q74 -50 80 -222zM-561 529q-115 46 -212 169l21 22q61 -67 92 -89q-26 48 -26 95l2 23q10 71 61 115t120 44q75 0 125 -50t50 -126v-10q-4 -64 -30.5 -106t-77.5 -83l-13 12q59 69 64 126l1 24q0 58 -33.5 91.5
t-93.5 33.5l-26 -2q-92 -17 -98 -110l-1 -14q0 -86 85 -141z" />
    <glyph glyph-name="uni1B34_uni1B37_uni1B03" unicode="&#x1b34;&#x1b37;&#x1b03;" 
d="M-561 529q-115 46 -212 169l21 22q61 -67 92 -89q-26 48 -26 95l2 23q10 71 61 115t120 44q75 0 125 -50t50 -126v-10q-4 -64 -30.5 -106t-77.5 -83l-13 12q59 69 64 126l1 24q0 58 -33.5 91.5t-93.5 33.5l-26 -2q-92 -17 -98 -110l-1 -14q0 -86 85 -141zM4 533
q-100 20 -208.5 142.5t-132.5 297.5l80 -21q38 -149 116.5 -259t150.5 -142zM-973 530q-62 0 -62 51q0 18 8 43q19 -47 101 -47l25 1q-29 -44 -63 -47zM-813 530q-62 0 -62 51q0 18 8 43q19 -47 101 -47l25 1q-29 -44 -63 -47zM-913 640q-62 0 -62 51q0 18 8 43
q19 -47 101 -47l25 1q-29 -44 -63 -47zM-476 551q-45 123 -106 180l42 50q74 -50 80 -222zM-561 529q-115 46 -212 169l21 22q61 -67 92 -89q-26 48 -26 95l2 23q10 71 61 115t120 44q75 0 125 -50t50 -126v-10q-4 -64 -30.5 -106t-77.5 -83l-13 12q59 69 64 126l1 24
q0 58 -33.5 91.5t-93.5 33.5l-26 -2q-92 -17 -98 -110l-1 -14q0 -86 85 -141z" />
    <glyph glyph-name="uni1B34_uni1B42" unicode="&#x1b34;&#x1b42;" 
d="M-693 730q-62 0 -62 51q0 18 8 43q19 -47 101 -47l25 1q-29 -44 -63 -47zM-533 730q-62 0 -62 51q0 18 8 43q19 -47 101 -47l25 1q-29 -44 -63 -47zM-633 840q-62 0 -62 51q0 18 8 43q19 -47 101 -47l25 1q-29 -44 -63 -47zM-443 512q-182 22 -182 178v38l25 2
q13 -142 129 -179q-7 46 -7 86q0 105 56 165.5t149 60.5l26 -1q111 -10 164 -99v-8l-337 -168l-8 20l236 143q-28 36 -107 38q-145 0 -145 -233z" />
    <glyph glyph-name="uni1B34_uni1B42_uni1B02" unicode="&#x1b34;&#x1b42;&#x1b02;" 
d="M-583 512q-182 22 -182 178v38l25 2q13 -142 129 -179q-7 46 -7 86q0 105 56 165.5t149 60.5l26 -1q111 -10 164 -99v-8l-337 -168l-8 20l236 143q-28 36 -107 38q-145 0 -145 -233zM-25 542q-47 148 -154 253l38 59q59 -36 92 -125.5t42 -182.5zM-833 730q-62 0 -62 51
q0 18 8 43q19 -47 101 -47l25 1q-29 -44 -63 -47zM-673 730q-62 0 -62 51q0 18 8 43q19 -47 101 -47l25 1q-29 -44 -63 -47zM-773 840q-62 0 -62 51q0 18 8 43q19 -47 101 -47l25 1q-29 -44 -63 -47zM-583 512q-182 22 -182 178v38l25 2q13 -142 129 -179q-7 46 -7 86
q0 105 56 165.5t149 60.5l26 -1q111 -10 164 -99v-8l-337 -168l-8 20l236 143q-28 36 -107 38q-145 0 -145 -233z" />
    <glyph glyph-name="uni1B34_uni1B42_uni1B03" unicode="&#x1b34;&#x1b42;&#x1b03;" 
d="M4 533q-100 20 -208.5 142.5t-132.5 297.5l80 -21q38 -149 116.5 -259t150.5 -142zM-663 512q-182 22 -182 178v38l25 2q13 -142 129 -179q-7 46 -7 86q0 105 56 165.5t149 60.5l26 -1q111 -10 164 -99v-8l-337 -168l-8 20l236 143q-28 36 -107 38q-145 0 -145 -233z
M-923 730q-62 0 -62 51q0 18 8 43q19 -47 101 -47l25 1q-29 -44 -63 -47zM-763 730q-62 0 -62 51q0 18 8 43q19 -47 101 -47l25 1q-29 -44 -63 -47zM-863 840q-62 0 -62 51q0 18 8 43q19 -47 101 -47l25 1q-29 -44 -63 -47z" />
    <glyph glyph-name="uni1B36_uni1B00" unicode="&#x1b36;&#x1b00;" 
d="M-531 667q45 -43 80 -68q-17 32 -17 65l1 17q13 94 134 94q61 0 92 -30q33 -31 34 -68v-10q0 -73 -72 -135l-11 11q44 47 44 96v8q-5 62 -95 62q-85 0 -92 -64v-10q0 -51 62 -86l-9 -20q-94 33 -176 113zM-250 803q34 46 34 96v8q-5 99 -128 102q-123 -3 -128 -102v-8
q0 -50 34 -96l-11 -11q-52 61 -52 135v10q5 138 157 138q153 0 157 -138v-10q0 -74 -52 -135zM-342 972q83 -2 93 -67l1 -16q0 -52 -52 -86l-6 12q28 22 28 48q0 50 -60 50h-10q-60 0 -60 -50q0 -26 28 -48l-6 -12q-52 34 -52 86l1 16q10 65 93 67h2z" />
    <glyph glyph-name="uni1B36_uni1B01" unicode="&#x1b36;&#x1b01;" 
d="M-380 529q-95 33 -176 113l25 25q40 -39 79 -68q-16 32 -16 65l1 17q13 94 133 94q60 0 92.5 -30t33.5 -68v-10q0 -73 -72 -135l-10 11q43 46 43 96v8q-4 62 -94 62q-85 0 -92 -64l-1 -10q0 -51 62 -86zM-401 894q26 -14 70 -16q41 1 70 15q-16 61 -70 61t-70 -60z
M-324 1140l10 -130h-36l9 130h17zM-244 903q48 35 55 126h14v-8q0 -214 -156 -217q-156 3 -156 217v8h14q7 -92 56 -125q0 113 86 113q87 0 87 -114z" />
    <glyph glyph-name="uni1B36_uni1B02" unicode="&#x1b36;&#x1b02;" 
d="M-561 529q-115 46 -212 169l21 22q61 -67 92 -89q-26 48 -26 95l2 23q10 71 61 115t120 44q75 0 125 -50t50 -126v-10q-4 -64 -30.5 -106t-77.5 -83l-13 12q59 69 64 126l1 24q0 58 -33.5 91.5t-93.5 33.5l-26 -2q-92 -17 -98 -110l-1 -14q0 -86 85 -141zM-125 542
q-47 148 -154 253l38 59q59 -36 92 -125.5t42 -182.5z" />
    <glyph glyph-name="uni1B36_uni1B03" unicode="&#x1b36;&#x1b03;" 
d="M-561 529q-115 46 -212 169l21 22q61 -67 92 -89q-26 48 -26 95l2 23q10 71 61 115t120 44q75 0 125 -50t50 -126v-10q-4 -64 -30.5 -106t-77.5 -83l-13 12q59 69 64 126l1 24q0 58 -33.5 91.5t-93.5 33.5l-26 -2q-92 -17 -98 -110l-1 -14q0 -86 85 -141zM4 533
q-100 20 -208.5 142.5t-132.5 297.5l80 -21q38 -149 116.5 -259t150.5 -142z" />
    <glyph glyph-name="uni1B36_uni1B02_uni1B03" unicode="&#x1b36;&#x1b02;&#x1b03;" 
d="M-561 529q-115 46 -212 169l21 22q61 -67 92 -89q-26 48 -26 95l2 23q10 71 61 115t120 44q75 0 125 -50t50 -126v-10q-4 -64 -30.5 -106t-77.5 -83l-13 12q59 69 64 126l1 24q0 58 -33.5 91.5t-93.5 33.5l-26 -2q-92 -17 -98 -110l-1 -14q0 -86 85 -141zM-125 542
q-47 148 -154 253l38 59q59 -36 92 -125.5t42 -182.5zM-36 833q-149 19 -233 77t-108 163l80 -21q38 -79 92 -124.5t175 -76.5z" />
    <glyph glyph-name="uni1B37_uni1B00" unicode="&#x1b37;&#x1b00;" 
d="M-531 667q45 -43 80 -68q-17 32 -17 65l1 17q13 94 134 94q61 0 92 -30q33 -31 34 -68v-10q0 -73 -72 -135l-11 11q44 47 44 96v8q-5 62 -95 62q-85 0 -92 -64v-10q0 -51 62 -86l-9 -20q-94 33 -176 113zM-369 672q22 0 40 -42q17 -43 17 -104v-5l-12 -2q-32 100 -76 139
q17 14 31 14zM-250 803q34 46 34 96v8q-5 99 -128 102q-123 -3 -128 -102v-8q0 -50 34 -96l-11 -11q-52 61 -52 135v10q5 138 157 138q153 0 157 -138v-10q0 -74 -52 -135zM-342 972q83 -2 93 -67l1 -16q0 -52 -52 -86l-6 12q28 22 28 48q0 50 -60 50h-10q-60 0 -60 -50
q0 -26 28 -48l-6 -12q-52 34 -52 86l1 16q10 65 93 67h2z" />
    <glyph glyph-name="uni1B37_uni1B01" unicode="&#x1b37;&#x1b01;" 
d="M-380 529q-95 33 -176 113l25 25q40 -39 80 -68q-17 32 -17 65l1 17q14 94 134 94q60 0 92 -30t34 -68v-10q0 -73 -72 -135l-11 11q44 46 44 96v8q-4 62 -95 62q-85 0 -92 -64v-10q0 -51 62 -86zM-400 894q26 -14 70 -16q40 1 70 15q-17 61 -70 61q-54 0 -70 -60z
M-323 1140l10 -130h-36l9 130h17zM-243 903q48 35 54 126h14v-8q0 -214 -155 -217q-156 3 -156 217v8h14q6 -92 55 -125q0 113 87 113t87 -114zM-324 519q-31 98 -76 139q17 14 31 14q22 0 39.5 -42t17.5 -104v-5z" />
    <glyph glyph-name="uni1B37_uni1B02" unicode="&#x1b37;&#x1b02;" 
d="M-561 529q-115 46 -212 169l21 22q61 -67 92 -89q-26 48 -26 95l2 23q10 71 61 115t120 44q75 0 125 -50t50 -126v-10q-4 -64 -30.5 -106t-77.5 -83l-13 12q59 69 64 126l1 24q0 58 -33.5 91.5t-93.5 33.5l-26 -2q-92 -17 -98 -110l-1 -14q0 -86 85 -141zM-125 542
q-47 148 -154 253l38 59q59 -36 92 -125.5t42 -182.5zM-476 551q-45 123 -106 180l42 50q74 -50 80 -222zM-561 529q-115 46 -212 169l21 22q61 -67 92 -89q-26 48 -26 95l2 23q10 71 61 115t120 44q75 0 125 -50t50 -126v-10q-4 -64 -30.5 -106t-77.5 -83l-13 12
q59 69 64 126l1 24q0 58 -33.5 91.5t-93.5 33.5l-26 -2q-92 -17 -98 -110l-1 -14q0 -86 85 -141z" />
    <glyph glyph-name="uni1B37_uni1B03" unicode="&#x1b37;&#x1b03;" 
d="M-561 529q-115 46 -212 169l21 22q61 -67 92 -89q-26 48 -26 95l2 23q10 71 61 115t120 44q75 0 125 -50t50 -126v-10q-4 -64 -30.5 -106t-77.5 -83l-13 12q59 69 64 126l1 24q0 58 -33.5 91.5t-93.5 33.5l-26 -2q-92 -17 -98 -110l-1 -14q0 -86 85 -141zM4 533
q-100 20 -208.5 142.5t-132.5 297.5l80 -21q38 -149 116.5 -259t150.5 -142zM-476 551q-45 123 -106 180l42 50q74 -50 80 -222zM-561 529q-115 46 -212 169l21 22q61 -67 92 -89q-26 48 -26 95l2 23q10 71 61 115t120 44q75 0 125 -50t50 -126v-10q-4 -64 -30.5 -106
t-77.5 -83l-13 12q59 69 64 126l1 24q0 58 -33.5 91.5t-93.5 33.5l-26 -2q-92 -17 -98 -110l-1 -14q0 -86 85 -141z" />
    <glyph glyph-name="uni1B37_uni1B02_uni1B03" unicode="&#x1b37;&#x1b02;&#x1b03;" 
d="M-561 529q-115 46 -212 169l21 22q61 -67 92 -89q-26 48 -26 95l2 23q10 71 61 115t120 44q75 0 125 -50t50 -126v-10q-4 -64 -30.5 -106t-77.5 -83l-13 12q59 69 64 126l1 24q0 58 -33.5 91.5t-93.5 33.5l-26 -2q-92 -17 -98 -110l-1 -14q0 -86 85 -141zM-125 542
q-47 148 -115 211l-52 -39l-10 9l61 131q59 -36 92 -125.5t42 -182.5zM-36 833q-149 19 -233 77t-108 163l80 -21q38 -79 92 -124.5t175 -76.5zM-476 551q-41 110 -88 150l-30 -21l-11 12l40 105q94 -54 105 -238z" />
    <glyph glyph-name="uni1B42_uni1B02" unicode="&#x1b42;&#x1b02;" 
d="M-583 512q-182 22 -182 178v38l25 2q13 -142 129 -179q-7 46 -7 86q0 105 56 165.5t149 60.5l26 -1q111 -10 164 -99v-8l-337 -168l-8 20l236 143q-28 36 -107 38q-145 0 -145 -233zM-25 542q-47 148 -154 253l38 59q59 -36 92 -125.5t42 -182.5z" />
    <glyph glyph-name="uni1B42_uni1B03" unicode="&#x1b42;&#x1b03;" 
d="M4 533q-100 20 -208.5 142.5t-132.5 297.5l80 -21q38 -149 116.5 -259t150.5 -142zM-663 512q-182 22 -182 178v38l25 2q13 -142 129 -179q-7 46 -7 86q0 105 56 165.5t149 60.5l26 -1q111 -10 164 -99v-8l-337 -168l-8 20l236 143q-28 36 -107 38q-145 0 -145 -233z" />
    <glyph glyph-name="uni1B42_uni1B02_uni1B03" unicode="&#x1b42;&#x1b02;&#x1b03;" 
d="M-583 512q-182 22 -182 178v38l25 2q13 -142 129 -179q-7 46 -7 86q0 105 56 165.5t149 60.5l26 -1q111 -10 164 -99v-8l-337 -168l-8 20l236 143q-28 36 -107 38q-145 0 -145 -233zM-25 542q-47 148 -154 253l38 59q59 -36 92 -125.5t42 -182.5zM24 833q-149 19 -233 77
t-108 163l80 -21q38 -79 92 -124.5t175 -76.5z" />
    <glyph glyph-name="uni1B02_uni1B03" unicode="&#x1b02;&#x1b03;" 
d="M-125 542q-47 148 -154 253l38 59q59 -36 92 -125.5t42 -182.5zM-168 533q-232 0 -357 138q-107 127 -130 302l80 -21q37 -149 112 -256q97 -133 301 -145z" />
    <glyph glyph-name="uni1B13.td" unicode="&#x1b13;&#x1b35;" horiz-adv-x="1256" 
d="M441 20q82 0 82 51q-2 33 -70.5 57t-146.5 27v-5q0 -44 26 -80.5t81 -47.5zM127 29l11 1q43 10 49 119q-83 -13 -91 -80q0 -40 31 -40zM449 -9q-80 0 -124 39q-53 46 -55 128q-25 0 -54 -3q-3 -157 -87 -157q-67 0 -73 72q0 64 41.5 103.5t90.5 47.5v31q-6 96 -57 96
q-46 0 -46 -61q1 -38 15 -68l-17 -6q-38 56 -38 133q0 92 77 92q92 -2 92 -153v-57q22 4 57 6v10q2 194 222 196q219 -2 224 -242v-67l-31 27v30q-2 154 -192 154q-185 0 -185 -106q121 -2 193.5 -42.5t72.5 -101.5q-3 -46 -36.5 -73.5t-89.5 -27.5zM795 171v-13
q0 -157 -54 -158q-54 1 -55 158v30l31 10v-67q0 -68 23 -71q23 3 24 71v67zM795 171v-13l-31 -27v67q6 241 215 246h35q192 -7 192 -227q0 -138 -106 -204q-59 -28 -116 -28q-88 0 -101 130l16 10q61 -58 141 -58q82 1 111 46t29 86q-3 153 -186 154q-199 -5 -199 -182z" />
    <glyph glyph-name="uni1B15.td" unicode="&#x1b15;&#x1b35;" horiz-adv-x="1197" 
d="M526 -11l-4 13q65 48 72 182q0 149 -183 158h-12q-158 -7 -177 -145l-2 -31q0 -89 85 -157l-10 -14q-76 16 -143 46q-82 35 -82 122q0 49 30 105q25 40 25 60q0 18 -22 18q-35 0 -35 -49q0 -17 5 -41l-14 -2q-14 37 -14 74q0 112 74 112q61 -4 61 -62q0 -36 -36.5 -91
t-36.5 -93q0 -59 97 -94q-15 35 -19 94q3 240 211 245h18q210 -6 210 -253q-6 -84 -28 -135zM935 353q-175 -3 -222 -146q-27 -107 -71 -157.5t-116 -60.5l-4 13l74 49q50 23 83 153q30 119 89.5 178t178.5 61q200 -5 200 -226q0 -138 -106 -204q-59 -28 -116 -28
q-88 0 -101 130l16 10q61 -58 141 -58q82 1 111 46t29 86q-3 153 -186 154z" />
    <glyph glyph-name="uni1B16.td" unicode="&#x1b16;&#x1b35;" horiz-adv-x="1301" 
d="M510 151q-49 -4 -69 -76q-22 -76 -90 -79h-6q-51 1 -77.5 40t-26.5 103q0 159 84 250q-106 -17 -107 -145v-57q-7 -121 -27 -155t-58 -34q-36 0 -58 26.5t-22 79.5q0 39 12 81t36.5 82.5t24.5 59.5t-23 19q-35 0 -35 -49q0 -17 5 -41l-13 -2q-15 38 -15 76q0 110 74 110
q62 -4 62 -63q0 -36 -37 -91q-59 -88 -59 -148q0 -49 42 -49q30 0 47.5 29t17.5 80v87q0 156 151 157h55l3 -12q-121 -110 -121 -225q0 -49 22 -79.5t70 -31.5q52 1 73.5 60t70.5 59q99 0 142 -129q30 10 52 46.5t22 103.5q-1 79 -59 114q-28 10 -54 10q-21 0 -42 -7
q27 90 121 90l-7 -66q71 -39 71 -143v-11q0 -223 -124 -225h-6q-61 149 -122 155zM1251 217q0 -138 -106 -204q-59 -28 -116 -28q-88 0 -101 130l16 10q61 -58 141 -58q82 1 111 46t29 86q-3 153 -191 154q-95 0 -177 -99l-16 9l1 19q0 91 -150 93q71 -39 71 -143v-11
l-31 13q-1 79 -59 114q-27 10 -53 10q-21 0 -42 -7q26 91 122 91q125 0 168 -119q55 121 185 121q198 -7 198 -227z" />
    <glyph glyph-name="uni1B18.td" unicode="&#x1b18;&#x1b35;" horiz-adv-x="1045" 
d="M108 28l14 2q44 10 67 99q-16 4 -30 4q-31 0 -55 -19.5t-24 -49.5v-8q3 -28 28 -28zM438 375q109 -60 109 -205l-1 -28q-12 -137 -104 -146h-8q-45 0 -97 48q-56 54 -119 78q-12 -53 -41.5 -89t-67.5 -37q-64 0 -64 72l2 26q18 114 159 114q9 59 9 91q0 66 -56 66
q-48 0 -53 -52v-6q0 -27 23 -65l-8 -10q-53 46 -53 114v10q6 89 91 89q88 0 88 -115q0 -51 -14 -128q63 -12 125 -64q74 -62 101 -62q46 0 55 80l1 20q0 49 -18 88t-53 66.5t-78 27.5q-22 0 -42 -7q26 91 122 91zM995 217q0 -138 -106 -204q-59 -28 -116 -28q-88 0 -101 130
l16 10q61 -58 141 -58q82 1 111 46t29 86q-3 153 -191 154q-95 0 -177 -99l-16 9l1 19q0 91 -150 93l-114 -24q26 91 122 91q125 0 168 -119q55 121 185 121q198 -7 198 -227z" />
    <glyph glyph-name="uni1B19.td" unicode="&#x1b19;&#x1b35;" horiz-adv-x="1262" 
d="M599 94q71 0 97.5 34t51 119t76.5 140.5t178 56.5q210 -11 210 -227q0 -138 -106 -204q-59 -28 -116 -28q-88 0 -101 130l16 10q61 -58 141 -58q82 1 111 46t29 86q-3 153 -190 154q-187 -3 -229 -145q-38 -129 -72 -169q-33 -38 -96 -43q-142 1 -191 173
q-51 173 -176 173q-79 0 -115 -53t-36 -129q3 -97 74 -107q80 0 80 107q0 27 -5 62l17 4q18 -68 18 -115q0 -114 -102 -114q-118 4 -118 175q0 267 189 267q133 -3 180 -175q45 -167 185 -170z" />
    <glyph glyph-name="uni1B1B.td" unicode="&#x1b1b;&#x1b35;" horiz-adv-x="1717" 
d="M920 383q22 0 44 7q-43 91 -100 91q-40 -2 -40 -36q0 -26 27 -44t69 -18zM1140 347l-16 -1q-42 -8 -98 -30q9 -45 9 -123v-630q0 -366 -303 -368q-16 59 -71 142t-123 83q-75 0 -132.5 -111.5t-175.5 -113.5q-215 2 -215 287q0 146 58 241q78 131 364.5 171.5
t304.5 264.5q0 174 -109 183h-25q-80 -9 -128 -72h-2q-48 63 -128 72h-24q-85 -7 -104 -96l-2 -44q0 -125 85 -193l-10 -14q-76 16 -143 46q-82 35 -82 122q0 49 30 105q25 40 25 60q0 18 -22 18q-35 0 -35 -49q0 -17 5 -41l-14 -2q-14 37 -14 74q0 112 74 112q61 -4 61 -62
q0 -36 -36 -91t-36 -92q0 -60 96 -95q-15 35 -19 94q3 240 138 245q102 0 156 -116q26 56 60.5 86t96.5 30q136 -6 136 -271v-17q0 -306 -278 -342q-248 -33 -343 -105.5t-95 -219.5q0 -191 174 -191q138 0 182.5 106t145.5 109q97 -1 159.5 -73t84.5 -142q200 0 202 303
v594q0 75 -10 107l-36 -4q-82 2 -126 39.5t-47 86.5v12q0 81 79 81q77 0 130 -112q61 24 101 25q65 0 119 -99q85 112 240 114h21q192 -27 192 -223q0 -138 -106 -204q-59 -28 -116 -28q-88 0 -101 130l16 10q61 -58 141 -58q82 1 111 46t29 86q-3 142 -186 143
q-181 0 -248 -57q-40 62 -67 62z" />
    <glyph glyph-name="uni1B1D.td" unicode="&#x1b1d;&#x1b35;" horiz-adv-x="957" 
d="M227 93q120 0 120 50q0 2 -1.5 19t-36.5 23q-82 0 -101 -91zM320 -248q-146 2 -150 244q-91 18 -109 131l-1 20q0 54 32.5 107.5t32.5 72.5t-22 19q-35 0 -35 -50q0 -17 4 -40l-13 -2q-14 37 -14 74q0 112 74 112q61 -4 61 -62q0 -36 -37 -92q-41 -62 -41 -107l1 -15
q8 -51 75 -70q19 122 123 124q84 -2 84 -76q0 -64 -48 -104.5t-131 -40.5q0 -60 33.5 -103.5t80.5 -43.5q93 0 136 95l14 -5q-29 -186 -150 -188zM504 270q-46 72 -122 72h-10q-110 -8 -130 -84l-17 3q4 172 146 179q98 -3 133 -117q55 121 193 121q210 -11 210 -227
q0 -138 -106 -204q-59 -28 -116 -28q-88 0 -101 130l16 10q61 -58 141 -58q82 1 111 46t29 86q-3 153 -190 154q-124 0 -187 -83z" />
    <glyph glyph-name="uni1B1E.td" unicode="&#x1b1e;&#x1b35;" horiz-adv-x="957" 
d="M217 -4q-135 2 -156 131l-1 20q0 54 40 121q25 40 25 60q0 18 -22 18q-35 0 -35 -50q0 -17 4 -40l-13 -2q-14 37 -14 74q0 112 74 112q61 -4 61 -62q0 -36 -37 -92q-41 -62 -41 -101l1 -12q15 -79 128 -79q106 0 134 103l16 -4q-6 -195 -164 -197zM504 270
q-46 72 -122 72h-10q-110 -8 -130 -84l-17 3q4 172 146 179q98 -3 133 -117q55 121 193 121q210 -11 210 -227q0 -138 -106 -204q-59 -28 -116 -28q-88 0 -101 130l16 10q61 -58 141 -58q82 1 111 46t29 86q-3 153 -190 154q-124 0 -187 -83z" />
    <glyph glyph-name="uni1B1F.td" unicode="&#x1b1f;&#x1b35;" horiz-adv-x="1116" 
d="M444 -4h-7q-62 155 -126 155q-44 0 -65.5 -76t-89.5 -79h-6q-101 2 -101 116v13q2 64 51 143q25 40 25 60q0 18 -22 18q-35 0 -35 -50q0 -17 4 -40l-13 -2q-14 37 -14 74q0 112 74 112q61 -4 61 -62q0 -36 -37 -92q-47 -71 -47 -114q0 -75 81 -78q52 1 73.5 60t70.5 59
q96 0 139 -119q65 2 91 34q26 34 50.5 119t76.5 140.5t178 56.5q210 -11 210 -227q0 -138 -106 -204q-59 -28 -116 -28q-88 0 -101 130l16 10q61 -58 141 -58q82 1 111 46t29 86q-3 153 -190 154q-187 -3 -229 -145q-38 -129 -72.5 -169t-104.5 -43z" />
    <glyph glyph-name="uni1B21.td" unicode="&#x1b21;&#x1b35;" horiz-adv-x="1202" 
d="M741 242v-84q-1 -157 -54 -158q-55 1 -55 158v88q-7 96 -100 96q-90 0 -132 -142q-42 141 -145 141q-99 0 -99 -141q-105 10 -117 96l-2 16q0 76 48 141l13 -6q-22 -38 -22 -82v-10q6 -56 68 -68q20 153 114 153q104 0 142 -165q37 165 145 165q118 0 118 -189v-120
q0 -68 23 -71q23 3 24 71v31zM741 171v-13l-31 -27v67q6 241 215 246h35q192 -7 192 -227q0 -138 -106 -204q-59 -28 -116 -28q-88 0 -101 130l16 10q61 -58 141 -58q82 1 111 46t29 86q-3 153 -186 154q-199 -5 -199 -182z" />
    <glyph glyph-name="uni1B22.td" unicode="&#x1b22;&#x1b35;" horiz-adv-x="1083" 
d="M260 -4h-6q-173 2 -192 131l-2 21q0 54 41 120q25 40 25 59t-23 19q-35 0 -35 -49q0 -17 5 -41l-13 -2q-15 38 -15 76q0 110 74 110q62 -4 62 -62q0 -36 -37 -92q-48 -72 -50 -117q0 -43 38.5 -59t138.5 -16q162 2 164 54q0 51 -110 51q-60 0 -126 -21q-10 41 -10 78
l1 23q3 46 31 91q42 68 119 70h20q184 -2 184 -258v-51q1 -68 24 -71q22 3 23 71l31 27q0 -157 -53 -158h-2q-53 1 -54 158v30q-3 81 -47 124.5t-124 43.5q-121 0 -131 -116q63 37 118 37q57 0 97 -33t40 -100q-6 -146 -206 -148zM622 171v-13l-31 -27v67q6 241 215 246h35
q192 -7 192 -227q0 -138 -106 -204q-59 -28 -116 -28q-88 0 -101 130l16 10q61 -58 141 -58q82 1 111 46t29 86q-3 153 -186 154q-199 -5 -199 -182z" />
    <glyph glyph-name="uni1B23.td" unicode="&#x1b23;&#x1b35;" horiz-adv-x="965" 
d="M446 6q-53 97 -99.5 147.5t-89.5 68.5l-35 -54l-13 5l13 144q67 -14 140.5 -105.5t99.5 -198.5zM915 217q0 -138 -106 -204q-59 -28 -116 -28q-88 0 -101 130l16 10q61 -58 141 -58q82 1 111 46t29 86q-3 153 -191 154q-95 0 -177 -99l-16 9l1 19q0 91 -150 93
q71 -39 71 -143v-11q0 -223 -195 -225q-151 2 -170 131l-2 21q0 54 41 120q25 40 25 59t-23 19q-34 0 -34 -50q0 -17 4 -40l-13 -2q-15 38 -15 76q0 110 75 110q25 -2 43 -18.5t18 -43.5q0 -36 -37 -92q-41 -62 -41 -101l1 -12q8 -41 37.5 -60t90.5 -19q77 0 120.5 36.5
t43.5 103.5q-1 79 -59 114q-27 10 -53 10q-21 0 -42 -7q26 91 122 91q125 0 168 -119q55 121 185 121q198 -7 198 -227z" />
    <glyph glyph-name="uni1B24.td" unicode="&#x1b24;&#x1b35;" horiz-adv-x="1119" 
d="M484 343l1 98q143 -4 182 -118q57 121 185 121h25q192 -7 192 -227q0 -138 -106 -204q-59 -28 -116 -28q-88 0 -101 130l16 10q61 -58 141 -58q82 1 111 46t29 86q-3 153 -186 154h-4q-122 0 -185 -83h-2q-48 73 -182 73zM382 31q44 0 44 37v7q-5 48 -52 53l-19 1
q-33 0 -51 -14q12 -80 70 -84h8zM389 -3q-89 2 -116 93l-84 -66q-29 -24 -66 -25q-78 0 -78 85l2 23q7 56 70 129.5t63 98.5q0 19 -33 19q-48 0 -76 -70l-10 4q6 70 33 111.5t64 41.5q71 0 71 -66v-7q-3 -55 -73 -135t-70 -125q0 -29 24 -29l10 1q25 4 143 85v80
q12 193 222 196l1 -98q-184 0 -184 -126v-30q26 11 60 11l21 -1q96 -10 96 -100q0 -100 -90 -100z" />
    <glyph glyph-name="uni1B25.td" unicode="&#x1b25;&#x1b35;" horiz-adv-x="1106" 
d="M444 -4h-6q-63 155 -126 155q-44 0 -65.5 -76t-89.5 -79h-6q-101 2 -101 116v13q2 64 51 143q25 40 25 59t-23 19q-35 0 -35 -49q0 -17 5 -41l-13 -2q-15 38 -15 76q0 110 74 110q62 -4 62 -62q0 -36 -37 -92q-47 -71 -47 -114q0 -76 81 -78q51 1 72.5 60t71.5 59
q99 0 142 -129q30 10 52 46.5t22 103.5q-1 79 -59 114q-28 10 -54 10q-21 0 -42 -7q27 90 121 90l-7 -66q71 -39 71 -143v-11q0 -223 -124 -225zM1056 217q0 -138 -106 -204q-59 -28 -116 -28q-88 0 -101 130l16 10q61 -58 141 -58q82 1 111 46t29 86q-3 153 -191 154
q-95 0 -177 -99l-16 9l1 19q0 91 -150 93q71 -39 71 -143v-11l-31 13q-1 79 -59 114q-27 10 -53 10q-21 0 -42 -7q26 91 122 91q125 0 168 -119q55 121 185 121q198 -7 198 -227z" />
    <glyph glyph-name="uni1B26.td" unicode="&#x1b26;&#x1b35;" horiz-adv-x="1115" 
d="M441 20q82 0 82 51q-2 33 -70.5 57t-146.5 27v-5q0 -44 26 -80.5t81 -47.5zM127 29l11 1q43 10 49 119q-83 -13 -91 -80q0 -40 31 -40zM449 -9q-80 0 -124 39q-53 46 -55 128q-25 0 -54 -3q-3 -157 -87 -157q-67 0 -73 72q0 64 41.5 103.5t90.5 47.5v31q-6 96 -57 96
q-46 0 -46 -61q1 -38 15 -68l-17 -6q-38 56 -38 133q0 92 77 92q92 -2 92 -153v-57q22 4 57 6v10q2 194 222 196l1 -98q-185 0 -185 -106q121 -2 193.5 -42.5t72.5 -101.5q-3 -46 -36.5 -73.5t-89.5 -27.5zM885 444q192 -7 192 -227q0 -138 -106 -204q-59 -28 -116 -28
q-88 0 -101 130l16 10q61 -58 141 -58q82 1 111 46t29 86q-3 153 -186 154h-4q-122 0 -185 -83h-2q-48 63 -172 72h-10l1 98q143 -6 182 -117q57 121 185 121h25z" />
    <glyph glyph-name="uni1B27.td" unicode="&#x1b27;&#x1b35;" horiz-adv-x="912" 
d="M651 353q-180 -3 -222 -145q-32 -111 -77.5 -159.5t-113.5 -52.5h-9q-147 2 -168 131l-1 20q0 54 41 121q25 40 25 59t-23 19q-35 0 -35 -49q0 -17 5 -41l-13 -2q-15 38 -15 76q0 110 74 110q31 -2 46.5 -21.5t15.5 -41.5q0 -36 -37 -91q-41 -62 -41 -101l1 -12
q13 -79 130 -79q74 0 112.5 34t63 119t77 140.5t163.5 56.5q217 -7 217 -227q0 -138 -106 -204q-59 -28 -116 -28q-88 0 -101 130l16 10q61 -58 141 -58q82 1 111 46t29 86q-3 153 -186 154h-4z" />
    <glyph glyph-name="uni1B2A.td" unicode="&#x1b2a;&#x1b35;" horiz-adv-x="1112" 
d="M218 269q-46 67 -110 70q-28 -3 -48 -55l-14 1v7q0 43 10.5 93.5t36.5 50.5q24 0 64.5 -41t75.5 -118zM279 90l-84 -66q-29 -24 -67 -25q-77 0 -83 78v7q0 78 123 161l11 -11q-87 -90 -87 -130q0 -25 24 -25l10 1q10 2 33 14l110 71zM388 31q44 0 44 37v7q-5 48 -52 53
l-19 1q-33 0 -51 -14q12 -80 70 -84h8zM395 -3q-89 2 -116 93l-10 75v80q12 193 222 196l1 -98q-184 0 -184 -126v-30q26 11 60 11l21 -1q96 -10 96 -100q0 -100 -90 -100zM490 343l1 98q143 -7 182 -118q57 121 185 121h25q192 -7 192 -227q0 -138 -106 -204
q-59 -28 -116 -28q-88 0 -101 130l16 10q61 -58 141 -58q82 1 111 46t29 86q-3 153 -186 154h-4q-122 0 -185 -83h-2q-48 73 -182 73z" />
    <glyph glyph-name="uni1B2B.td" unicode="&#x1b2b;&#x1b35;" horiz-adv-x="1037" 
d="M792 443q195 -8 195 -226q0 -138 -106 -204q-59 -28 -116 -28q-88 0 -101 130l16 10q61 -58 141 -58q82 1 111 46t29 86q-3 151 -182 154q-180 -3 -224 -150q-32 -106 -87 -154.5t-138 -52.5q-177 4 -179 130q0 61 62 91l9 3l-9 3q-62 29 -62 95q1 66 67 91
q-54 -4 -93.5 -47.5t-39.5 -123.5q0 -46 12 -97l-14 -11q-32 39 -38 125q6 185 271 185h70v-98h-35q-150 0 -150 -58q0 -44 123 -48h60v-33h-60q-123 -4 -123 -48q0 -57 130 -61q91 0 136.5 34t70 119t77 139.5t155.5 56.5h22z" />
    <glyph glyph-name="uni1B2C.td" unicode="&#x1b2c;&#x1b35;" horiz-adv-x="1227" 
d="M712.5 247q24.5 85 76.5 140.5t178 56.5q210 -11 210 -227q0 -138 -106 -204q-59 -28 -116 -28q-88 0 -101 130l16 10q61 -58 141 -58q82 1 111 46t29 86q-3 153 -190 154q-187 -3 -229 -145q-38 -129 -72 -169q-34 -39 -101 -43q-79 1 -122.5 67t-57.5 154
q-32 -219 -179 -221h-6q-129 3 -138 126v13q0 61 44 133q25 40 25 59t-23 19q-34 0 -34 -50q0 -17 4 -40l-13 -2q-14 37 -14 74q0 112 74 112q61 -4 61 -62q0 -36 -37 -92q-41 -62 -41 -101l1 -12q8 -41 37.5 -60t63.5 -19h5q79 0 116 76t41 269h26q4 -193 41 -269t126 -76
q76 0 102.5 34t51 119z" />
    <glyph glyph-name="uni1B2D.td" unicode="&#x1b2d;&#x1b35;" horiz-adv-x="1027" 
d="M422 343q-130 -3 -137 -129v-7q0 -210 -151 -210l-16 1q67 76 67 189q0 110 -68 160q-31 -11 -57 -46l-15 3q16 90 81 144q51 -51 70.5 -106.5t19.5 -139.5l-1 -33q-6 -52 -24 -101q57 12 64 117v60q12 193 164 196q118 0 156 -118q57 121 185 121h25q192 -7 192 -227
q0 -138 -106 -204q-59 -28 -116 -28q-88 0 -101 130l16 10q61 -58 141 -58q82 1 111 46t29 86q-3 153 -186 154h-4q-122 0 -185 -83h-2q-48 73 -152 73z" />
    <glyph glyph-name="uni1B2E.td" unicode="&#x1b2e;&#x1b35;" horiz-adv-x="1237" 
d="M977 444q210 -11 210 -227q0 -138 -106 -204q-59 -28 -116 -28q-88 0 -101 130l16 10q61 -58 141 -58q82 1 111 46t29 86q-3 153 -190 154q-187 -3 -229 -145q-38 -129 -72.5 -169t-95.5 -43q-157 2 -157 186v21q0 139 -110 139q-82 0 -89 -154q-7 -129 -30 -160t-57 -31
t-56 27.5t-22 79.5q0 39 12 81t36.5 82.5t24.5 59.5t-23 19q-35 0 -35 -49q0 -17 5 -41l-13 -2q-15 38 -15 76q0 110 74 110q26 -2 44 -18.5t18 -43.5q0 -36 -37 -92q-59 -88 -59 -148q0 -49 41 -49q30 0 48 28.5t18 80.5v19q0 223 116 223q134 0 134 -226v-23
q0 -97 132 -97q71 0 97.5 34t51 119t76.5 140.5t178 56.5z" />
    <glyph glyph-name="uni1B2F.td" unicode="&#x1b2f;&#x1b35;" horiz-adv-x="965" 
d="M915 217q0 -138 -106 -204q-59 -28 -116 -28q-88 0 -101 130l16 10q61 -58 141 -58q82 1 111 46t29 86q-3 153 -191 154q-95 0 -177 -99l-16 9l1 19q0 91 -150 93q71 -39 71 -143v-11q0 -223 -195 -225q-151 2 -170 131l-2 21q0 54 41 120q25 40 25 59t-23 19
q-34 0 -34 -50q0 -17 4 -40l-13 -2q-15 38 -15 76q0 110 75 110q25 -2 43 -18.5t18 -43.5q0 -36 -37 -92q-41 -62 -41 -101l1 -12q8 -41 37.5 -60t90.5 -19q77 0 120.5 36.5t43.5 103.5q-1 79 -59 114q-27 10 -53 10q-21 0 -42 -7q26 91 122 91q125 0 168 -119
q55 121 185 121q198 -7 198 -227z" />
    <glyph glyph-name="uni1B30.td" unicode="&#x1b30;&#x1b35;" horiz-adv-x="1197" 
d="M526 -11l-4 13q65 48 72 182q0 149 -183 158h-12q-158 -7 -177 -145l-2 -31q0 -89 85 -157l-10 -14q-76 16 -143 46q-82 35 -82 122q0 49 30 105q25 40 25 60q0 18 -22 18q-35 0 -35 -49q0 -17 5 -41l-14 -2q-14 37 -14 74q0 112 74 112q61 -4 61 -62q0 -36 -36.5 -91
t-36.5 -93q0 -59 97 -94q-15 35 -19 94q3 240 211 245h18q210 -6 210 -253q-6 -84 -28 -135zM935 353q-175 -3 -222 -146q-27 -107 -71 -157.5t-116 -60.5l-4 13l74 49q50 23 83 153q30 119 89.5 178t178.5 61q200 -5 200 -226q0 -138 -106 -204q-59 -28 -116 -28
q-88 0 -101 130l16 10q61 -58 141 -58q82 1 111 46t29 86q-3 153 -186 154zM480 -5q-47 148 -164 264l48 49q67 -54 96 -135t38 -173z" />
    <glyph glyph-name="uni1B31.td" unicode="&#x1b31;&#x1b35;" horiz-adv-x="912" 
d="M651 353q-180 -3 -222 -145q-32 -111 -77.5 -159.5t-113.5 -52.5h-9q-147 2 -168 131l-1 20q0 54 41 121q25 40 25 59t-23 19q-35 0 -35 -49q0 -17 5 -41l-13 -2q-15 38 -15 76q0 110 74 110q31 -2 46.5 -21.5t15.5 -41.5q0 -36 -37 -91q-41 -62 -41 -101l1 -12
q13 -79 130 -79q74 0 112.5 34t63 119t77 140.5t163.5 56.5q217 -7 217 -227q0 -138 -106 -204q-59 -28 -116 -28q-88 0 -101 130l16 10q61 -58 141 -58q82 1 111 46t29 86q-3 153 -186 154h-4zM505 6q-70 123 -128 181t-129 97l23 59q79 -28 143 -112t107 -215z" />
    <glyph glyph-name="uni1B32.td" unicode="&#x1b32;&#x1b35;" horiz-adv-x="985" 
d="M108 28l14 2q44 10 67 99q-16 4 -30 4q-31 0 -55 -19.5t-24 -49.5v-8q3 -28 28 -28zM524 173q-6 -101 -27 -137.5t-66 -39.5h-9q-48 0 -99 49q-57 53 -105 77q-12 -53 -41.5 -89t-68.5 -36q-63 0 -63 71l2 26q7 44 45 79t76 35h38q9 59 9 91q0 66 -55 66q-49 0 -54 -51
v-6q0 -28 23 -66l-8 -10q-52 45 -52 112v12q4 75 65 87l24 2q89 0 89 -115q0 -51 -14 -128q49 -12 109.5 -63t93.5 -60l15 -2q42 0 42 117zM524 171v1l-31 -41v67q6 241 215 246h35q192 -7 192 -227q0 -138 -106 -204q-59 -28 -116 -28q-88 0 -101 130l16 10q61 -58 141 -58
q82 1 111 46t29 86q-3 153 -186 154q-199 -5 -199 -182z" />
    <glyph glyph-name="uni1B33.td" unicode="&#x1b33;&#x1b35;" horiz-adv-x="1177" 
d="M232 -4q-150 2 -171 131l-1 20q0 54 41 121q25 40 25 59t-23 19q-35 0 -35 -49q0 -17 5 -41l-13 -2q-15 38 -15 76q0 110 74 110q61 -4 61 -63q0 -36 -36 -91q-41 -62 -41 -101l1 -12q13 -79 128 -79q136 0 136 97v23q0 226 134 226q135 0 136 -242v-67q0 -68 23 -71
q23 3 24 71l31 27q-1 -157 -54 -158q-55 1 -55 158v30q-7 154 -104 154q-110 0 -110 -139v-21q0 -96 -47.5 -140.5t-113.5 -45.5zM716 171v-13l-31 -27v67q6 241 215 246h35q192 -7 192 -227q0 -138 -106 -204q-59 -28 -116 -28q-88 0 -101 130l16 10q61 -58 141 -58
q82 1 111 46t29 86q-3 153 -186 154q-199 -5 -199 -182z" />
    <glyph glyph-name="uni1B45.td" unicode="&#x1b45;&#x1b35;" horiz-adv-x="1256" 
d="M441 20q82 0 82 51q-2 33 -70.5 57t-146.5 27v-5q0 -44 26 -80.5t81 -47.5zM127 29l11 1q43 10 49 119q-83 -13 -91 -80q0 -40 31 -40zM449 -9q-80 0 -124 39q-53 46 -55 128q-25 0 -54 -3q-3 -157 -87 -157q-67 0 -73 72q0 64 41.5 103.5t90.5 47.5v31q-6 96 -57 96
q-46 0 -46 -61q1 -38 15 -68l-17 -6q-38 56 -38 133q0 92 77 92q92 -2 92 -153v-57q22 4 57 6v10q2 194 222 196q219 -2 224 -242v-67l-31 27v30q-2 154 -192 154q-185 0 -185 -106q121 -2 193.5 -42.5t72.5 -101.5q-3 -46 -36.5 -73.5t-89.5 -27.5zM795 171v-13
q0 -157 -54 -158q-54 1 -55 158v30l31 10v-67q0 -68 23 -71q23 3 24 71v67zM795 171v-13l-31 -27v67q6 241 215 246h35q192 -7 192 -227q0 -138 -106 -204q-59 -28 -116 -28q-88 0 -101 130l16 10q61 -58 141 -58q82 1 111 46t29 86q-3 153 -186 154q-199 -5 -199 -182z
M307 -255h-6q-121 0 -121 145q0 62 33 139.5t92 163.5l16 -9q-96 -152 -96 -263q0 -100 83 -101q66 0 110 67l16 -8q-32 -132 -127 -134z" />
    <glyph glyph-name="uni1B46.td" unicode="&#x1b46;&#x1b35;" horiz-adv-x="1798" 
d="M441 20q82 0 82 51q-2 33 -70.5 57t-146.5 27v-5q0 -44 26 -80.5t81 -47.5zM127 29l11 1q43 10 49 119q-83 -13 -91 -80q0 -40 31 -40zM449 -9q-80 0 -124 39q-53 46 -55 128q-25 0 -54 -3q-3 -157 -87 -157q-67 0 -73 72q0 64 41.5 103.5t90.5 47.5v31q-6 96 -57 96
q-46 0 -46 -61q1 -38 15 -68l-17 -6q-38 56 -38 133q0 92 77 92q92 -2 92 -153v-57q22 4 57 6v10q2 194 222 196q219 -2 224 -242v-67l-31 47v10q-2 154 -192 154q-185 0 -185 -106q121 -2 193.5 -42.5t72.5 -101.5q-3 -46 -36.5 -73.5t-89.5 -27.5zM686 174v14l31 10v-23
q1 -43 37.5 -62t94.5 -19h6q74 0 104 27t30 70v23q0 226 134 226q135 0 136 -242v-67q0 -68 23 -71q23 3 24 71l31 27q-1 -157 -54 -158h-2q-53 1 -53 158v30q-8 154 -105 154q-110 0 -110 -139v-21q0 -96 -47 -140.5t-111 -45.5h-6q-75 1 -116 42.5t-47 135.5zM1337 171
v-13l-31 -27v67q6 241 215 246h35q192 -7 192 -227q0 -138 -106 -204q-59 -28 -116 -28q-88 0 -101 130l16 10q61 -58 141 -58q82 1 111 46t29 86q-3 153 -186 154q-199 -5 -199 -182z" />
    <glyph glyph-name="uni1B47.td" unicode="&#x1b47;&#x1b35;" horiz-adv-x="1083" 
d="M260 -4h-6q-173 2 -192 131l-2 21q0 54 41 120q25 40 25 59t-23 19q-35 0 -35 -49q0 -17 5 -41l-13 -2q-15 38 -15 76q0 110 74 110q62 -4 62 -62q0 -36 -37 -92q-48 -72 -50 -117q0 -43 38.5 -59t138.5 -16q162 2 164 54q0 51 -110 51q-60 0 -126 -21q-10 41 -10 78
l1 23q3 46 31 91q42 68 119 70h20q184 -2 184 -258v-51q1 -68 24 -71q22 3 23 71l31 27q0 -157 -53 -158h-2q-53 1 -54 158v30q-3 81 -47 124.5t-124 43.5q-121 0 -131 -116q63 37 118 37q57 0 97 -33t40 -100q-6 -146 -206 -148zM622 171v-13l-31 -27v67q6 241 215 246h35
q192 -7 192 -227q0 -138 -106 -204q-59 -28 -116 -28q-88 0 -101 130l16 10q61 -58 141 -58q82 1 111 46t29 86q-3 153 -186 154q-199 -5 -199 -182zM277 -255h-6q-121 0 -121 145q0 62 33 139.5t92 163.5l16 -9q-96 -152 -96 -263q0 -100 83 -101q66 0 110 67l16 -8
q-32 -132 -127 -134z" />
    <glyph glyph-name="uni1B48.td" unicode="&#x1b48;&#x1b35;" horiz-adv-x="912" 
d="M651 353q-180 -3 -222 -145q-32 -111 -77.5 -159.5t-113.5 -52.5h-9q-147 2 -168 131l-1 20q0 54 41 121q25 40 25 59t-23 19q-35 0 -35 -49q0 -17 5 -41l-13 -2q-15 38 -15 76q0 110 74 110q31 -2 46.5 -21.5t15.5 -41.5q0 -36 -37 -91q-41 -62 -41 -101l1 -12
q13 -79 130 -79q74 0 112.5 34t63 119t77 140.5t163.5 56.5q217 -7 217 -227q0 -138 -106 -204q-59 -28 -116 -28q-88 0 -101 130l16 10q61 -58 141 -58q82 1 111 46t29 86q-3 153 -186 154h-4zM651 353q-180 -3 -222 -145q-32 -111 -77.5 -159.5t-113.5 -52.5h-9
q-147 2 -168 131l-1 20q0 54 41 121q25 40 25 59t-23 19q-35 0 -35 -49q0 -17 5 -41l-13 -2q-15 38 -15 76q0 110 74 110q31 -2 46.5 -21.5t15.5 -41.5q0 -36 -37 -91q-41 -62 -41 -101l1 -12q13 -79 130 -79q74 0 112.5 34t63 119t77 140.5t163.5 56.5q217 -7 217 -227
q0 -138 -106 -204q-59 -28 -116 -28q-88 0 -101 130l16 10q61 -58 141 -58q82 1 111 46t29 86q-3 153 -186 154h-4zM277 -255h-6q-121 0 -121 145q0 62 33 139.5t92 163.5l16 -9q-96 -152 -96 -263q0 -100 83 -101q66 0 110 67l16 -8q-32 -132 -127 -134z" />
    <glyph glyph-name="uni1B49.td" unicode="&#x1b49;&#x1b35;" horiz-adv-x="965" 
d="M915 217q0 -138 -106 -204q-59 -28 -116 -28q-88 0 -101 130l16 10q61 -58 141 -58q82 1 111 46t29 86q-3 153 -191 154q-95 0 -177 -99l-16 9l1 19q0 91 -150 93q71 -39 71 -143v-11q0 -223 -195 -225q-151 2 -170 131l-2 21q0 54 41 120q25 40 25 59t-23 19
q-34 0 -34 -50q0 -17 4 -40l-13 -2q-15 38 -15 76q0 110 75 110q25 -2 43 -18.5t18 -43.5q0 -36 -37 -92q-41 -62 -41 -101l1 -12q8 -41 37.5 -60t90.5 -19q77 0 120.5 36.5t43.5 103.5q-1 79 -59 114q-27 10 -53 10q-21 0 -42 -7q26 91 122 91q125 0 168 -119
q55 121 185 121q198 -7 198 -227zM277 -255h-6q-121 0 -121 145q0 62 33 139.5t92 163.5l16 -9q-96 -152 -96 -263q0 -100 83 -101q66 0 110 67l16 -8q-32 -132 -127 -134z" />
    <glyph glyph-name="uni1B4A.td" unicode="&#x1b4a;&#x1b35;" horiz-adv-x="985" 
d="M108 28l14 2q44 10 67 99q-16 4 -30 4q-31 0 -55 -19.5t-24 -49.5v-8q3 -28 28 -28zM524 173q-6 -101 -27 -137.5t-66 -39.5h-9q-48 0 -99 49q-57 53 -105 77q-12 -53 -41.5 -89t-68.5 -36q-63 0 -63 71l2 26q7 44 45 79t76 35h38q9 59 9 91q0 66 -55 66q-49 0 -54 -51
v-6q0 -28 23 -66l-8 -10q-52 45 -52 112v12q4 75 65 87l24 2q89 0 89 -115q0 -51 -14 -128q49 -12 109.5 -63t93.5 -60l15 -2q42 0 42 117zM524 171v1l-31 -41v67q6 241 215 246h35q192 -7 192 -227q0 -138 -106 -204q-59 -28 -116 -28q-88 0 -101 130l16 10q61 -58 141 -58
q82 1 111 46t29 86q-3 153 -186 154q-199 -5 -199 -182zM377 -255h-6q-121 0 -121 145q0 62 33 139.5t92 163.5l16 -9q-96 -152 -96 -263q0 -100 83 -101q66 0 110 67l16 -8q-32 -132 -127 -134z" />
    <glyph glyph-name="uni1B4B.td" unicode="&#x1b4b;&#x1b35;" horiz-adv-x="1772" 
d="M108 28l14 2q43 10 67 99q-16 4 -31 4q-30 0 -54.5 -19.5t-24.5 -48.5l1 -9q3 -28 28 -28zM1257.5 247q24.5 85 76.5 140.5t178 56.5q210 -11 210 -227q0 -138 -106 -204q-59 -28 -116 -28q-88 0 -101 130l16 10q61 -58 141 -58q82 1 111 46t29 86q-3 153 -190 154
q-187 -3 -229 -145q-38 -129 -72 -169q-34 -39 -101 -43q-79 1 -122.5 67t-57.5 154q-17 29 -13 222h26q4 -193 41 -269t126 -76q76 0 102.5 34t51 119zM924 217q-32 -219 -179 -221h-6q-127 2 -129 201q-3 136 -87 145v-165q-5 -94 -23 -135.5t-69 -45.5h-9q-48 0 -99 49
q-57 53 -106 77q-11 -53 -40.5 -89t-68.5 -36q-63 0 -63 71l2 26q18 114 159 114q9 59 9 91q0 66 -56 66q-48 0 -53 -51v-7q0 -27 22 -65l-8 -10q-52 45 -52 112v12q4 75 66 87l24 2q88 0 88 -113q0 -51 -14 -130q49 -12 110 -63t94 -60l15 -2q41 0 41 113v252
q143 -11 148 -169v-77q2 -102 109 -102h5q79 0 116 76t41 269h26z" />
    <glyph glyph-name=".notdef" horiz-adv-x="600" 
d="M94 0v714h411v-714h-411zM145 663v-612h309v612h-309z" />
    <glyph glyph-name=".null" 
 />
    <glyph glyph-name=".null" 
 />
    <glyph glyph-name="nonmarkingreturn" horiz-adv-x="260" 
 />
    <glyph glyph-name="space" unicode=" " horiz-adv-x="260" 
 />
    <glyph glyph-name="question" unicode="?" horiz-adv-x="532" 
d="M186 222v30q0 64 21 104.5t72 83.5q59 50 77.5 71.5t26 43t7.5 50.5q0 53 -34.5 82t-99.5 29q-43 0 -84.5 -11t-92.5 -36l-34 77q103 55 218 55q102 0 161 -51t59 -143q0 -40 -11 -71t-32.5 -58.5t-87.5 -81.5q-53 -46 -70.5 -76t-17.5 -79v-19h-78zM161 60q0 74 69 74
q31 0 49 -18.5t18 -55.5q0 -36 -18.5 -56t-48.5 -20q-31 0 -50 18t-19 58z" />
    <glyph glyph-name="nonbreakingspace" unicode="&#xa0;" horiz-adv-x="260" 
 />
    <glyph glyph-name="uni1B00" unicode="&#x1b00;" 
d="M-183 545q39 56 39 139q0 176 -174 176q-84 0 -130 -46q-48 -46 -48 -134q0 -79 42 -135l-13 -12q-78 71 -78 214v7q11 105 71 154q61 49 156 49q207 0 227 -203v-4q0 -145 -79 -217zM-270 563q37 38 37 88v3q-7 64 -86 65q-79 -1 -86 -65v-3q0 -50 37 -88l-11 -11
q-62 53 -66 112q0 121 120 121h12q120 0 120 -121q-4 -59 -66 -112z" />
    <glyph glyph-name="uni1B01" unicode="&#x1b01;" 
d="M-427 594q32 -14 86 -16q50 1 86 15q-20 91 -86 91t-86 -90zM-332 980l12 -240h-44l11 240h21zM-234 601q89 37 97 148h17v-8q0 -244 -221 -247q-221 3 -221 247v8h17q8 -112 98 -147q0 145 106 145q107 0 107 -146z" />
    <glyph glyph-name="uni1B02" unicode="&#x1b02;" 
d="M-125 542q-47 148 -154 253l38 59q59 -36 92 -125.5t42 -182.5z" />
    <glyph glyph-name="uni1B03" unicode="&#x1b03;" 
d="M-118 533q-232 0 -357 138q-107 127 -130 302l80 -21q37 -149 112 -256q97 -133 301 -145z" />
    <glyph glyph-name="uni1B04" unicode="&#x1b04;" horiz-adv-x="273" 
d="M186 -799q-104 177 -104 348q0 108 42 219q76 197 76 289q0 41 -15 61q-48 65 -142 80v33h13q134 0 142 61l1 13q0 50 -58 50q-66 -1 -86 -67l-15 3v12q0 124 82 135l28 2q99 0 99 -112q0 -91 -89 -116q84 -34 84 -165q0 -104 -62 -310q-32 -109 -32 -220q0 -143 55 -303
z" />
    <glyph glyph-name="uni1B05" unicode="&#x1b05;" horiz-adv-x="918" 
d="M591 -4q-145 2 -145 170v5l12 2q25 -79 133 -79q131 0 131 140v208q143 -11 147 -169v-273h-30v198q-3 135 -87 144v-155q0 -86 -42.5 -138t-118.5 -53zM785 6q-70 123 -128 181t-129 97l23 59q79 -28 143 -112t107 -215zM247 0h-5q-91 3 -144 65.5t-53 173.5l1 35
q9 124 80.5 199.5t182.5 78.5l2 -12q-93 -20 -155.5 -86t-72.5 -158l-2 -36q0 -73 40.5 -117t114.5 -50q107 0 107 57q0 43 -83 48h-26v33h36q73 4 73 60q-10 45 -72 46q-81 -1 -115 -50l-16 8q29 131 135 131h8q112 -5 115 -105q-3 -90 -86 -106q82 -11 82 -95v-6
q-10 -114 -147 -114z" />
    <glyph glyph-name="uni1B06" unicode="&#x1b06;" horiz-adv-x="1304" 
d="M1030 444q217 -7 217 -227q0 -138 -106 -204q-59 -28 -116 -28q-88 0 -101 130l16 10q61 -58 141 -58q82 1 111 46t29 86q-3 153 -186 154h-4q-180 -3 -222 -145q-32 -111 -77.5 -159.5t-113.5 -52.5h-12q-155 2 -161 182l10 3q37 -87 156 -87q77 0 115.5 34t63 119
t77 140.5t163.5 56.5zM885 6q-70 123 -128 181t-129 97l23 59q79 -28 143 -112t107 -215zM247 0h-5q-91 3 -144 65.5t-53 173.5l1 35q9 124 80.5 199.5t182.5 78.5l2 -12q-93 -20 -155.5 -86t-72.5 -158l-2 -36q0 -73 40.5 -117t114.5 -50q107 0 107 57q0 43 -83 48h-26v33
h36q73 4 73 60q-10 45 -72 46q-81 -1 -115 -50l-16 8q29 131 135 131h8q112 -5 115 -105q-3 -90 -86 -106q82 -11 82 -95v-6q-10 -114 -147 -114z" />
    <glyph glyph-name="uni1B07" unicode="&#x1b07;" horiz-adv-x="823" 
d="M295 -5l-91 105q-15 35 -19 94q3 240 138 245q55 0 92 -29t64 -87q27 58 62 87t95 29q137 -6 137 -247v-192h-30v184q-1 149 -110 158h-25q-80 -9 -128 -72h-2q-48 63 -128 72h-25q-84 -7 -103 -96l-2 -44q0 -125 85 -193zM305 9l-10 -14q-76 16 -143 46q-82 35 -82 122
q0 49 30 105q25 40 25 60q0 18 -22 18q-35 0 -35 -49q0 -17 5 -41l-14 -2q-14 37 -14 74q0 112 74 112q61 -4 61 -62q0 -36 -36 -91t-36 -92q0 -60 96 -95zM464 -356q-107 0 -167 95l13 13q64 -49 144 -49q79 1 79 40v3q-3 41 -103.5 60.5t-105.5 84.5q2 73 82 77h8
q73 0 115 -52l-9 -11q-44 28 -88 28h-6q-47 -2 -57 -35v-6q0 -35 70 -51q136 -24 136 -107v-4q-3 -86 -111 -86z" />
    <glyph glyph-name="uni1B08" unicode="&#x1b08;" horiz-adv-x="1301" 
d="M295 -5l-91 105q-15 35 -19 94q3 240 138 245q55 0 92 -29t64 -87q27 58 62 87t95 29q137 -6 137 -247v-192h-30v184q-1 149 -110 158h-25q-80 -9 -128 -72h-2q-48 63 -128 72h-25q-84 -7 -103 -96l-2 -44q0 -125 85 -193zM305 9l-10 -14q-76 16 -143 46q-82 35 -82 122
q0 49 30 105q25 40 25 60q0 18 -22 18q-35 0 -35 -49q0 -17 5 -41l-14 -2q-14 37 -14 74q0 112 74 112q61 -4 61 -62q0 -36 -36 -91t-36 -92q0 -60 96 -95zM464 -356q-107 0 -167 95l13 13q64 -49 144 -49q79 1 79 40v3q-3 41 -103.5 60.5t-105.5 84.5q2 73 82 77h8
q73 0 115 -52l-9 -11q-44 28 -88 28h-6q-47 -2 -57 -35v-6q0 -35 70 -51q136 -24 136 -107v-4q-3 -86 -111 -86zM1045 -15q-88 0 -101 130l16 10q61 -58 141 -58q82 1 111 46t29 86q-3 142 -186 143q-181 0 -248 -57l-13 12q86 141 260 143h21q192 -27 192 -223
q0 -138 -106 -204q-59 -28 -116 -28z" />
    <glyph glyph-name="uni1B09" unicode="&#x1b09;" horiz-adv-x="578" 
d="M223 -803q-271 92 -271 343q0 116 75 219t211 156q130 51 192.5 112.5t62.5 143.5q0 164 -160 171q-74 0 -110 -43t-36 -109q0 -49 29 -94l-22 -13q-149 83 -149 206l2 31l17 5q37 -127 94 -164q-15 40 -15 79q0 57 32 111q53 89 157 89q196 -3 196 -263
q0 -134 -59.5 -225.5t-177.5 -130.5q-298 -100 -298 -293q0 -178 182 -268q-28 49 -28 102q0 203 238 209h12l-6 -99q-208 -3 -208 -136q0 -58 46 -130zM698 -799q-74 268 -307 271l-6 99h12q144 -5 212 -96.5t108 -265.5z" />
    <glyph glyph-name="uni1B0A" unicode="&#x1b0a;" horiz-adv-x="1054" 
d="M805 -15q-88 0 -101 130l16 10q61 -58 141 -58q82 1 111 46t29 86q-3 142 -186 143q-181 0 -248 -57l-13 12q86 141 260 143h21q192 -27 192 -223q0 -138 -106 -204q-59 -28 -116 -28zM223 -803q-271 92 -271 343q0 116 75 219t211 156q130 51 192.5 112.5t62.5 143.5
q0 164 -160 171q-74 0 -110 -43t-36 -109q0 -49 29 -94l-22 -13q-149 83 -149 206l2 31l17 5q37 -127 94 -164q-15 40 -15 79q0 57 32 111q53 89 157 89q196 -3 196 -263q0 -134 -59.5 -225.5t-177.5 -130.5q-298 -100 -298 -293q0 -178 182 -268q-28 49 -28 102
q0 203 238 209h12l-6 -99q-208 -3 -208 -136q0 -58 46 -130zM698 -799q-74 268 -307 271l-6 99h12q144 -5 212 -96.5t108 -265.5z" />
    <glyph glyph-name="uni1B0B" unicode="&#x1b0b;" horiz-adv-x="586" 
d="M232 -4q-151 2 -170 131l-2 21q0 54 41 120q25 40 25 59t-23 19q-35 0 -35 -49q0 -17 5 -41l-13 -2q-15 38 -15 76q0 110 74 110q62 -4 62 -62q0 -36 -37 -92q-41 -62 -41 -101l1 -12q13 -79 128 -79q76 0 120 36.5t44 103.5v208q143 -11 148 -169v-273h-30v198
q-3 135 -87 144v-155q0 -86 -52.5 -138t-142.5 -53zM284 -356q-107 0 -167 95l13 13q64 -49 144 -49q79 1 79 40v3q-3 41 -103.5 60.5t-105.5 84.5q2 73 82 77h8q73 0 115 -52l-9 -11q-44 28 -88 28h-6q-47 -2 -57 -35v-6q0 -35 70 -51q136 -24 136 -107v-4q-3 -86 -111 -86
z" />
    <glyph glyph-name="uni1B0C" unicode="&#x1b0c;" horiz-adv-x="586" 
d="M232 -4q-151 2 -170 131l-2 21q0 54 41 120q25 40 25 59t-23 19q-35 0 -35 -49q0 -17 5 -41l-13 -2q-15 38 -15 76q0 110 74 110q62 -4 62 -62q0 -36 -37 -92q-41 -62 -41 -101l1 -12q13 -79 128 -79q76 0 120 36.5t44 103.5v208q143 -11 148 -169v-273h-30v198
q-3 135 -87 144v-155q0 -86 -52.5 -138t-142.5 -53zM266 -393l-16 11q33 51 33 100q0 51 -66.5 65t-66.5 59q0 39 60 104l16 -9q-24 -31 -24 -56q0 -33 63.5 -45t63.5 -73q-3 -64 -63 -156z" />
    <glyph glyph-name="uni1B0D" unicode="&#x1b0d;" horiz-adv-x="823" 
d="M295 -5l-91 105q-15 35 -19 94q3 240 138 245q55 0 92 -29t64 -87q27 58 62 87t95 29q137 -6 137 -247v-192h-30v184q-1 149 -110 158h-25q-80 -9 -128 -72h-2q-48 63 -128 72h-25q-84 -7 -103 -96l-2 -44q0 -125 85 -193zM305 9l-10 -14q-76 16 -143 46q-82 35 -82 122
q0 49 30 105q25 40 25 60q0 18 -22 18q-35 0 -35 -49q0 -17 5 -41l-14 -2q-14 37 -14 74q0 112 74 112q61 -4 61 -62q0 -36 -36 -91t-36 -92q0 -60 96 -95zM570 -799l-34 8q9 43 9 80q0 149 -118.5 196t-177.5 104t-59 149q0 83 57.5 146t158.5 63q179 -2 334 -173l-20 -69
q-63 75 -163 111.5t-171 39.5h-12q-142 0 -142 -123q0 -128 172 -192.5t175 -219.5q75 186 115.5 342.5t48.5 337.5h30q-3 -203 -47 -374.5t-156 -425.5z" />
    <glyph glyph-name="uni1B0E" unicode="&#x1b0e;" horiz-adv-x="823" 
d="M295 -5l-91 105q-15 35 -19 94q3 240 138 245q55 0 92 -29t64 -87q27 58 62 87t95 29q137 -6 137 -247v-192h-30v184q-1 149 -110 158h-25q-80 -9 -128 -72h-2q-48 63 -128 72h-25q-84 -7 -103 -96l-2 -44q0 -125 85 -193zM305 9l-10 -14q-76 16 -143 46q-82 35 -82 122
q0 49 30 105q25 40 25 60q0 18 -22 18q-35 0 -35 -49q0 -17 5 -41l-14 -2q-14 37 -14 74q0 112 74 112q61 -4 61 -62q0 -36 -36 -91t-36 -92q0 -60 96 -95zM570 -799l-34 8q9 43 9 80q0 149 -118.5 196t-177.5 104t-59 149q0 83 57.5 146t158.5 63q179 -2 334 -173l-20 -69
q-63 75 -163 111.5t-171 39.5h-12q-142 0 -142 -123q0 -128 172 -192.5t175 -219.5q75 186 115.5 342.5t48.5 337.5h30q-3 -203 -47 -374.5t-156 -425.5zM828 -622h-7q-104 4 -143 139l17 8q33 -61 112 -63q78 0 78 57q-1 54 -84 58h-26v24q107 25 107 93v4q0 61 -82 64
q-49 0 -79 -22l-6 7q44 72 109 72q101 0 103 -87v-5q0 -84 -73 -123q84 -21 84 -117q-13 -109 -110 -109z" />
    <glyph glyph-name="uni1B0F" unicode="&#x1b0f;" horiz-adv-x="554" 
d="M476 -3l-8 5q18 41 18 75q0 95 -132 99q-161 -1 -161 -110q0 -29 16 -59l-7 -8q-148 26 -171 162l-1 23q0 215 268 274l6 -11q-243 -126 -243 -284q6 -73 106 -89l-1 22q0 74 47.5 123.5t140.5 49.5q89 0 131 -44t42 -112q0 -64 -51 -116z" />
    <glyph glyph-name="uni1B10" unicode="&#x1b10;" horiz-adv-x="1108" 
d="M732 -805q-16 59 -71 142t-123 83q-75 0 -132.5 -111.5t-175.5 -113.5q-215 2 -215 307q0 126 58 221q78 131 364.5 171.5t304.5 264.5q0 174 -109 183h-25q-80 -9 -128 -72h-2q-48 63 -128 72h-24q-85 -7 -104 -96l-2 -44q0 -125 85 -193l-10 -14q-76 16 -143 46
q-82 35 -82 122q0 49 30 105q25 40 25 60q0 18 -22 18q-35 0 -35 -49q0 -17 5 -41l-14 -2q-14 37 -14 74q0 112 74 112q61 -4 61 -62q0 -36 -36 -91t-36 -92q0 -60 96 -95q-15 35 -19 94q3 240 138 245q55 0 92 -29t64 -87q26 56 60.5 86t96.5 30q136 -6 136 -271v-17
q0 -306 -278 -342q-248 -33 -343 -105.5t-95 -199.5q0 -211 174 -211q138 0 182.5 106t145.5 109q97 -1 159.5 -73t84.5 -142q200 0 202 323v574l31 3v-630q0 -366 -303 -368zM920 383q22 0 44 7q-43 91 -100 91q-40 -2 -40 -36q0 -26 27 -44t69 -18zM1035 -115l-31 31v274
q0 75 -10 107l-36 -4q-82 2 -126 39.5t-47 86.5v12q0 81 79 81q77 0 130 -112q80 43 110 129h12l2 -37q0 -119 -92 -176q9 -45 9 -123v-308z" />
    <glyph glyph-name="uni1B11" unicode="&#x1b11;" horiz-adv-x="822" 
d="M766 -799q-74 268 -307 271q-207 -3 -207 -137q0 -57 45 -129l-5 -9q-271 92 -271 343q0 97 52 183q78 131 369.5 171.5t299.5 264.5q0 174 -109 183h-25q-80 -9 -128 -72h-2q-48 63 -128 72h-24q-85 -7 -104 -96l-2 -44q0 -125 85 -193l-10 -14q-76 16 -143 46
q-82 35 -82 122q0 49 30 105q25 40 25 60q0 18 -22 18q-35 0 -35 -49q0 -17 5 -41l-14 -2q-14 37 -14 74q0 112 74 112q61 -4 61 -62q0 -36 -36 -91t-36 -92q0 -60 96 -95q-15 35 -19 94q3 240 138 245q55 0 92 -29t64 -87q26 56 60.5 86t96.5 30q136 -6 136 -271v-17
q0 -306 -278 -342q-234 -31 -333.5 -98.5t-99.5 -180.5q0 -180 183 -270q-28 49 -28 102q0 49 23 100q46 105 214 109h12q144 -5 212 -96.5t108 -265.5z" />
    <glyph glyph-name="uni1B12" unicode="&#x1b12;" horiz-adv-x="1299" 
d="M1045 -15q-88 0 -101 130l16 10q61 -58 141 -58q82 1 111 46t29 86q-3 142 -186 143q-181 0 -248 -57l-13 12q86 141 260 143h21q192 -27 192 -223q0 -138 -106 -204q-59 -28 -116 -28zM766 -799q-74 268 -307 271q-207 -3 -207 -137q0 -57 45 -129l-5 -9
q-271 92 -271 343q0 97 52 183q78 131 369.5 171.5t299.5 264.5q0 174 -109 183h-25q-80 -9 -128 -72h-2q-48 63 -128 72h-24q-85 -7 -104 -96l-2 -44q0 -125 85 -193l-10 -14q-76 16 -143 46q-82 35 -82 122q0 49 30 105q25 40 25 60q0 18 -22 18q-35 0 -35 -49
q0 -17 5 -41l-14 -2q-14 37 -14 74q0 112 74 112q61 -4 61 -62q0 -36 -36 -91t-36 -92q0 -60 96 -95q-15 35 -19 94q3 240 138 245q55 0 92 -29t64 -87q26 56 60.5 86t96.5 30q136 -6 136 -271v-17q0 -306 -278 -342q-234 -31 -333.5 -98.5t-99.5 -180.5q0 -180 183 -270
q-28 49 -28 102q0 49 23 100q46 105 214 109h12q144 -5 212 -96.5t108 -265.5z" />
    <glyph glyph-name="uni1B13" unicode="&#x1b13;" horiz-adv-x="962" 
d="M441 20q82 0 82 51q-2 33 -70.5 57t-146.5 27v-5q0 -44 26 -80.5t81 -47.5zM127 29l11 1q43 10 49 119q-83 -13 -91 -80q0 -40 31 -40zM449 -9q-80 0 -124 39q-53 46 -55 128q-25 0 -54 -3q-3 -157 -87 -157q-67 0 -73 72q0 64 41.5 103.5t90.5 47.5v31q-6 96 -57 96
q-46 0 -46 -61q1 -38 15 -68l-17 -6q-38 56 -38 133q0 92 77 92q92 -2 92 -153v-57q22 4 57 6v10q2 194 222 196q219 -2 224 -242v-67q0 -68 23 -71q23 3 24 71v311q143 -11 148 -169v-273h-30v198q-3 135 -87 144v-184q0 -157 -54 -158q-54 1 -55 158v30q-2 154 -192 154
q-185 0 -185 -106q121 -2 193.5 -42.5t72.5 -101.5q-3 -46 -36.5 -73.5t-89.5 -27.5z" />
    <glyph glyph-name="uni1B14" unicode="&#x1b14;" horiz-adv-x="1157" 
d="M442 20q81 0 81 49v3q-2 32 -70 56t-147 27q0 -46 26 -84t82 -49zM1138 160q-145 -156 -284 -163q-165 0 -167 161v30q-3 154 -193 154q-184 0 -184 -105v-2q121 -1 193.5 -42t72.5 -101q-3 -47 -37.5 -74t-88.5 -27q-88 0 -132.5 46t-46.5 121q-25 0 -56 -3l-1 73
q22 4 58 6v10q2 194 222 196q219 -2 223 -242v-20q2 -85 132 -85q34 0 107.5 16t171.5 63zM127 29l11 1q43 10 49 119q-83 -13 -91 -80q0 -40 31 -40zM216 155q-3 -157 -87 -157q-67 0 -73 72q0 64 41.5 103.5t90.5 47.5v31q-6 96 -57 96q-46 0 -46 -61q1 -38 15 -68l-17 -6
q-38 56 -38 133q0 92 77 92q92 -2 92 -153v-57z" />
    <glyph glyph-name="uni1B15" unicode="&#x1b15;" horiz-adv-x="872" 
d="M526 -11l-4 13q65 48 72 182q0 149 -183 158h-12q-158 -7 -177 -145l-2 -31q0 -89 85 -157l-10 -14q-76 16 -143 46q-82 35 -82 122q0 49 30 105q25 40 25 60q0 18 -22 18q-35 0 -35 -49q0 -17 5 -41l-14 -2q-14 37 -14 74q0 112 74 112q61 -4 61 -62q0 -36 -36.5 -91
t-36.5 -93q0 -59 97 -94q-15 35 -19 94q3 240 211 245h18q210 -6 210 -253q-6 -84 -28 -135q70 35 78 183v208q143 -11 148 -169v-273h-30v198q-3 135 -87 144v-116q-10 -213 -179 -237z" />
    <glyph glyph-name="uni1B16" unicode="&#x1b16;" horiz-adv-x="939" 
d="M510 151q-49 -4 -69 -76q-22 -76 -90 -79h-6q-51 1 -77.5 40t-26.5 103q0 159 84 250q-106 -17 -107 -145v-57q-7 -121 -27 -155t-58 -34q-36 0 -58 26.5t-22 79.5q0 39 12 81t36.5 82.5t24.5 59.5t-23 19q-35 0 -35 -49q0 -17 5 -41l-13 -2q-15 38 -15 76q0 110 74 110
q62 -4 62 -63q0 -36 -37 -91q-59 -88 -59 -148q0 -49 42 -49q30 0 47.5 29t17.5 80v87q0 156 151 157h55l3 -12q-121 -110 -121 -225q0 -49 22 -79.5t70 -31.5q52 1 73.5 60t70.5 59q99 0 142 -129q30 10 52 46.5t22 103.5q-1 79 -59 114q-28 10 -54 10q-21 0 -42 -7
q27 90 121 90q191 0 191 -293v-148h-30v154q-3 219 -168 221q71 -39 71 -143v-11q0 -223 -124 -225h-6q-61 149 -122 155z" />
    <glyph glyph-name="uni1B17" unicode="&#x1b17;" horiz-adv-x="823" 
d="M295 -5l-91 105q-15 35 -19 94q3 240 138 245q55 0 92 -29t64 -87q27 58 62 87t95 29q137 -6 137 -247v-192h-30v184q-1 149 -110 158h-25q-80 -9 -128 -72h-2q-48 63 -128 72h-25q-84 -7 -103 -96l-2 -44q0 -125 85 -193zM305 9l-10 -14q-76 16 -143 46q-82 35 -82 122
q0 49 30 105q25 40 25 60q0 18 -22 18q-35 0 -35 -49q0 -17 5 -41l-14 -2q-14 37 -14 74q0 112 74 112q61 -4 61 -62q0 -36 -36 -91t-36 -92q0 -60 96 -95z" />
    <glyph glyph-name="uni1B18" unicode="&#x1b18;" horiz-adv-x="684" 
d="M102 28l14 2q44 10 67 99q-16 4 -30 4q-31 0 -55 -19.5t-24 -49.5v-8q3 -28 28 -28zM447 -4h-8q-36 0 -100 51t-127 75q-12 -53 -41.5 -89t-68.5 -36q-63 0 -63 71l2 26q18 114 159 114q9 59 9 91q0 66 -55 66q-49 0 -54 -51v-6q0 -28 23 -66l-8 -10q-52 45 -52 112v12
q4 75 65 87l24 2q89 0 89 -115q0 -51 -14 -128q65 -12 126 -63q73 -63 100 -63q46 0 53 66l1 14q0 40 -15 89q-33 113 -127 113q-22 0 -42 -7q26 90 121 90q191 0 191 -293v-148h-30v154q-2 219 -168 221q103 -61 103 -234l-1 -18q-12 -118 -92 -127z" />
    <glyph glyph-name="uni1B19" unicode="&#x1b19;" horiz-adv-x="927" 
d="M598 -4h-15v1q-133 10 -182 172q-51 173 -176 173q-79 0 -115 -53t-36 -129q3 -97 74 -107q80 0 80 107q0 27 -5 62l17 4q18 -68 18 -115q0 -114 -102 -114q-118 4 -118 175q0 267 189 267q133 -3 180 -175q45 -167 185 -170q72 1 105.5 42t33.5 98v208q143 -11 148 -169
v-273h-30v198q-3 135 -87 144v-145q0 -86 -43.5 -141.5t-120.5 -59.5z" />
    <glyph glyph-name="uni1B1A" unicode="&#x1b1a;" horiz-adv-x="657" 
d="M295 -5q-76 16 -143 46q-82 35 -82 122q0 49 30 105q25 40 25 60q0 18 -22 18q-35 0 -35 -49q0 -17 5 -41l-14 -2q-14 37 -14 74q0 112 74 112q61 -4 61 -62q0 -36 -36.5 -91t-36.5 -93q0 -59 97 -94q-15 35 -19 94q3 240 186 245h51q169 0 178 -126v-10q0 -85 -86 -130
q93 -33 93 -152v-21h-30v12q0 140 -154 144h-85v33l85 1q58 3 94.5 22t36.5 49q0 72 -155 81h-25q-133 -7 -152 -96l-2 -44q0 -125 85 -193z" />
    <glyph glyph-name="uni1B1B" unicode="&#x1b1b;" horiz-adv-x="1152" 
d="M1094 117q33 94 -92.5 136t-169.5 79.5t-47 86.5v12q0 81 79 81q77 0 124 -81t47 -191v-677q0 -366 -303 -368q-16 59 -71 142t-123 83q-75 0 -132.5 -111.5t-175.5 -113.5q-215 2 -215 287q0 146 58 241q78 131 364.5 171.5t304.5 264.5q0 174 -109 183h-25
q-80 -9 -128 -72h-2q-48 63 -128 72h-24q-85 -7 -104 -96l-2 -44q0 -125 85 -193l-10 -14q-76 16 -143 46q-82 35 -82 122q0 49 30 105q25 40 25 60q0 18 -22 18q-35 0 -35 -49q0 -17 5 -41l-14 -2q-14 37 -14 74q0 112 74 112q61 -4 61 -62q0 -36 -36 -91t-36 -92
q0 -60 96 -95q-15 35 -19 94q3 240 138 245q55 0 92 -29t64 -87q26 56 60.5 86t96.5 30q136 -6 136 -271v-17q0 -306 -278 -342q-248 -33 -343 -105.5t-95 -219.5q0 -191 174 -191q138 0 182.5 106t145.5 109q97 -1 159.5 -73t84.5 -142q200 0 202 303v641
q0 107 -41.5 175.5t-98.5 68.5q-40 -2 -40 -36q0 -26 27 -44t176.5 -75.5t84.5 -211.5z" />
    <glyph glyph-name="uni1B1C" unicode="&#x1b1c;" horiz-adv-x="1261" 
d="M674 -11l-3 13q64 48 72 182q-1 149 -110 158h-25q-80 -9 -128 -72h-2q-48 63 -128 72h-24q-85 -7 -104 -96l-2 -44q0 -125 85 -193l-10 -14q-76 16 -143 46q-82 35 -82 122q0 49 30 105q25 40 25 60q0 18 -22 18q-35 0 -35 -49q0 -17 5 -41l-14 -2q-14 37 -14 74
q0 112 74 112q61 -4 61 -62q0 -36 -36 -91t-36 -92q0 -60 96 -95q-15 35 -19 94q3 240 138 245q55 0 92 -29t64 -87q26 56 60.5 86t96.5 30q136 -6 136 -250q-6 -87 -28 -138q50 23 83 153q23 119 67.5 175.5t120.5 62.5l16 1q76 0 124.5 -54t55.5 -164v-14q0 -104 -56 -161
t-135 -57q-50 0 -108 25l4 15q39 -9 73 -9q81 0 130 39.5t55 119.5q-11 167 -156 167q-117 0 -156 -143q-28 -108 -72 -158t-116 -60z" />
    <glyph glyph-name="uni1B1D" unicode="&#x1b1d;" horiz-adv-x="869" 
d="M819 0h-30v184q-1 150 -110 158h-25q-80 -9 -128 -72q-50 63 -129 72h-25q-110 -8 -130 -84l-17 3q4 172 144 178q53 0 90.5 -28t66.5 -88q25 56 59.5 86t96.5 30q135 -4 137 -254v-185zM227 93q120 0 120 50q0 2 -1.5 19t-36.5 23q-82 0 -101 -91zM320 -248
q-146 2 -150 244q-92 18 -108 131l-2 21q0 54 41 120q25 40 25 59t-23 19q-35 0 -35 -50q0 -17 4 -40l-13 -2q-14 37 -14 74q0 112 74 112q61 -4 61 -62q0 -36 -37 -92q-41 -62 -41 -107l1 -15q8 -51 75 -70q19 122 123 124q84 -2 84 -76q0 -64 -48 -104.5t-131 -40.5
q0 -60 33.5 -103.5t80.5 -43.5q93 0 136 95l14 -5q-29 -186 -150 -188z" />
    <glyph glyph-name="uni1B1E" unicode="&#x1b1e;" horiz-adv-x="869" 
d="M217 -4q-136 2 -155 131l-2 21q0 54 41 120q25 40 25 59t-23 19q-35 0 -35 -50q0 -17 4 -40l-13 -2q-14 37 -14 74q0 112 74 112q61 -4 61 -62q0 -36 -37 -92q-41 -62 -41 -101l1 -12q15 -79 128 -79q106 0 134 103l16 -4q-6 -195 -164 -197zM819 0h-30v184
q-1 150 -110 158h-25q-80 -9 -128 -72q-50 63 -129 72h-25q-110 -8 -130 -84l-17 3q4 172 144 178q53 0 90.5 -28t66.5 -88q25 56 59.5 86t96.5 30q135 -4 137 -254v-185z" />
    <glyph glyph-name="uni1B1F" unicode="&#x1b1f;" horiz-adv-x="711" 
d="M444 -4h-7q-62 155 -126 155q-44 0 -65.5 -76t-89.5 -79h-6q-101 2 -101 116v13q2 64 51 143q25 40 25 60q0 18 -22 18q-35 0 -35 -50q0 -17 4 -40l-13 -2q-14 37 -14 74q0 112 74 112q61 -4 61 -62q0 -36 -37 -92q-47 -71 -47 -114q0 -75 81 -78q52 1 73.5 60t70.5 59
q100 0 142 -129q50 0 50 150v208q143 -11 148 -169v-273h-30v198q-3 135 -88 144v-155q0 -189 -99 -191z" />
    <glyph glyph-name="uni1B20" unicode="&#x1b20;" horiz-adv-x="638" 
d="M460 94h4q40 0 67 36.5t27 103.5q-1 99 -71 200l11 9q90 -105 90 -213v-9q0 -223 -144 -225h-7q-62 155 -126 155q-44 0 -65.5 -76t-89.5 -79h-6q-101 2 -101 116v13q2 64 51 143q25 40 25 60q0 18 -22 18q-35 0 -35 -50q0 -17 4 -40l-13 -2q-14 37 -14 74q0 112 74 112
q61 -4 61 -62q0 -36 -37 -92q-47 -71 -47 -114q0 -75 81 -78q52 1 73.5 60t70.5 59q96 0 139 -119z" />
    <glyph glyph-name="uni1B21" unicode="&#x1b21;" horiz-adv-x="908" 
d="M858 0h-30v198q-3 135 -87 144v-184q-1 -157 -54 -158q-55 1 -55 158v88q-7 96 -100 96q-90 0 -132 -142q-42 141 -145 141q-99 0 -99 -141q-105 10 -117 96l-2 16q0 76 48 141l13 -6q-22 -38 -22 -82v-10q6 -56 68 -68q20 153 114 153q104 0 142 -165q37 165 145 165
q118 0 118 -189v-120q0 -68 23 -71q23 3 24 71v311q143 -11 148 -169v-273z" />
    <glyph glyph-name="uni1B22" unicode="&#x1b22;" horiz-adv-x="789" 
d="M260 -4h-6q-173 2 -192 131l-2 21q0 54 41 120q25 40 25 59t-23 19q-35 0 -35 -49q0 -17 5 -41l-13 -2q-15 38 -15 76q0 110 74 110q62 -4 62 -62q0 -36 -37 -92q-48 -72 -50 -117q0 -43 38.5 -59t138.5 -16q162 2 164 54q0 51 -110 51q-60 0 -126 -21q-10 41 -10 78
l1 23q3 46 31 91q42 68 119 70h20q184 -2 184 -258v-51q1 -68 24 -71q22 3 23 71v311q144 -11 148 -169v-273h-30v198q-3 135 -87 144v-184q0 -157 -53 -158h-2q-53 1 -54 158v30q-3 81 -47 124.5t-124 43.5q-121 0 -131 -116q63 37 118 37q57 0 97 -33t40 -100
q-6 -146 -206 -148z" />
    <glyph glyph-name="uni1B23" unicode="&#x1b23;" horiz-adv-x="603" 
d="M231 -4q-151 2 -170 131l-2 21q0 54 41 120q25 40 25 60q0 18 -22 18q-35 0 -35 -50q0 -17 4 -40l-13 -2q-14 37 -14 74q0 112 74 112q61 -4 61 -62q0 -36 -37 -92q-41 -62 -41 -101l1 -12q8 -41 37.5 -60t90.5 -19q77 0 120.5 36.5t43.5 103.5q-1 79 -59 114
q-27 10 -53 10q-21 0 -42 -7q26 90 121 90q191 0 191 -293v-148h-30v154q-3 219 -168 221q71 -39 71 -143v-11q0 -223 -195 -225zM445 6q-70 123 -128 181t-129 97l23 59q79 -28 143 -112t107 -215z" />
    <glyph glyph-name="uni1B24" unicode="&#x1b24;" horiz-adv-x="758" 
d="M382 31q44 0 44 37v7q-5 48 -52 53l-19 1q-33 0 -51 -14q12 -80 70 -84h8zM389 -3q-89 2 -116 93l-84 -66q-29 -24 -66 -25q-78 0 -78 85l2 23q7 56 70 129.5t63 98.5q0 19 -33 19q-48 0 -76 -70l-10 4q6 70 33 111.5t64 41.5q71 0 71 -66v-7q-3 -55 -73 -135t-70 -125
q0 -29 24 -29l10 1q25 4 143 85v80q12 193 222 196q223 -3 223 -220v-221h-30v189q-7 154 -192 154q-184 0 -184 -126v-30q26 11 60 11l21 -1q96 -10 96 -100q0 -100 -90 -100z" />
    <glyph glyph-name="uni1B25" unicode="&#x1b25;" horiz-adv-x="745" 
d="M444 -4h-6q-63 155 -126 155q-44 0 -65.5 -76t-89.5 -79h-6q-101 2 -101 116v13q2 64 51 143q25 40 25 59t-23 19q-35 0 -35 -49q0 -17 5 -41l-13 -2q-15 38 -15 76q0 110 74 110q62 -4 62 -62q0 -36 -37 -92q-47 -71 -47 -114q0 -76 81 -78q51 1 72.5 60t71.5 59
q99 0 142 -129q30 10 52 46.5t22 103.5q-1 79 -59 114q-28 10 -54 10q-21 0 -42 -7q27 90 121 90q191 0 191 -293v-148h-30v154q-3 219 -168 221q71 -39 71 -143v-11q0 -223 -124 -225z" />
    <glyph glyph-name="uni1B26" unicode="&#x1b26;" horiz-adv-x="767" 
d="M441 20q82 0 82 51q-2 33 -70.5 57t-146.5 27v-5q0 -44 26 -80.5t81 -47.5zM127 29l11 1q43 10 49 119q-83 -13 -91 -80q0 -40 31 -40zM449 -9q-80 0 -124 39q-53 46 -55 128q-25 0 -54 -3q-3 -157 -87 -157q-67 0 -73 72q0 64 41.5 103.5t90.5 47.5v31q-6 96 -57 96
q-46 0 -46 -61q1 -38 15 -68l-17 -6q-38 56 -38 133q0 92 77 92q92 -2 92 -153v-57q22 4 57 6v10q2 194 222 196q219 -2 223 -242v-167l-30 127v30q-2 154 -192 154q-185 0 -185 -106q121 -2 193.5 -42.5t72.5 -101.5q-3 -46 -36.5 -73.5t-89.5 -27.5zM716 131v-131h-30v158
z" />
    <glyph glyph-name="uni1B27" unicode="&#x1b27;" horiz-adv-x="594" 
d="M232 -4q-151 2 -170 131l-2 21q0 54 41 120q25 40 25 59t-23 19q-35 0 -35 -49q0 -17 5 -41l-13 -2q-15 38 -15 76q0 110 74 110q62 -4 62 -62q0 -36 -37 -92q-41 -62 -41 -101l1 -12q13 -79 128 -79q76 0 120 36.5t44 103.5v208q143 -11 148 -169v-273h-30v198
q-3 135 -87 144v-155q0 -86 -52.5 -138t-142.5 -53z" />
    <glyph glyph-name="uni1B28" unicode="&#x1b28;" horiz-adv-x="741" 
d="M502 383q22 0 44 7q-43 91 -100 91q-40 -2 -40 -36q0 -26 27 -44t69 -18zM444 -4h-6q-63 155 -126 155q-44 0 -65.5 -76t-89.5 -79h-6q-101 2 -101 116v13q2 64 51 143q25 40 25 59t-23 19q-35 0 -35 -49q0 -17 5 -41l-13 -2q-15 38 -15 76q0 110 74 110q62 -4 62 -62
q0 -36 -37 -92q-47 -71 -47 -114q0 -76 81 -78q51 1 72.5 60t71.5 59q94 0 137 -115q44 7 73 29q44 32 49 85l2 33q0 31 -7 52l-35 -4q-82 2 -126.5 39.5t-47.5 86.5v12q0 81 79 81q77 0 131 -112q79 43 109 129h12l2 -37q0 -119 -92 -176q11 -41 11 -89q0 -108 -53.5 -169
t-118.5 -62h-3z" />
    <glyph glyph-name="uni1B29" unicode="&#x1b29;" horiz-adv-x="1021" 
d="M674 -11l-3 13q64 48 72 182q-1 149 -110 158h-25q-80 -9 -128 -72h-2q-48 63 -128 72h-24q-85 -7 -104 -96l-2 -44q0 -125 85 -193l-10 -14q-76 16 -143 46q-82 35 -82 122q0 49 30 105q25 40 25 60q0 18 -22 18q-35 0 -35 -49q0 -17 5 -41l-14 -2q-14 37 -14 74
q0 112 74 112q61 -4 61 -62q0 -36 -36 -91t-36 -92q0 -60 96 -95q-15 35 -19 94q3 240 138 245q55 0 92 -29t64 -87q26 56 60.5 86t96.5 30q136 -6 136 -250q-6 -87 -28 -138q70 35 79 183v208q143 -11 148 -169v-273h-30v198q-3 135 -88 144v-116q-8 -213 -179 -237z" />
    <glyph glyph-name="uni1B2A" unicode="&#x1b2a;" horiz-adv-x="764" 
d="M227 231q-82 123 -169 123l-16 -1q25 83 51 83q74 0 149 -197zM279 90l-84 -66q-29 -24 -67 -25q-77 0 -83 78v7q0 78 123 161l11 -11q-87 -90 -87 -130q0 -25 24 -25l10 1q10 2 33 14l110 71zM388 31q44 0 44 37v7q-5 48 -52 53l-19 1q-33 0 -51 -14q12 -80 70 -84h8z
M395 -3q-89 2 -116 93l-10 75v80q12 193 222 196q223 -3 223 -220v-221h-30v189q-7 154 -192 154q-184 0 -184 -126v-30q26 11 60 11l21 -1q96 -10 96 -100q0 -100 -90 -100z" />
    <glyph glyph-name="uni1B2B" unicode="&#x1b2b;" horiz-adv-x="698" 
d="M340 -4q-84 2 -136 35.5t-52 95.5q0 60 61 90l9 3l-9 3q-61 29 -61 94q0 67 66 92q-54 -4 -93.5 -47.5t-39.5 -123.5q0 -46 12 -97l-14 -11q-32 39 -38 125q6 185 271 185h70v-98h-35q-150 0 -150 -58q0 -44 123 -48h60v-33h-60q-123 -4 -123 -48q0 -57 130 -61
q169 0 169 140v208q143 -11 148 -169v-273h-30v198q-3 135 -87 144v-155q0 -189 -191 -191z" />
    <glyph glyph-name="uni1B2C" unicode="&#x1b2c;" horiz-adv-x="858" 
d="M567 -4h-8q-79 1 -122.5 67t-57.5 154q-32 -219 -179 -221h-6q-129 3 -138 126v13q0 61 44 133q25 40 25 60q0 18 -22 18q-35 0 -35 -50q0 -17 4 -40l-13 -2q-14 37 -14 74q0 112 74 112q61 -4 61 -62q0 -36 -37 -92q-41 -62 -41 -101l1 -12q8 -41 37.5 -60t63.5 -19h5
q79 0 116 76t41 269h26q4 -193 41 -269t127 -76q46 0 73 36.5t27 103.5v208q143 -11 148 -169v-273h-30v198q-3 135 -87 144v-155q0 -189 -124 -191z" />
    <glyph glyph-name="uni1B2D" unicode="&#x1b2d;" horiz-adv-x="653" 
d="M134 -3l-16 1q67 76 67 189q0 110 -68 160q-31 -11 -57 -46l-15 3q16 90 81 144q51 -51 70.5 -106.5t19.5 -139.5l-1 -33q-6 -52 -24 -101q57 12 64 117v60q12 193 174 196q174 -3 174 -220v-221h-30v189q-8 154 -144 154q-137 0 -144 -129v-7q0 -210 -151 -210z" />
    <glyph glyph-name="uni1B2E" unicode="&#x1b2e;" horiz-adv-x="892" 
d="M569 -4q-152 2 -152 186v21q0 139 -95 139q-97 0 -104 -154q-7 -122 -27 -156t-59 -34q-35 0 -57 26.5t-22 79.5q0 39 12 81t36.5 82.5t24.5 59.5t-23 19q-35 0 -35 -49q0 -17 5 -41l-13 -2q-15 38 -15 76q0 110 74 110q62 -4 62 -62q0 -36 -37 -92q-59 -88 -59 -148
q0 -49 42 -49q30 0 47.5 29t17.5 80q0 242 131 242q119 0 119 -226v-23q0 -97 127 -97q125 0 125 140v208q143 -11 148 -169v-273h-30v198q-3 135 -87 144v-155q0 -86 -40 -138t-116 -53z" />
    <glyph glyph-name="uni1B2F" unicode="&#x1b2f;" horiz-adv-x="603" 
d="M231 -4q-151 2 -170 131l-2 21q0 54 41 120q25 40 25 60q0 18 -22 18q-35 0 -35 -50q0 -17 4 -40l-13 -2q-14 37 -14 74q0 112 74 112q61 -4 61 -62q0 -36 -37 -92q-41 -62 -41 -101l1 -12q8 -41 37.5 -60t90.5 -19q77 0 120.5 36.5t43.5 103.5q-1 79 -59 114
q-27 10 -53 10q-21 0 -42 -7q26 90 121 90q191 0 191 -293v-148h-30v154q-3 219 -168 221q71 -39 71 -143v-11q0 -223 -195 -225z" />
    <glyph glyph-name="uni1B30" unicode="&#x1b30;" horiz-adv-x="872" 
d="M480 -5q-47 148 -164 264l48 49q67 -54 96 -135t38 -173zM526 -11l-4 13q65 48 72 182q0 149 -183 158h-12q-158 -7 -177 -145l-2 -31q0 -89 85 -157l-10 -14q-76 16 -143 46q-82 35 -82 122q0 49 30 105q25 40 25 60q0 18 -22 18q-35 0 -35 -49q0 -17 5 -41l-14 -2
q-14 37 -14 74q0 112 74 112q61 -4 61 -62q0 -36 -36.5 -91t-36.5 -93q0 -59 97 -94q-15 35 -19 94q3 240 211 245h18q210 -6 210 -253q-6 -84 -28 -135q70 35 78 183v208q143 -11 148 -169v-273h-30v198q-3 135 -87 144v-116q-10 -213 -179 -237z" />
    <glyph glyph-name="uni1B31" unicode="&#x1b31;" horiz-adv-x="594" 
d="M465 6q-70 123 -128 181t-129 97l23 59q79 -28 143 -112t107 -215zM232 -4q-151 2 -170 131l-2 21q0 54 41 120q25 40 25 59t-23 19q-35 0 -35 -49q0 -17 5 -41l-13 -2q-15 38 -15 76q0 110 74 110q62 -4 62 -62q0 -36 -37 -92q-41 -62 -41 -101l1 -12q13 -79 128 -79
q76 0 120 36.5t44 103.5v208q143 -11 148 -169v-273h-30v198q-3 135 -87 144v-155q0 -86 -52.5 -138t-142.5 -53z" />
    <glyph glyph-name="uni1B32" unicode="&#x1b32;" horiz-adv-x="691" 
d="M108 28l14 2q44 10 67 99q-16 4 -30 4q-31 0 -55 -19.5t-24 -49.5v-8q3 -28 28 -28zM431 -4h-9q-48 0 -99 49q-57 53 -105 77q-12 -53 -41.5 -89t-68.5 -36q-63 0 -63 71l2 26q18 114 159 114q9 59 9 91q0 66 -55 66q-49 0 -54 -51v-6q0 -28 23 -66l-8 -10
q-52 45 -52 112v12q4 75 65 87l24 2q89 0 89 -115q0 -51 -14 -128q49 -12 109.5 -63t93.5 -60l15 -2q42 0 42 113v252q143 -11 148 -169v-273h-30v198q-3 135 -87 144v-165q-5 -94 -23 -135.5t-70 -45.5z" />
    <glyph glyph-name="uni1B33" unicode="&#x1b33;" horiz-adv-x="883" 
d="M232 -4q-151 2 -170 131l-2 21q0 54 41 120q25 40 25 59t-23 19q-35 0 -35 -49q0 -17 5 -41l-13 -2q-15 38 -15 76q0 110 74 110q61 -4 61 -62q0 -37 -36 -92q-41 -62 -41 -101l1 -12q13 -79 128 -79q136 0 136 97v23q0 226 134 226q135 0 136 -242v-67q0 -68 23 -71
q23 3 24 71v311q143 -11 148 -169v-273h-30v198q-3 135 -87 144v-184q-1 -157 -54 -158q-55 1 -55 158v30q-7 154 -104 154q-110 0 -110 -139v-21q0 -96 -47.5 -140.5t-113.5 -45.5z" />
    <glyph glyph-name="uni1B34" unicode="&#x1b34;" 
d="M-573 530q-62 0 -62 51q0 18 8 43q19 -47 101 -47l25 1q-29 -44 -63 -47zM-413 530q-62 0 -62 51q0 18 8 43q19 -47 101 -47l25 1q-29 -44 -63 -47zM-513 640q-62 0 -62 51q0 18 8 43q19 -47 101 -47l25 1q-29 -44 -63 -47z" />
    <glyph glyph-name="uni1B35" unicode="&#x1b35;" horiz-adv-x="488" 
d="M245 -15q-88 0 -101 130l16 10q61 -58 141 -58q82 1 111 46t29 86q-3 142 -186 143q-181 0 -248 -57l-13 12q86 141 260 143h21q192 -27 192 -223q0 -138 -106 -204q-59 -28 -116 -28z" />
    <glyph glyph-name="uni1B36" unicode="&#x1b36;" 
d="M-381 529q-115 46 -212 169l21 22q61 -67 92 -89q-26 48 -26 95l2 23q10 71 61 115t120 44q75 0 125 -50t50 -126v-10q-4 -64 -30.5 -106t-77.5 -83l-13 12q59 69 64 126l1 24q0 58 -33.5 91.5t-93.5 33.5l-26 -2q-92 -17 -98 -110l-1 -14q0 -86 85 -141z" />
    <glyph glyph-name="uni1B37" unicode="&#x1b37;" 
d="M-296 551q-45 123 -106 180l42 50q74 -50 80 -222zM-381 529q-115 46 -212 169l21 22q61 -67 92 -89q-26 48 -26 95l2 23q10 71 61 115t120 44q75 0 125 -50t50 -126v-10q-4 -64 -30.5 -106t-77.5 -83l-13 12q59 69 64 126l1 24q0 58 -33.5 91.5t-93.5 33.5l-26 -2
q-92 -17 -98 -110l-1 -14q0 -86 85 -141z" />
    <glyph glyph-name="uni1B38" unicode="&#x1b38;" 
d="M-81 -69q-28 -70 -66 -148t-116.5 -210t-78.5 -202l1 -17q11 -43 65 -43l14 1q159 12 181 619zM-80 1h30v-12q0 -788 -271 -794q-88 8 -93 109q1 108 101 263t165 277t68 157z" />
    <glyph glyph-name="uni1B39" unicode="&#x1b39;" 
d="M-398 -804q-69 0 -69 125q0 54 19 132l17 -3q7 -154 59 -165l13 -2q45 0 78.5 99t33.5 173q0 88 -112.5 121.5t-112.5 110.5v4q2 80 93 177l18 -15q-58 -59 -60 -119v-3q0 -59 115.5 -85t115.5 -132t-69 -261.5t-139 -156.5z" />
    <glyph glyph-name="uni1B3A" unicode="&#x1b3a;" 
d="M-446 -805q-180 0 -287 115.5t-107 301.5q0 99 32 213l17 -3q-16 -84 -16 -156q0 -373 366 -373q360 0 360 317q0 206 -73 347l17 10q88 -182 88 -365t-106 -295t-291 -112zM-154 -611q-48 148 -156 240l38 64q57 -48 91.5 -127.5t43.5 -171.5z" />
    <glyph glyph-name="uni1B3B" unicode="&#x1b3b;" horiz-adv-x="488" 
d="M245 -15q-88 0 -101 130l16 10q61 -58 141 -58q82 1 111 46t29 86q-3 142 -186 143q-181 0 -248 -57l-13 12q86 141 260 143h21q192 -27 192 -223q0 -138 -106 -204q-59 -28 -116 -28zM-446 -805q-180 0 -287 115.5t-107 301.5q0 99 32 213l17 -3q-16 -84 -16 -156
q0 -373 366 -373q360 0 360 317q0 206 -73 347l17 10q88 -182 88 -365t-106 -295t-291 -112zM-154 -611q-48 148 -156 240l38 64q57 -48 91.5 -127.5t43.5 -171.5z" />
    <glyph glyph-name="uni1B3C" unicode="&#x1b3c;" 
d="M-387 550q79 353 352 353q144 0 238 -110v-7l-462 -172l-13 24l323 137q-35 46 -118 46q-30 0 -67 -6q-167 -24 -231 -303q-182 22 -182 178v38l25 2q13 -141 135 -180zM-558 -545q-115 45 -212 169l21 22q61 -67 92 -89q-18 38 -18 95v11q2 74 42.5 122.5t107.5 48.5
q96 0 134 -77l39 -87q17 -41 48 -77t103 -36q120 0 120 140v208h31v-255q0 -191 -151 -191q-101 0 -153 138q-36 90 -59 113q-34 36 -95 36l-26 -2q-93 -17 -97 -112v-12q0 -87 83 -141z" />
    <glyph glyph-name="uni1B3D" unicode="&#x1b3d;" horiz-adv-x="488" 
d="M245 -15q-88 0 -101 130l16 10q61 -58 141 -58q82 1 111 46t29 86q-3 142 -186 143q-181 0 -248 -57l-13 12q86 141 260 143h21q192 -27 192 -223q0 -138 -106 -204q-59 -28 -116 -28zM-387 550q79 353 352 353q144 0 238 -110v-7l-462 -172l-13 24l323 137
q-35 46 -118 46q-30 0 -67 -6q-167 -24 -231 -303q-182 22 -182 178v38l25 2q13 -141 135 -180zM-558 -545q-115 45 -212 169l21 22q61 -67 92 -89q-18 38 -18 95v11q2 74 42.5 122.5t107.5 48.5q96 0 134 -77l39 -87q17 -41 48 -77t103 -36q120 0 120 140v208h31v-255
q0 -191 -151 -191q-101 0 -153 138q-36 90 -59 113q-34 36 -95 36l-26 -2q-93 -17 -97 -112v-12q0 -87 83 -141z" />
    <glyph glyph-name="uni1B3E" unicode="&#x1b3e;" horiz-adv-x="521" 
d="M327 -799q-104 166 -104 346q0 110 43 221q96 218 123 304.5t27 142.5q0 129 -118 129q-131 0 -131 -157v-8l-11 -2q-51 143 -111 179l9 16q74 -27 98 -82q22 152 156 152q163 0 163 -163q0 -105 -67 -276l-80 -266q-32 -109 -32 -220q0 -153 54 -304z" />
    <glyph glyph-name="uni1B3F" unicode="&#x1b3f;" horiz-adv-x="521" 
d="M327 -799q-104 166 -104 346q0 110 43 221q96 218 123 304.5t27 142.5q0 129 -118 129q-131 0 -131 -157v-8l-11 -2q-51 143 -111 179l9 16q74 -27 98 -82q22 152 156 152q163 0 163 -163q0 -105 -67 -276l-80 -266q-32 -109 -32 -220q0 -153 54 -304zM303 524
q-107 0 -167 95l13 13q64 -49 144 -49q79 1 79 40v3q-3 41 -103.5 60.5t-105.5 84.5q2 73 82 77h8q73 0 115 -52l-9 -11q-44 28 -88 28h-6q-47 -2 -57 -35v-6q0 -35 70 -51q136 -24 136 -107v-4q-3 -86 -111 -86z" />
    <glyph glyph-name="uni1B40" unicode="&#x1b40;" horiz-adv-x="1458" 
d="M928 419q0 -24 -24 -24q-25 0 -25 24t25 24q24 0 24 -24zM855 467q0 -24 -23 -24q-26 0 -26 24q0 25 26 25q23 0 23 -25zM976 347q0 -25 -25 -25q-24 0 -24 25q0 24 25 24q24 0 24 -24zM993 262q0 -25 -23 -25q-25 0 -25 25q0 24 25 24q23 0 23 -24zM770 485
q0 -25 -24 -25q-25 0 -25 25q0 24 25 24q24 0 24 -24zM686 467q0 -24 -25 -24q-24 0 -24 24q0 25 24 25q25 0 25 -25zM976 177q0 -24 -25 -24q-24 0 -24 24q0 25 24 25q25 0 25 -25zM614 419q0 -24 -25 -24q-24 0 -24 22q0 26 24 26q25 0 25 -24zM928 104q0 -24 -24 -24
q-25 0 -25 24t25 24q24 0 24 -24zM855 56q0 -24 -23 -24q-26 0 -26 24q0 25 26 25q23 0 23 -25zM565 347q0 -25 -23 -25q-26 0 -26 25q0 24 25 24q24 0 24 -24zM548 262q0 -25 -24 -25q-25 0 -25 25q0 24 25 24q24 0 24 -24zM770 40q0 -25 -24 -25q-25 0 -25 25q0 23 25 23
q24 0 24 -23zM565 177q0 -24 -24 -24q-25 0 -25 24q0 25 25 25q24 0 24 -25zM686 58q0 -26 -25 -26q-24 0 -24 24q0 25 24 25q25 0 25 -23zM614 104q0 -24 -25 -24q-24 0 -24 24t24 24q25 0 25 -24zM1256 -15q-88 0 -101 130l16 10q61 -58 141 -58q82 1 111 46t29 86
q-3 142 -186 143q-181 0 -248 -57l-13 12q86 141 260 143h21q192 -27 192 -223q0 -138 -106 -204q-59 -28 -116 -28zM327 -799q-104 166 -104 346q0 110 43 221q96 218 123 304.5t27 142.5q0 129 -118 129q-131 0 -131 -157v-8l-11 -2q-51 143 -111 179l9 16q74 -27 98 -82
q22 152 156 152q163 0 163 -163q0 -105 -67 -276l-80 -266q-32 -109 -32 -220q0 -153 54 -304z" />
    <glyph glyph-name="uni1B41" unicode="&#x1b41;" horiz-adv-x="1458" 
d="M327 -799q-104 166 -104 346q0 110 43 221q96 218 123 304.5t27 142.5q0 129 -118 129q-131 0 -131 -157v-8l-11 -2q-51 143 -111 179l9 16q74 -27 98 -82q22 152 156 152q163 0 163 -163q0 -105 -67 -276l-80 -266q-32 -109 -32 -220q0 -153 54 -304zM303 524
q-107 0 -167 95l13 13q64 -49 144 -49q79 1 79 40v3q-3 41 -103.5 60.5t-105.5 84.5q2 73 82 77h8q73 0 115 -52l-9 -11q-44 28 -88 28h-6q-47 -2 -57 -35v-6q0 -35 70 -51q136 -24 136 -107v-4q-3 -86 -111 -86zM928 419q0 -24 -24 -24q-25 0 -25 24t25 24q24 0 24 -24z
M855 467q0 -24 -23 -24q-26 0 -26 24q0 25 26 25q23 0 23 -25zM976 347q0 -25 -25 -25q-24 0 -24 25q0 24 25 24q24 0 24 -24zM993 262q0 -25 -23 -25q-25 0 -25 25q0 24 25 24q23 0 23 -24zM770 485q0 -25 -24 -25q-25 0 -25 25q0 24 25 24q24 0 24 -24zM686 467
q0 -24 -25 -24q-24 0 -24 24q0 25 24 25q25 0 25 -25zM976 177q0 -24 -25 -24q-24 0 -24 24q0 25 24 25q25 0 25 -25zM614 419q0 -24 -25 -24q-24 0 -24 22q0 26 24 26q25 0 25 -24zM928 104q0 -24 -24 -24q-25 0 -25 24t25 24q24 0 24 -24zM855 56q0 -24 -23 -24
q-26 0 -26 24q0 25 26 25q23 0 23 -25zM565 347q0 -25 -23 -25q-26 0 -26 25q0 24 25 24q24 0 24 -24zM548 262q0 -25 -24 -25q-25 0 -25 25q0 24 25 24q24 0 24 -24zM770 40q0 -25 -24 -25q-25 0 -25 25q0 23 25 23q24 0 24 -23zM565 177q0 -24 -24 -24q-25 0 -25 24
q0 25 25 25q24 0 24 -25zM686 58q0 -26 -25 -26q-24 0 -24 24q0 25 24 25q25 0 25 -23zM614 104q0 -24 -25 -24q-24 0 -24 24t24 24q25 0 25 -24zM1256 -15q-88 0 -101 130l16 10q61 -58 141 -58q82 1 111 46t29 86q-3 142 -186 143q-181 0 -248 -57l-13 12q86 141 260 143
h21q192 -27 192 -223q0 -138 -106 -204q-59 -28 -116 -28z" />
    <glyph glyph-name="uni1B42" unicode="&#x1b42;" 
d="M-465 550q79 353 352 353q144 0 238 -110v-7l-462 -172l-13 24l323 137q-35 46 -118 46q-30 0 -67 -6q-167 -24 -231 -303q-182 22 -182 178v38l25 2q13 -141 135 -180z" />
    <glyph glyph-name="uni1B43" unicode="&#x1b43;" horiz-adv-x="488" 
d="M-465 550q79 353 352 353q144 0 238 -110v-7l-462 -172l-13 24l323 137q-35 46 -118 46q-30 0 -67 -6q-167 -24 -231 -303q-182 22 -182 178v38l25 2q13 -141 135 -180zM245 -15q-88 0 -101 130l16 10q61 -58 141 -58q82 1 111 46t29 86q-3 142 -186 143q-181 0 -248 -57
l-13 12q86 141 260 143h21q192 -27 192 -223q0 -138 -106 -204q-59 -28 -116 -28z" />
    <glyph glyph-name="uni1B44" unicode="&#x1b44;" horiz-adv-x="267" 
d="M185 -801q-155 134 -165 391l-1 54q0 251 93 517q65 192 65 318q0 115 -45 173t-135 58q-152 0 -198 -223l-18 5v2q20 305 222 305q220 0 220 -273q0 -144 -70 -364q-64 -250 -64 -467q0 -323 110 -481z" />
    <glyph glyph-name="uni1B45" unicode="&#x1b45;" horiz-adv-x="962" 
d="M441 20q82 0 82 51q-2 33 -70.5 57t-146.5 27v-5q0 -44 26 -80.5t81 -47.5zM127 29l11 1q43 10 49 119q-83 -13 -91 -80q0 -40 31 -40zM449 -9q-80 0 -124 39q-53 46 -55 128q-25 0 -54 -3q-3 -157 -87 -157q-67 0 -73 72q0 64 41.5 103.5t90.5 47.5v31q-6 96 -57 96
q-46 0 -46 -61q1 -38 15 -68l-17 -6q-38 56 -38 133q0 92 77 92q92 -2 92 -153v-57q22 4 57 6v10q2 194 222 196q219 -2 224 -242v-67q0 -68 23 -71q23 3 24 71v311q143 -11 148 -169v-273h-30v198q-3 135 -87 144v-184q0 -157 -54 -158q-54 1 -55 158v30q-2 154 -192 154
q-185 0 -185 -106q121 -2 193.5 -42.5t72.5 -101.5q-3 -46 -36.5 -73.5t-89.5 -27.5zM307 -255h-6q-121 0 -121 145q0 62 33 139.5t92 163.5l16 -9q-96 -152 -96 -263q0 -100 83 -101q66 0 110 67l16 -8q-32 -132 -127 -134z" />
    <glyph glyph-name="uni1B46" unicode="&#x1b46;" horiz-adv-x="1504" 
d="M441 20q82 0 82 51q-2 33 -70.5 57t-146.5 27v-5q0 -44 26 -80.5t81 -47.5zM127 29l11 1q43 10 49 119q-83 -13 -91 -80q0 -40 31 -40zM449 -9q-80 0 -124 39q-53 46 -55 128q-25 0 -54 -3q-3 -157 -87 -157q-67 0 -73 72q0 64 41.5 103.5t90.5 47.5v31q-6 96 -57 96
q-46 0 -46 -61q1 -38 15 -68l-17 -6q-38 56 -38 133q0 92 77 92q92 -2 92 -153v-57q22 4 57 6v10q2 194 222 196q219 -2 224 -242v-67l-31 47v10q-2 154 -192 154q-185 0 -185 -106q121 -2 193.5 -42.5t72.5 -101.5q-3 -46 -36.5 -73.5t-89.5 -27.5zM686 174v14l31 10v-23
q1 -43 37.5 -62t94.5 -19h6q74 0 104 27t30 70v23q0 226 134 226q135 0 136 -242v-67q0 -68 23 -71q23 3 24 71v311q143 -11 148 -169v-273h-31v198q-3 135 -86 144v-184q-1 -157 -54 -158h-2q-53 1 -53 158v30q-8 154 -105 154q-110 0 -110 -139v-21q0 -96 -47 -140.5
t-111 -45.5h-6q-75 1 -116 42.5t-47 135.5z" />
    <glyph glyph-name="uni1B47" unicode="&#x1b47;" horiz-adv-x="789" 
d="M260 -4h-6q-173 2 -192 131l-2 21q0 54 41 120q25 40 25 59t-23 19q-35 0 -35 -49q0 -17 5 -41l-13 -2q-15 38 -15 76q0 110 74 110q62 -4 62 -62q0 -36 -37 -92q-48 -72 -50 -117q0 -43 38.5 -59t138.5 -16q162 2 164 54q0 51 -110 51q-60 0 -126 -21q-10 41 -10 78
l1 23q3 46 31 91q42 68 119 70h20q184 -2 184 -258v-51q1 -68 24 -71q22 3 23 71v311q144 -11 148 -169v-273h-30v198q-3 135 -87 144v-184q0 -157 -53 -158h-2q-53 1 -54 158v30q-3 81 -47 124.5t-124 43.5q-121 0 -131 -116q63 37 118 37q57 0 97 -33t40 -100
q-6 -146 -206 -148zM277 -255h-6q-121 0 -121 145q0 62 33 139.5t92 163.5l16 -9q-96 -152 -96 -263q0 -100 83 -101q66 0 110 67l16 -8q-32 -132 -127 -134z" />
    <glyph glyph-name="uni1B48" unicode="&#x1b48;" horiz-adv-x="594" 
d="M232 -4q-151 2 -170 131l-2 21q0 54 41 120q25 40 25 59t-23 19q-35 0 -35 -49q0 -17 5 -41l-13 -2q-15 38 -15 76q0 110 74 110q62 -4 62 -62q0 -36 -37 -92q-41 -62 -41 -101l1 -12q13 -79 128 -79q76 0 120 36.5t44 103.5v208q143 -11 148 -169v-273h-30v198
q-3 135 -87 144v-155q0 -86 -52.5 -138t-142.5 -53zM277 -255h-6q-121 0 -121 145q0 62 33 139.5t92 163.5l16 -9q-96 -152 -96 -263q0 -100 83 -101q66 0 110 67l16 -8q-32 -132 -127 -134z" />
    <glyph glyph-name="uni1B49" unicode="&#x1b49;" horiz-adv-x="603" 
d="M231 -4q-151 2 -170 131l-2 21q0 54 41 120q25 40 25 60q0 18 -22 18q-35 0 -35 -50q0 -17 4 -40l-13 -2q-14 37 -14 74q0 112 74 112q61 -4 61 -62q0 -36 -37 -92q-41 -62 -41 -101l1 -12q8 -41 37.5 -60t90.5 -19q77 0 120.5 36.5t43.5 103.5q-1 79 -59 114
q-27 10 -53 10q-21 0 -42 -7q26 90 121 90q191 0 191 -293v-148h-30v154q-3 219 -168 221q71 -39 71 -143v-11q0 -223 -195 -225zM277 -255h-6q-121 0 -121 145q0 62 33 139.5t92 163.5l16 -9q-96 -152 -96 -263q0 -100 83 -101q66 0 110 67l16 -8q-32 -132 -127 -134z" />
    <glyph glyph-name="uni1B4A" unicode="&#x1b4a;" horiz-adv-x="691" 
d="M108 28l14 2q44 10 67 99q-16 4 -30 4q-31 0 -55 -19.5t-24 -49.5v-8q3 -28 28 -28zM431 -4h-9q-48 0 -99 49q-57 53 -105 77q-12 -53 -41.5 -89t-68.5 -36q-63 0 -63 71l2 26q18 114 159 114q9 59 9 91q0 66 -55 66q-49 0 -54 -51v-6q0 -28 23 -66l-8 -10
q-52 45 -52 112v12q4 75 65 87l24 2q89 0 89 -115q0 -51 -14 -128q49 -12 109.5 -63t93.5 -60l15 -2q42 0 42 113v252q143 -11 148 -169v-273h-30v198q-3 135 -87 144v-165q-5 -94 -23 -135.5t-70 -45.5zM377 -255h-6q-121 0 -121 145q0 62 33 139.5t92 163.5l16 -9
q-96 -152 -96 -263q0 -100 83 -101q66 0 110 67l16 -8q-32 -132 -127 -134z" />
    <glyph glyph-name="uni1B4B" unicode="&#x1b4b;" horiz-adv-x="1403" 
d="M108 28l14 2q43 10 67 99q-16 4 -31 4q-30 0 -54.5 -19.5t-24.5 -48.5l1 -9q3 -28 28 -28zM1112 -4h-8q-78 1 -122 67t-58 154q-32 -219 -179 -221h-6q-127 2 -129 201q-3 136 -87 145v-165q-5 -94 -23 -135.5t-69 -45.5h-9q-48 0 -99 49q-57 53 -106 77
q-11 -53 -40.5 -89t-68.5 -36q-63 0 -63 71l2 26q18 114 159 114q9 59 9 91q0 66 -56 66q-48 0 -53 -51v-7q0 -27 22 -65l-8 -10q-52 45 -52 112v12q4 75 66 87l24 2q88 0 88 -113q0 -51 -14 -130q49 -12 110 -63t94 -60l15 -2q41 0 41 113v252q143 -11 148 -169v-77
q2 -102 109 -102h5q79 0 116 76t41 269h26q4 -193 41 -269t128 -76q99 0 99 140v208q143 -11 148 -169v-273h-31v198q-3 135 -86 144v-155q0 -189 -124 -191z" />
    <glyph glyph-name="uni1B50" unicode="&#x1b50;" horiz-adv-x="440" 
d="M223 0q-76 0 -124 61t-48 158q0 98 45.5 158.5t128.5 60.5q71 0 120 -63.5t49 -155.5q0 -89 -45.5 -154t-125.5 -65zM222 92q141 0 144 122q0 130 -146 132q-142 -2 -142 -132q2 -122 144 -122z" />
    <glyph glyph-name="uni1B51" unicode="&#x1b51;" horiz-adv-x="932" 
d="M744 530q22 0 44 7q-43 91 -100 91q-40 -3 -40 -36q0 -26 27 -44t69 -18zM674 -11l-3 13q64 48 72 182q-1 149 -110 158h-25q-80 -9 -128 -72h-2v1q-48 62 -128 71h-24q-85 -7 -104 -96l-2 -44q0 -125 85 -193l-10 -14q-76 16 -143 46q-82 35 -82 122q0 49 30 105
q25 40 25 60q0 18 -22 18q-35 0 -35 -48q0 -18 5 -42l-14 -2q-14 37 -14 74q0 112 74 112q61 -4 61 -62q0 -36 -36 -91t-36 -92q0 -60 96 -95q-15 35 -19 94q3 240 138 245q55 0 92 -29t64 -87q26 56 60.5 86t96.5 30q136 -6 136 -250q-5 -82 -25 -131q112 43 112 196v16
q-3 86 -41 174l-35 -4q-82 1 -126.5 38.5t-47.5 86.5v12q0 81 79 81q77 0 131 -111q79 42 109 129h12l2 -37q0 -119 -92 -177q50 -119 50 -219l-1 -21q-12 -218 -225 -233z" />
    <glyph glyph-name="uni1B52" unicode="&#x1b52;" horiz-adv-x="823" 
d="M295 -5l-91 105q-15 35 -19 94q3 240 138 245q55 0 92 -29t64 -87q27 58 62 87t95 29q137 -6 137 -247v-192h-30v184q-1 149 -110 158h-25q-80 -9 -128 -72h-2q-48 63 -128 72h-25q-84 -7 -103 -96l-2 -44q0 -125 85 -193zM305 9l-10 -14q-76 16 -143 46q-82 35 -82 122
q0 49 30 105q25 40 25 60q0 18 -22 18q-35 0 -35 -49q0 -17 5 -41l-14 -2q-14 37 -14 74q0 112 74 112q61 -4 61 -62q0 -36 -36 -91t-36 -92q0 -60 96 -95zM570 -799l-34 8q9 43 9 80q0 149 -118.5 196t-177.5 104t-59 149q0 83 57.5 146t158.5 63q179 -2 334 -173l-20 -69
q-63 75 -163 111.5t-171 39.5h-12q-142 0 -142 -123q0 -128 172 -192.5t175 -219.5q75 186 115.5 342.5t48.5 337.5h30q-3 -203 -47 -374.5t-156 -425.5z" />
    <glyph glyph-name="uni1B53" unicode="&#x1b53;" horiz-adv-x="822" 
d="M766 -799q-74 268 -307 271q-207 -3 -207 -137q0 -57 45 -129l-5 -9q-271 92 -271 343q0 97 52 183q78 131 369.5 171.5t299.5 264.5q0 174 -109 183h-25q-80 -9 -128 -72h-2q-48 63 -128 72h-24q-85 -7 -104 -96l-2 -44q0 -125 85 -193l-10 -14q-76 16 -143 46
q-82 35 -82 122q0 49 30 105q25 40 25 60q0 18 -22 18q-35 0 -35 -49q0 -17 5 -41l-14 -2q-14 37 -14 74q0 112 74 112q61 -4 61 -62q0 -36 -36 -91t-36 -92q0 -60 96 -95q-15 35 -19 94q3 240 138 245q55 0 92 -29t64 -87q26 56 60.5 86t96.5 30q136 -6 136 -271v-17
q0 -306 -278 -342q-234 -31 -333.5 -98.5t-99.5 -180.5q0 -180 183 -270q-28 49 -28 102q0 49 23 100q46 105 214 109h12q144 -5 212 -96.5t108 -265.5z" />
    <glyph glyph-name="uni1B54" unicode="&#x1b54;" horiz-adv-x="448" 
d="M247 0h-5q-91 3 -144 65.5t-53 173.5l1 35q9 124 80.5 199.5t182.5 78.5l2 -12q-93 -20 -155.5 -86t-72.5 -158l-2 -36q0 -73 40.5 -117t114.5 -50q107 0 107 57q0 43 -83 48h-26v33h36q73 4 73 60q-10 45 -72 46q-81 -1 -115 -50l-16 8q29 131 135 131h8
q112 -5 115 -105q-3 -90 -86 -106q82 -11 82 -95v-6q-10 -114 -147 -114z" />
    <glyph glyph-name="uni1B55" unicode="&#x1b55;" horiz-adv-x="553" 
d="M532 -594q-117 48 -117 297q0 78 32 255q50 277 50 350q0 97 -53 151t-149 54q-189 -2 -212 -217l-2 -36q0 -73 40.5 -117t114.5 -50q107 0 107 57q0 43 -83 48h-26v33h36q73 4 73 60q-10 45 -72 46q-81 -1 -115 -50l-16 8q29 131 135 131h8q112 -5 115 -105
q-3 -90 -86 -106q82 -11 82 -95v-6q-10 -114 -147 -114h-5q-91 3 -144 65.5t-53 173.5l1 35q9 124 70.5 209t175.5 89h9q108 0 168 -66.5t60 -189.5l-1 -23q-7 -141 -36 -324t-29 -270q0 -181 74 -285z" />
    <glyph glyph-name="uni1B56" unicode="&#x1b56;" horiz-adv-x="554" 
d="M476 -3l-8 5q18 41 18 75q0 95 -132 99q-161 -1 -161 -110q0 -29 16 -59l-7 -8q-148 26 -171 162l-1 23q0 215 268 274l6 -11q-243 -126 -243 -284q6 -73 106 -89l-1 22q0 74 47.5 123.5t140.5 49.5q89 0 131 -44t42 -112q0 -64 -51 -116z" />
    <glyph glyph-name="uni1B57" unicode="&#x1b57;" horiz-adv-x="803" 
d="M615 530q23 0 44 7q-42 91 -99 91q-40 -3 -40 -35q0 -27 26.5 -45t68.5 -18zM576 -4h-5v98h5q71 0 113 40.5t42 124.5v11q-3 86 -41 174l-36 -4q-82 1 -126 38.5t-47 86.5v12q0 81 78 81t131 -111q80 42 110 129h11l2 -39q0 -117 -92 -175q50 -119 50 -219l-1 -21
q-6 -108 -58.5 -166.5t-135.5 -59.5zM576 -4h-5q-59 1 -106.5 45.5t-47.5 140.5v21q0 139 -100 139q-92 0 -99 -154q-7 -122 -27 -156t-59 -34q-35 0 -57 26.5t-22 79.5q0 39 12 81t36.5 82.5t24.5 59.5t-23 19q-35 0 -35 -49q0 -17 5 -41l-13 -2q-15 38 -15 76
q0 110 74 110q62 -4 62 -62q0 -36 -37 -92q-59 -88 -59 -148q0 -49 42 -49q30 0 47.5 29t17.5 80v17q0 225 131 225q119 0 119 -226v-23q0 -97 129 -97h5v-98z" />
    <glyph glyph-name="uni1B58" unicode="&#x1b58;" horiz-adv-x="481" 
d="M293 530q22 0 44 7q-42 91 -100 91q-40 -3 -40 -36q0 -26 27 -44t69 -18zM251 -4q-98 1 -139 35t-50 96l-2 21q0 54 41 120q25 40 25 59t-23 19q-35 0 -35 -49q0 -17 5 -41l-13 -2q-15 38 -15 76q0 110 74 110q62 -4 62 -62q0 -36 -37 -92q-41 -62 -41 -101l1 -12
q7 -41 37 -60t110 -19q157 0 157 164v12q-3 86 -41 174l-35 -4q-82 1 -126.5 38.5t-47.5 86.5v12q0 81 79 81q77 0 131 -111q79 42 109 129h12l2 -39q0 -117 -92 -175q50 -119 50 -219l-1 -21q-6 -108 -58.5 -166.5t-138.5 -59.5z" />
    <glyph glyph-name="uni1B59" unicode="&#x1b59;" horiz-adv-x="794" 
d="M567 -4h-8q-79 1 -122.5 67t-57.5 154q-32 -219 -179 -221h-6q-129 3 -138 126v13q0 61 44 133q25 40 25 60q0 18 -22 18q-35 0 -35 -50q0 -17 4 -40l-13 -2q-14 37 -14 74q0 112 74 112q61 -4 61 -62q0 -36 -37 -92q-41 -62 -41 -101l1 -12q8 -41 37.5 -60t63.5 -19h5
q79 0 116 76t41 269h26q4 -193 41 -269t126 -76h2zM606 530q22 0 44 7q-43 91 -100 91q-40 -3 -40 -36q0 -26 27 -44t69 -18zM567 -4h-6v98h5q155 0 155 164v12q-3 86 -41 174l-35 -4q-83 1 -127 38.5t-47 86.5v12q0 81 79 81q77 0 131 -111q79 42 109 129h12l2 -37
q0 -119 -92 -177q50 -119 50 -219l-1 -21q-6 -108 -58.5 -166.5t-135.5 -59.5z" />
    <glyph glyph-name="uni1B5A" unicode="&#x1b5a;" horiz-adv-x="602" 
d="M686 -407h-5q-167 0 -167 249l1 37q8 204 8 306l-1 68q-5 84 -87 84q14 -53 14 -113q0 -89 -21 -156t-64 -68q-54 1 -55 154v49q-1 134 -90 134q12 -50 12 -106q0 -230 -110 -230q-75 0 -75 163v14l14 1q8 -86 58 -86q34 0 58 38.5t24 103.5q0 77 -32 205h52
q116 -2 120 -211v-68q1 -70 33 -71q26 0 37.5 34.5t11.5 96.5q0 82 -35 219h52q119 -2 119 -166v-14q-6 -95 -6 -217l1 -125q3 -245 138 -309z" />
    <glyph glyph-name="uni1B5B" unicode="&#x1b5b;" horiz-adv-x="1126" 
d="M355 -5q-76 16 -143.5 45.5t-74.5 68t-7 53.5q0 50 30 106q25 40 25 60q0 18 -22 18q-35 0 -35 -49q0 -17 5 -41l-14 -2q-14 37 -14 74q0 112 74 112q61 -4 61 -62q0 -36 -36.5 -91t-36.5 -93q0 -59 97 -94q-15 35 -19 94q3 240 138 245q55 0 92 -29t64 -87q27 58 62 87
t95 29q137 -6 137 -247v-192h-30v184q-1 149 -110 158h-25q-80 -9 -128 -72h-2q-48 63 -128 72h-25q-84 -7 -103 -96l-2 -44q0 -125 85 -193zM1198 -649q-214 324 -376.5 428t-318.5 107q-91 0 -91 -51q0 -33 25 -84q19 -38 19 -72q0 -41 -22.5 -68.5t-70.5 -27.5h-9
q-55 3 -91.5 54t-36.5 126q0 29 6 61l19 -3l-2 -30q0 -66 28 -100.5t68 -34.5q24 0 45 18t21 46q0 21 -13 47q-20 38 -20 78q0 123 141 123q148 0 318.5 -136t384.5 -461zM1076 -792h-36v897q-4 237 -94 237h-7q25 -48 29 -390v-526q0 -107 -55.5 -162t-142.5 -55
q-55 0 -95.5 29t-40.5 78q0 61 57 128q-195 -208 -399 -208q-147 0 -229 86t-83 271.5t105 484.5l26 -11q-110 -294 -95 -513.5t264 -219.5q219 0 446 247l56 -67q-105 -126 -105 -173q0 -54 103 -54q156 0 156 169v538q-2 347 -78 429q21 14 51 14q86 0 126.5 -75.5
t40.5 -258.5v-895z" />
    <glyph glyph-name="uni1B5C" unicode="&#x1b5c;" horiz-adv-x="440" 
d="M223 0q-76 0 -124 61t-48 158q0 98 45.5 158.5t128.5 60.5q71 0 120 -63.5t49 -155.5q0 -89 -45.5 -154t-125.5 -65zM222 92q141 0 144 122q0 130 -146 132q-142 -2 -142 -132q2 -122 144 -122z" />
    <glyph glyph-name="uni1B5D" unicode="&#x1b5d;" horiz-adv-x="264" 
d="M195 241q-50 91 -150 141q24 27 46 31l11 1q95 0 112 -167zM195 21q-50 91 -150 141q24 27 46 31l11 1q95 0 112 -167z" />
    <glyph glyph-name="uni1B5E" unicode="&#x1b5e;" horiz-adv-x="323" 
d="M313 -342q-84 522 -256 713l55 55q92 -86 150 -292t77 -470z" />
    <glyph glyph-name="uni1B5F" unicode="&#x1b5f;" horiz-adv-x="504" 
d="M313 -342q-84 522 -256 713l55 55q92 -86 150 -292t77 -470zM463 -342q-84 522 -256 713l55 55q92 -86 150 -292t77 -470z" />
    <glyph glyph-name="uni1B60" unicode="&#x1b60;" horiz-adv-x="368" 
d="M190 -1h-8q-122 4 -137 148l13 9q31 -54 127 -63q77 0 77 57q0 43 -83 48h-26v33h36q73 4 73 60q-9 45 -72 46q-81 -1 -115 -50l-15 8q28 131 134 131h8q113 -5 116 -105q-4 -90 -86 -106q84 -11 84 -97q-13 -119 -126 -119z" />
    <glyph glyph-name="uni1B61" unicode="&#x1b61;" horiz-adv-x="700" 
d="M365 -15q-88 0 -101 130l16 10q61 -58 141 -58q82 1 111 46t29 86q-3 142 -186 143q-181 0 -248 -57l-13 12q86 141 260 143h21q192 -27 192 -223q0 -138 -106 -204q-59 -28 -116 -28z" />
    <glyph glyph-name="uni1B62" unicode="&#x1b62;" horiz-adv-x="700" 
d="M417 -799q-104 166 -104 346q0 110 43 221q96 218 123 304.5t27 142.5q0 129 -118 129q-131 0 -131 -157v-8l-11 -2q-51 143 -111 179l9 16q74 -27 98 -82q22 152 156 152q163 0 163 -163q0 -105 -67 -276l-80 -266q-32 -109 -32 -220q0 -153 54 -304z" />
    <glyph glyph-name="uni1B63" unicode="&#x1b63;" horiz-adv-x="700" 
d="M229 -805q-88 8 -93 109q1 108 78 266.5t159 364t106 481.5l23 -2q-17 -286 -100 -494t-139 -342.5t-56 -196.5l1 -18q13 -52 68 -52l12 1q213 12 231 1120v8h30v-11q0 -1228 -320 -1234z" />
    <glyph glyph-name="uni1B64" unicode="&#x1b64;" horiz-adv-x="700" 
d="M436 -26q-54 194 -135 337l-62 -52l-19 16q43 124 75 161q71 -45 116.5 -193.5t50.5 -263.5z" />
    <glyph glyph-name="uni1B65" unicode="&#x1b65;" horiz-adv-x="700" 
d="M588 3q-232 0 -357 138q-107 127 -130 302l80 -22q37 -149 112 -255q97 -133 301 -145z" />
    <glyph glyph-name="uni1B66" unicode="&#x1b66;" horiz-adv-x="700" 
d="M270 0q-115 46 -212 169l21 22q62 -66 92 -88q-24 47 -24 112v10q10 104 71.5 153.5t156.5 49.5q207 0 227 -203l1 -28q0 -120 -101 -193l-12 12q59 56 59 139l-2 30q-17 146 -173 146q-159 0 -180 -146v-5q0 -57 20 -88t66 -68z" />
    <glyph glyph-name="uni1B67" unicode="&#x1b67;" horiz-adv-x="700" 
d="M188 61q79 354 281 354q161 0 214 -133v-8l-369 -148l-12 24l260 115q-27 60 -93 60q-208 0 -260 -302q-182 22 -183 179v38l26 2q13 -142 136 -181z" />
    <glyph glyph-name="uni1B68" unicode="&#x1b68;" horiz-adv-x="700" 
d="M493 -254l-1 18q-15 131 -184.5 206t-171.5 166q0 108 142 271l18 -15q-91 -119 -91 -191q0 -94 195 -165q166 -60 166 -217q-1 -124 -44.5 -270t-109.5 -249t-136 -104q-79 0 -95.5 99.5t47.5 347.5l28 -1q-52 -346 46 -357q58 -2 101.5 82t66.5 196t23 183z" />
    <glyph glyph-name="uni1B69" unicode="&#x1b69;" horiz-adv-x="701" 
d="M452 -805q-16 59 -56 142t-108 83q-75 0 -112.5 -111.5t-155.5 -113.5q-215 2 -215 287q0 146 58 241q78 131 364.5 171.5t304.5 264.5q0 174 -109 183h-25q-80 -9 -128 -72h-2q-48 63 -128 72h-24q-85 -7 -104 -96l-2 -44q0 -125 85 -193l-10 -14q-76 16 -143 46
q-82 35 -82 122q0 49 30 105q25 40 25 60q0 18 -22 18q-35 0 -35 -49q0 -17 5 -41l-14 -2q-14 37 -14 74q0 112 74 112q61 -4 61 -62q0 -36 -36 -91t-36 -92q0 -60 96 -95q-15 35 -19 94q3 240 138 245q55 0 92 -29t64 -87q26 56 60.5 86t96.5 30q136 -6 136 -271v-17
q0 -306 -278 -342q-248 -33 -343 -105.5t-95 -219.5q0 -191 174 -191q118 0 152.5 106t135.5 109q97 -1 144.5 -73t69.5 -142q130 0 132 303v294l31 3v-330q0 -366 -233 -368zM654 -130v111q0 359 -79 442q21 14 50 14q89 0 128 -80.5t39 -253.5v-904h-35v906
q-5 237 -94 237h-7q27 -51 29 -440v-34z" />
    <glyph glyph-name="uni1B6A" unicode="&#x1b6a;" horiz-adv-x="700" 
d="M396 -799q-104 177 -104 348q0 108 42 219q76 197 76 289q0 41 -15 61q-48 65 -142 80v33h13q134 0 142 61l1 13q0 50 -58 50q-66 -1 -86 -67l-15 3v12q0 124 82 135l28 2q99 0 99 -112q0 -91 -89 -116q84 -34 84 -165q0 -104 -62 -310q-32 -109 -32 -220q0 -143 55 -303
z" />
    <glyph glyph-name="uni1B6B" unicode="&#x1b6b;" 
d="M-373 670q-62 0 -62 51q0 18 8 43q19 -47 101 -47l25 1q-29 -44 -63 -47z" />
    <glyph glyph-name="uni1B6C" unicode="&#x1b6c;" 
d="M-373 -230q-62 0 -62 51q0 18 8 43q19 -47 101 -47l25 1q-29 -44 -63 -47z" />
    <glyph glyph-name="uni1B6D" unicode="&#x1b6d;" 
d="M-378 471l-19 6q28 142 28 260q0 60 -13 122l44 74q20 -26 20 -154v-12q-6 -134 -60 -296zM-397 654q-91 0 -195 36l61 61q87 -33 192 -33q110 0 200 19l3 -19q-131 -64 -261 -64z" />
    <glyph glyph-name="uni1B6E" unicode="&#x1b6e;" 
d="M-397 654q-91 0 -195 36l61 61q87 -33 192 -33q110 0 200 19l3 -19q-131 -64 -261 -64z" />
    <glyph glyph-name="uni1B6F" unicode="&#x1b6f;" 
d="M-179 481q-135 107 -185 192l46 32q26 -74 151 -209zM-590 516q181 88 233 229l90 24q-70 -181 -311 -268z" />
    <glyph glyph-name="uni1B70" unicode="&#x1b70;" 
d="M-368 471l-19 6q16 83 23 157q-91 -74 -254 -133l-12 15q151 73 230 158h-7q-91 0 -175 26l61 51q74 -28 162 -32v18q0 60 -7 113l55 57q6 -157 -1 -189q100 2 183 19l3 -19q-82 -28 -171 -38q32 -68 120 -164l-12 -15q-86 65 -136 129q-15 -76 -43 -159z" />
    <glyph glyph-name="uni1B71" unicode="&#x1b71;" 
d="M-199 501q-115 87 -165 172l46 32q26 -74 131 -189zM-620 516q181 88 229 192l77 1q-53 -121 -294 -208zM-417 674q-91 0 -175 26l61 51q87 -33 192 -33q110 0 200 19l3 -19q-131 -44 -281 -44z" />
    <glyph glyph-name="uni1B72" unicode="&#x1b72;" 
d="M-350 503q-141 73 -170 195l36 77q57 -204 126 -231q56 143 171 201l103 6q-156 -94 -266 -248z" />
    <glyph glyph-name="uni1B73" unicode="&#x1b73;" 
d="M-386 493q-59 0 -137 44l4 14q49 -12 91 -12q68 0 113 25.5t45 78.5q-2 66 -112 66q-91 0 -101 -53l-2 -16q0 -42 50 -69l-6 -14q-71 24 -71 103l1 20q10 95 131 98q134 -3 135 -114q0 -78 -38.5 -124.5t-102.5 -46.5zM-373 590q-62 0 -62 51q0 18 8 43q19 -47 101 -47
l25 1q-29 -44 -63 -47z" />
    <glyph glyph-name="uni1B74" unicode="&#x1b74;" horiz-adv-x="700" 
d="M549 0h-91l-131 323l-136 -323h-44l192 451h20z" />
    <glyph glyph-name="uni1B75" unicode="&#x1b75;" horiz-adv-x="700" 
d="M353 0q-76 0 -124 61t-48 158q0 98 45.5 158.5t128.5 60.5q71 0 120 -63.5t49 -155.5q0 -89 -45.5 -154t-125.5 -65zM352 92q141 0 144 122q0 130 -146 132q-142 -2 -142 -132q2 -122 144 -122z" />
    <glyph glyph-name="uni1B76" unicode="&#x1b76;" horiz-adv-x="700" 
d="M549 0h-91l-131 323l-136 -323h-44l192 451h20zM340 132l-185 301l27 16l186 -299z" />
    <glyph glyph-name="uni1B77" unicode="&#x1b77;" horiz-adv-x="700" 
d="M482 72q-46 -72 -129 -72q-86 0 -130 72q-42 60 -42 147q0 94 40 149q46 70 134 70q79 0 127 -74q42 -65 42 -145q0 -87 -42 -147zM496 214q0 130 -146 132q-142 -2 -142 -132q2 -123 144 -122q141 -1 144 122zM340 132l-185 301l27 16l186 -299z" />
    <glyph glyph-name="uni1B78" unicode="&#x1b78;" horiz-adv-x="700" 
d="M347 195q-111 0 -235 36l61 81q107 -43 232 -43q110 0 200 19l3 -19q-131 -74 -261 -74z" />
    <glyph glyph-name="uni1B79" unicode="&#x1b79;" horiz-adv-x="700" 
d="M167 0l192 451h41l-153 -357h257v-94h-337z" />
    <glyph glyph-name="uni1B7A" unicode="&#x1b7a;" horiz-adv-x="700" 
d="M415 98l-158 256l28 17l158 -255zM347 195q-111 0 -235 36l61 81q107 -43 232 -43q110 0 200 19l3 -19q-131 -74 -261 -74z" />
    <glyph glyph-name="uni1B7B" unicode="&#x1b7b;" horiz-adv-x="700" 
d="M167 0l192 451h41l-153 -357h257v-94h-337zM360 132l-185 301l27 16l186 -299z" />
    <glyph glyph-name="uni1B7C" unicode="&#x1b7c;" horiz-adv-x="700" 
d="M347 220q-62 0 -62 51q0 18 8 43q19 -47 101 -47l25 1q-29 -44 -63 -47z" />
    <glyph glyph-name="uni1B7D" unicode="&#x1b7d;" horiz-adv-x="1266" 
d="M522 253q-5 84 -87 84q14 -53 14 -113q0 -89 -21 -156t-64 -68q-54 1 -55 154v49q-1 134 -90 134q12 -50 12 -106q0 -230 -110 -230q-75 0 -75 163v14l14 1q8 -86 58 -86q34 0 58 38.5t24 103.5q0 77 -32 205h52q116 -2 120 -211v-68q1 -71 33 -71q26 0 37.5 38t11.5 93
q0 82 -35 219h52q119 -2 119 -166v-14q-2 -36 -2 -77v-52q1 -68 24 -71q23 3 24 71v148q0 147 107 149q79 -2 129 -127l28 -66q21 -60 54 -60q28 0 28 55l-1 84q0 112 65 114q56 -2 89 -78q33 -77 87 -77q43 0 48 48v10q0 46 -30 121l14 8q44 -80 44 -153l-1 -18
q-7 -82 -75 -84q-39 1 -75 73q-37 67 -93 67h-8q-44 -4 -44 -51l5 -55q6 -40 6 -69q0 -72 -39 -73q-48 1 -102 127l-28 63q-27 53 -91 53q-80 0 -87 -86v-130q0 -123 -54 -124q-58 1 -59 124v61z" />
    <glyph glyph-name="uni1B7E" unicode="&#x1b7e;" horiz-adv-x="2349" 
d="M1287 -400q-58 1 -59 124v381l35 -2v-372q1 -68 24 -71q23 3 24 71v450q0 159 -57 256l29 1q168 0 168 -235v-272l-35 -7v281q-5 137 -94 137q20 -51 22 -160v-458q0 -123 -57 -124zM355 -5q-76 16 -143.5 45.5t-74.5 68t-7 53.5q0 50 30 106q25 40 25 60q0 18 -22 18
q-35 0 -35 -49q0 -17 5 -41l-14 -2q-14 37 -14 74q0 112 74 112q61 -4 61 -62q0 -36 -36.5 -91t-36.5 -93q0 -59 97 -94q-15 35 -19 94q3 240 138 245q55 0 92 -29t64 -87q27 58 62 87t95 29q137 -6 137 -247v-192h-30v184q-1 149 -110 158h-25q-80 -9 -128 -72h-2
q-48 63 -128 72h-25q-84 -7 -103 -96l-2 -44q0 -125 85 -193zM937 -577q-72 235 -175 347.5t-259 115.5q-91 0 -91 -51q0 -33 25 -84q19 -38 19 -72q0 -41 -22.5 -68.5t-70.5 -27.5h-9q-55 3 -91.5 54t-36.5 126q0 29 6 61l19 -3l-2 -30q0 -66 28 -100.5t68 -34.5
q24 0 45 18t21 46q0 21 -13 47q-20 38 -20 78q0 123 141 123q148 0 259 -144.5t185 -391.5zM968 -48v-526q0 -107 -55.5 -162t-142.5 -55q-55 0 -95.5 29t-40.5 78q0 61 57 128q-195 -208 -399 -208q-147 0 -229 86t-83 271.5t105 484.5l26 -11q-110 -294 -95 -513.5
t264 -219.5q219 0 446 247l56 -67q-105 -126 -105 -173q0 -54 103 -54q156 0 156 169v538zM1099 -600q-58 1 -59 124v581q-5 237 -94 237h-7q27 -51 29 -440v-354l-33 -128v561q0 359 -77 442q21 14 50 14q89 0 128 -80.5t39 -253.5v-572q1 -68 24 -71q23 3 24 71v650
q0 159 -57 256l29 1q168 0 168 -235v-122l-35 -7v131q-5 137 -94 137q20 -51 22 -160v-658q0 -123 -57 -124zM1475 -200q-58 1 -59 124v31l35 -2v-22q1 -68 24 -71q23 3 24 71v250q0 159 -57 256l29 1q168 0 168 -235v-72l-35 -7v81q-5 137 -94 137q20 -51 22 -160v-258
q0 -123 -57 -124zM1663 0q-58 1 -59 124v61l35 -2v-52q1 -68 24 -71q23 3 24 71v148q0 147 107 149q79 -2 129 -127l28 -66q21 -60 54 -60q28 0 28 55l-1 84q0 112 65 114q56 -2 89 -78q33 -77 87 -77q43 0 48 48v10q0 46 -30 121l14 8q44 -80 44 -153l-1 -18
q-7 -82 -75 -84q-39 1 -75 73q-37 67 -93 67h-8q-44 -4 -44 -51l5 -55q6 -40 6 -69q0 -72 -39 -73q-48 1 -102 127l-28 63q-27 53 -91 53q-80 0 -87 -86v-130q0 -123 -54 -124z" />
    <glyph glyph-name="uni200B" unicode="&#x200b;" 
 />
    <glyph glyph-name="uni200C" unicode="&#x200c;" 
 />
    <glyph glyph-name="uni200D" unicode="&#x200d;" 
 />
    <glyph glyph-name="uni25CC" unicode="&#x25cc;" horiz-adv-x="594" 
d="M479 419q0 -24 -24 -24q-25 0 -25 24t25 24q24 0 24 -24zM406 467q0 -24 -23 -24q-26 0 -26 24q0 25 26 25q23 0 23 -25zM527 347q0 -25 -25 -25q-24 0 -24 25q0 24 25 24q24 0 24 -24zM544 262q0 -25 -23 -25q-25 0 -25 25q0 24 25 24q23 0 23 -24zM321 485
q0 -25 -24 -25q-25 0 -25 25q0 24 25 24q24 0 24 -24zM237 467q0 -24 -25 -24q-24 0 -24 24q0 25 24 25q25 0 25 -25zM527 177q0 -24 -25 -24q-24 0 -24 24q0 25 24 25q25 0 25 -25zM165 419q0 -24 -25 -24q-24 0 -24 22q0 26 24 26q25 0 25 -24zM479 104q0 -24 -24 -24
q-25 0 -25 24t25 24q24 0 24 -24zM406 56q0 -24 -23 -24q-26 0 -26 24q0 25 26 25q23 0 23 -25zM116 347q0 -25 -23 -25q-26 0 -26 25q0 24 25 24q24 0 24 -24zM99 262q0 -25 -24 -25q-25 0 -25 25q0 24 25 24q24 0 24 -24zM321 40q0 -25 -24 -25q-25 0 -25 25q0 23 25 23
q24 0 24 -23zM116 177q0 -24 -24 -24q-25 0 -25 24q0 25 25 25q24 0 24 -25zM237 58q0 -26 -25 -26q-24 0 -24 24q0 25 24 25q25 0 25 -23zM165 104q0 -24 -25 -24q-24 0 -24 24t24 24q25 0 25 -24z" />
    <glyph glyph-name="uni1B1A.nya" horiz-adv-x="657" 
d="M295 -5q-76 16 -143 46q-82 35 -82 122q0 49 30 105q25 40 25 60q0 18 -22 18q-35 0 -35 -49q0 -17 5 -41l-14 -2q-14 37 -14 74q0 112 74 112q61 -4 61 -62q0 -36 -36.5 -91t-36.5 -93q0 -59 97 -94q-15 35 -19 94q3 240 186 245h51q169 0 178 -126v-10q0 -85 -86 -130
q93 -33 93 -152v-21h-30v12q0 140 -154 144h-85v33l85 1q58 3 94.5 22t36.5 49q0 72 -155 81h-25q-133 -7 -152 -96l-2 -44q0 -125 85 -193zM374 -356q-107 0 -167 95l13 13q64 -49 144 -49q79 1 79 40v3q-3 41 -103.5 60.5t-105.5 84.5q2 73 82 77h8q73 0 115 -52l-9 -11
q-44 28 -88 28h-6q-47 -2 -57 -35v-6q0 -35 70 -51q136 -24 136 -107v-4q-3 -86 -111 -86z" />
    <glyph glyph-name="cereg1" horiz-adv-x="878" 
d="M304 -356q-107 0 -167 95l13 13q64 -49 144 -49q79 1 79 40v3q-3 41 -103.5 60.5t-105.5 84.5q2 73 82 77h8q73 0 115 -52l-9 -11q-44 28 -88 28h-6q-47 -2 -57 -35v-6q0 -35 70 -51q136 -24 136 -107v-4q-3 -86 -111 -86z" />
    <glyph glyph-name="cereg2" horiz-adv-x="481" 
d="M303 524q-107 0 -167 95l13 13q64 -49 144 -49q79 1 79 40v3q-3 41 -103.5 60.5t-105.5 84.5q2 73 82 77h8q73 0 115 -52l-9 -11q-44 28 -88 28h-6q-47 -2 -57 -35v-6q0 -35 70 -51q136 -24 136 -107v-4q-3 -86 -111 -86z" />
    <glyph glyph-name="cereg3" horiz-adv-x="586" 
d="M316 -393l-16 11q33 51 33 100q0 51 -66.5 65t-66.5 59q0 39 60 104l16 -9q-24 -31 -24 -56q0 -33 63.5 -45t63.5 -73q-3 -64 -63 -156z" />
    <glyph glyph-name="cereg4" horiz-adv-x="938" 
d="M277 -255h-6q-121 0 -121 145q0 62 33 139.5t92 163.5l16 -9q-96 -152 -96 -263q0 -100 83 -101q66 0 110 67l16 -8q-32 -132 -127 -134z" />
    <glyph glyph-name="cereg5" 
d="M-323 -795h-6q-121 0 -121 145q0 62 33 139.5t92 163.5l16 -9q-96 -152 -96 -263q0 -100 83 -101q66 0 110 67l16 -8q-32 -132 -127 -134z" />
    </font>
</defs>
</svg>
