<?xml version="1.0" standalone="no"?>
<!DOCTYPE svg PUBLIC "-//W3C//DTD SVG 1.1//EN" "http://www.w3.org/Graphics/SVG/1.1/DTD/svg11.dtd" >
<svg xmlns="http://www.w3.org/2000/svg" xmlns:xlink="http://www.w3.org/1999/xlink" version="1.1">
<metadata>
Created by FontForge 20170731 at Tue Nov  9 10:51:54 2021
 By Aleksey,,,
(c) 2021 Aditya Bayu Perdana
(c) 2021 Lindenberg Software LLC
</metadata>
<defs>
<font id="TantularKawi-Regular" horiz-adv-x="0" >
  <font-face 
    font-family="Tantular Kawi"
    font-weight="400"
    font-stretch="normal"
    units-per-em="2048"
    panose-1="2 0 5 0 0 0 0 0 0 0"
    ascent="1638"
    descent="-410"
    bbox="-1813 -1951 3076 2344"
    underline-thickness="150"
    underline-position="-442"
    unicode-range="U+0020-F1F42"
  />
<missing-glyph horiz-adv-x="617" 
d="M-94 -17v1202h813v-1202h-813zM85 80h464l-232 401zM549 1088h-464l232 -401zM617 167v834l-241 -417zM258 584l-250 433v-866z" />
    <glyph glyph-name="u11F42_u11F0A" unicode="&#x11f42;&#x11f0a;" horiz-adv-x="729" 
d="M501 86v421q0 255 -133 351h261v122h-465l-11 -83q189 -125 195 -354v-447q-9 -254 -226 -256q-139 1 -246 119l-71 -58q123 -207 342 -212q353 4 354 397zM656 -719q-60 237 -270 319q-106 42 -226 42q-157 0 -279.5 -73t-122.5 -207q0 -99 73 -151t168 -52q55 0 115 19
l-5 62q-21 -3 -40 -3q-79 0 -120 32t-41 84q0 49 37 97q64 64 219 64q291 0 421 -268z" />
    <glyph glyph-name="u11F42_u11F0C" unicode="&#x11f42;&#x11f0c;" 
d="M-895 -976q-148 45 -148 190v406q0 143 131 143q67 0 111.5 -45t60.5 -124l79 -7q105 175 246 183q91 -2 135.5 -75.5t44.5 -199.5v-595h153v610q0 394 -307 394q-184 0 -280 -150q-74 146 -247 146q-284 -1 -284 -263v-430q0 -256 260 -300zM161 -1620q-25 295 -246 414
q3 34 3 68v151l-153 40v-213q-87 19 -222 19h-26q-456 -28 -485 -333q0 -282 331 -292q224 0 366.5 117.5t168.5 305.5q131 -101 187 -293zM-812 -1475v3q15 209 390 209q103 0 186 -29q-27 -169 -131.5 -257t-246.5 -88q-198 4 -198 162z" />
    <glyph glyph-name="u11F42_u11F12" unicode="&#x11f42;&#x11f12;" 
d="M-100 -396q0 277 -284 277h-469q-284 0 -284 -277v-704h153v694q0 156 136 156h459q136 0 136 -156v-694h153v704zM-688 -156v-943h153v863z" />
    <glyph glyph-name="u11F42_u11F13" unicode="&#x11f42;&#x11f13;" 
d="M-694 -251v-572q0 -277 264 -277h67q263 0 263 277v426q0 277 -283 277h-473q-284 0 -284 -277v-703h153v683q0 166 136 166h157zM-252 -823q0 -146 -117 -146h-56q-116 0 -116 146v572h152q137 0 137 -166v-406z" />
    <glyph glyph-name="u11F42_u11F14" unicode="&#x11f42;&#x11f14;" 
d="M-100 -396q0 277 -284 277h-469q-284 0 -284 -277v-704h153v694q0 156 136 156h459q136 0 136 -156v-694h153v704z" />
    <glyph glyph-name="u11F42_u11F15" unicode="&#x11f42;&#x11f15;" 
d="M-1303 -835q0 74 75 150q94 96 184 174.5t90 201.5q-16 193 -207 205q-253 -3 -253 -247q0 -26 3 -55l80 -17q32 191 165 191q66 -1 72 -74l1 -15q0 -55 -168 -188q-203 -162 -203 -325q0 -109 80 -186.5t279 -78.5q265 0 360 215q110 -217 345 -217q98 0 180 56
q116 79 120 292v634h-143v-660q0 -193 -172 -193q-97 0 -179.5 98.5t-82.5 211.5v544h-153v-554q0 -286 -265 -286q-208 3 -208 123z" />
    <glyph glyph-name="u11F42_u11F16" unicode="&#x11f42;&#x11f16;" 
d="M-1073 -810q0 -290 347 -290h626v141h-618q-198 0 -198 156v426q0 143 131 143q67 0 111.5 -45t60.5 -124l79 -7q111 174 251 174h12q89 -6 89 -93q0 -51 -38 -123l62 -33q102 98 102 195l-2 30q-26 167 -224 167q-154 0 -260 -150q-74 146 -247 146q-284 -1 -284 -263
v-450z" />
    <glyph glyph-name="u11F42_u11F17" unicode="&#x11f42;&#x11f17;" 
d="M-513 -422q46 138 80 322h-125q-51 -284 -183 -500t-364 -395l50 -106h509q384 0 384 307q0 327 -351 372zM-551 -970h-339q225 176 343 450q76 -6 154 -67.5t78 -196.5q0 -186 -236 -186z" />
    <glyph glyph-name="u11F42_u11F18" unicode="&#x11f42;&#x11f18;" 
d="M-1195 -950q-70 0 -103.5 41t-33.5 100q0 184 206 192h10q140 0 230 -135q-190 -189 -287 -197zM-132 -794q0 268 -346 370q72 143 140 325h-124q-182 -433 -328 -566q-146 182 -337 182l-29 -1q-209 -16 -276 -177q-35 -85 -35 -163q0 -262 254 -274l21 -1
q153 0 389 233q159 -235 380 -235q291 0 291 307zM-408 -960q-187 0 -307 196q96 92 187 244q86 -6 164.5 -83.5t78.5 -180.5q0 -176 -123 -176z" />
    <glyph glyph-name="u11F42_u11F19" unicode="&#x11f42;&#x11f19;" 
d="M-546 -1101q194 0 448 128l-38 97q-120 -51 -231 -70.5t-174 -19.5h-6q-276 4 -276 201v121l-157 -3v-127q0 -169 108.5 -244t300.5 -82zM-980 -736h157v370q0 143 250 153q268 0 437 -75l31 69q-155 134 -473 134q-194 -3 -298 -71.5t-104 -202.5v-377zM-138 -538h-483
v-121h483v121z" />
    <glyph glyph-name="u11F42_u11F1A" unicode="&#x11f42;&#x11f1a;" 
d="M-1508 -976q-148 45 -148 190v406q0 143 131 143q67 0 111.5 -45t60.5 -124l79 -7q105 175 246 183q91 -2 135.5 -75.5t44.5 -199.5v-595h153v610q0 394 -307 394q-184 0 -280 -150q-74 146 -247 146q-284 -1 -284 -263v-430q0 -256 260 -300zM-100 -100h-153v-690
q0 -84 -33 -133t-115 -49q-141 0 -323 269l-56 -57q166 -345 428 -345q121 0 184.5 84t67.5 237v684z" />
    <glyph glyph-name="u11F42_u11F1B" unicode="&#x11f42;&#x11f1b;" 
d="M-100 -421q-4 193 -133 273q-78 48 -169 48q-262 0 -358 -285l56 -57q112 209 273 209q72 0 125 -49t53 -133v-685h153v679zM-1428 -976q-148 45 -148 190v406q0 143 131 143q67 0 111.5 -45t60.5 -124l79 -7q105 175 246 183q91 -2 135.5 -75.5t44.5 -199.5v-595h153
v610q0 394 -307 394q-184 0 -280 -150q-74 146 -247 146q-284 -1 -284 -263v-430q0 -256 260 -300z" />
    <glyph glyph-name="u11F42_u11F1C" unicode="&#x11f42;&#x11f1c;" 
d="M-171 -979h-433q-299 33 -299 320q1 206 226.5 350t497.5 169l-25 94q-385 -35 -617 -197.5t-239 -434.5q0 -209 126 -317t298 -108h464z" />
    <glyph glyph-name="u11F42_u11F1D" unicode="&#x11f42;&#x11f1d;" 
d="M-384 -819q0 122 94 124h5q88 0 91 -76q0 -132 -143 -179q-47 59 -47 131zM-210.5 -1017.5q126.5 88.5 132.5 214.5v29q-12 161 -179 171l-24 1q-148 0 -194 -108q-25 -61 -25 -114q0 -65 47 -147q-65 -9 -108 -9l-43 1q-299 33 -299 320q1 206 226.5 350t497.5 169
l-25 94q-385 -35 -617 -197.5t-239 -434.5q0 -295 248 -392q91 -36 268 -36q207 0 333.5 88.5z" />
    <glyph glyph-name="u11F42_u11F1E" unicode="&#x11f42;&#x11f1e;" 
d="M-478 -703q-86 0 -187 -89t-172 -128.5t-134 -39.5h-6q-96 4 -96 151q1 206 226.5 400t497.5 269l-25 94q-385 -95 -617 -297.5t-239 -474.5q0 -139 53.5 -214t155.5 -82l25 -1q114 0 207 62t164.5 124.5t128.5 62.5q79 0 167 -120t188 -120q111 0 177.5 80.5t66.5 223.5
q0 221 -252 424l-75 -65q176 -180 176 -369q0 -61 -17.5 -101.5t-65.5 -42.5q-60 0 -142 122.5t-190 130.5h-15z" />
    <glyph glyph-name="u11F42_u11F1F" unicode="&#x11f42;&#x11f1f;" 
d="M-996 -1115q114 0 207 62t164.5 124.5t128.5 62.5q79 0 167 -120t188 -120q125 0 196 87.5t71 205.5l-1 34q-21 252 -216 252q-152 0 -250 -148l41 -52q118 74 181 74q108 0 108 -147q0 -153 -120 -156q-60 0 -142 122.5t-190 130.5h-15q-86 0 -187 -89t-172 -128.5
t-134 -39.5h-6q-96 4 -96 151q1 206 226.5 400t497.5 269l-25 94q-385 -95 -617 -297.5t-239 -474.5q0 -282 209 -296z" />
    <glyph glyph-name="u11F42_u11F20" unicode="&#x11f42;&#x11f20;" 
d="M-644 -874v477q0 146 116 146h159q116 0 116 -146v-703h153v703q0 277 -284 277h-129q-284 0 -284 -277v-481q0 -90 -85 -90q-86 0 -86 91v480q0 277 -284 277h-129q-284 0 -284 -277v-703h153v703q0 146 116 146h139q136 0 136 -146v-477q0 -233 239 -233q238 0 238 233
z" />
    <glyph glyph-name="u11F42_u11F21" unicode="&#x11f42;&#x11f21;" 
d="M-389 -251q136 0 136 -166v-683h153v703q0 277 -284 277h-473q-283 0 -283 -277v-426q0 -277 263 -277h67q264 0 264 277v572h157zM-988 -417q0 166 137 166h152v-572q0 -146 -116 -146h-56q-117 0 -117 146v406z" />
    <glyph glyph-name="u11F42_u11F22" unicode="&#x11f42;&#x11f22;" 
d="M-183 -952q108 116 108 277q0 167 -101 254.5t-313 118.5l-24 -104q290 -46 290 -275q0 -117 -98.5 -198t-291.5 -81q-359 0 -359 244q0 193 225.5 352t385.5 224l-45 94q-253 -85 -495 -252.5t-242 -428.5q0 -181 134 -277.5t357 -96.5q330 0 469 149zM-423 -782
q-10 93 -63 147t-142 57h-15h-102v-124h102q109 0 176 -100z" />
    <glyph glyph-name="u11F42_u11F23" unicode="&#x11f42;&#x11f23;" 
d="M-1076.5 -1032q53.5 -75 155.5 -82l25 -1q114 0 232 87t214.5 174.5t153.5 87.5q117 0 181 -341l88 7q-52 488 -236 497h-15q-86 0 -197 -89t-222 -178.5t-174 -89.5h-6q-96 4 -96 151q1 206 226.5 400t497.5 269l-25 94q-385 -95 -617 -297.5t-239 -474.5
q0 -139 53.5 -214z" />
    <glyph glyph-name="u11F42_u11F24" unicode="&#x11f42;&#x11f24;" 
d="M-378 -703q-86 0 -187 -89t-172 -128.5t-134 -39.5h-6q-96 4 -96 151q1 206 226.5 400t497.5 269l-25 94q-385 -95 -617 -297.5t-239 -474.5q0 -139 53.5 -214t155.5 -82l25 -1q114 0 207 62t164.5 124.5t128.5 62.5q79 0 167 -120t188 -120q111 0 177.5 80.5t66.5 223.5
q0 221 -141.5 371.5t-474.5 191.5l-31 -84q298 -56 397 -178t99 -311q0 -61 -17.5 -101.5t-65.5 -42.5q-60 0 -142 122.5t-190 130.5h-15z" />
    <glyph glyph-name="u11F42_u11F25" unicode="&#x11f42;&#x11f25;" 
d="M-857 -1100h157v1000h-157v-1000zM-38 -1088q0 223 -104.5 326.5t-327.5 103.5q-133 0 -262 -52l16 -84q63 21 158 21q194 0 299 -70t149 -257h72v12z" />
    <glyph glyph-name="u11F42_u11F26" unicode="&#x11f42;&#x11f26;" horiz-adv-x="729" 
d="M501 86v421q0 255 -133 351h261v122h-465l-11 -83q189 -125 195 -354v-447q-9 -254 -226 -256q-139 1 -246 119l-71 -58q123 -207 342 -212q353 4 354 397z" />
    <glyph glyph-name="u11F42_u11F27" unicode="&#x11f42;&#x11f27;" horiz-adv-x="596" 
d="M358 233l153 -34v348q-22 445 -328 448q-191 -12 -207 -205q0 -123 84 -187t185 -94l41 90q-171 84 -171 179l1 15q6 73 72 74q75 0 124 -68q46 -67 46 -256v-310zM511 86v421l-153 36v-447q-9 -254 -226 -256q-139 1 -246 119l-71 -58q123 -207 342 -212q353 4 354 397z
" />
    <glyph glyph-name="u11F42_u11F28" unicode="&#x11f42;&#x11f28;" 
d="M-522 -1100q222 3 343.5 127t121.5 386q0 494 -337 494q-154 0 -250 -150q-74 146 -247 146q-284 -1 -284 -263v-450q0 -290 347 -290h306zM-259.5 -327.5q49.5 -98.5 49.5 -274.5q0 -189 -88 -273t-224 -84h-298q-198 0 -198 156v426q0 143 131 143q67 0 111.5 -45
t60.5 -124l79 -7q105 175 236 183q91 -2 140.5 -100.5z" />
    <glyph glyph-name="u11F42_u11F29" unicode="&#x11f42;&#x11f29;" 
d="M-100 -756q-3 154 -121.5 246.5t-341.5 92.5q-133 0 -262 -52l16 -84q63 21 158 21q194 0 299 -70q96 -71 99 -164v-334h153v344zM-950 -1099h157v720q0 143 250 153q268 0 437 -75l31 69q-155 134 -473 134q-194 -3 -298 -71.5t-104 -202.5v-727z" />
    <glyph glyph-name="u11F42_u11F2A" unicode="&#x11f42;&#x11f2a;" 
d="M-517 -1108q335 0 619 208l-38 72q-287 -128 -537 -132h-16q-460 0 -460 371q0 125 70 228t224 138.5t253 -14.5t99 -134v-10q-7 -124 -160 -124t-253 150l-76 -56q79 -144 174 -186t207.5 -30t179.5 79.5t67 174.5q0 130 -97 213.5t-301 83.5q-234 0 -388 -145.5
t-154 -383.5v-13q5 -218 165.5 -351.5t404.5 -138.5h17z" />
    <glyph glyph-name="u11F42_u11F2B" unicode="&#x11f42;&#x11f2b;" horiz-adv-x="434" 
d="M93 -462q-7 -461 -438 -482t-763 331q935 -137 1006 541l-83 16q-166 -581 -1094 -413l-48 -79q395 -582 983 -556.5t590 646.5v1436h-153v-1440z" />
    <glyph glyph-name="u11F42_u11F2C" unicode="&#x11f42;&#x11f2c;" horiz-adv-x="375" 
d="M1306 -288l-91 55q-187 -297 -529 -297q-430 24 -433 499v671q0 309 148 491t557 271l-13 98q-468 -51 -656.5 -268.5t-188.5 -571.5v-686q8 -649 593 -657q408 0 613 395z" />
    <glyph glyph-name="u11F42_u11F2D" unicode="&#x11f42;&#x11f2d;" 
d="M-767 -793q0 -307 334 -307q333 0 333 307v674h-153v-664q0 -186 -180 -186q-181 0 -181 186v234h-153v-244zM-1281 -765q0 -296 272 -334l33 97q-94 26 -123 79t-29 155v332q0 186 181 186q180 0 180 -186v-234h153v244q0 307 -333 307q-334 0 -334 -307v-339z" />
    <glyph glyph-name="u11F42_u11F2E" unicode="&#x11f42;&#x11f2e;" 
d="M-183 -952q108 116 108 277q0 167 -101 254.5t-313 118.5l-24 -104q290 -46 290 -275q0 -117 -98.5 -198t-291.5 -81q-359 0 -359 244q0 193 225.5 352t385.5 224l-45 94q-253 -85 -495 -252.5t-242 -428.5q0 -181 134 -277.5t357 -96.5q330 0 469 149z" />
    <glyph glyph-name="u11F42_u11F2F" unicode="&#x11f42;&#x11f2f;" 
d="M-100 -396q0 277 -284 277h-469q-284 0 -284 -277v-704h153v694q0 156 136 156h459q136 0 136 -156v-694h153v704zM-225 -601h-583v-121h583v121z" />
    <glyph glyph-name="u11F42_u11F30" unicode="&#x11f42;&#x11f30;" horiz-adv-x="729" 
d="M472 198h-403v-121h403v121zM501 86v421q0 255 -133 351h261v122h-465l-11 -83q189 -125 195 -354v-447q-9 -254 -226 -256q-139 1 -246 119l-71 -58q123 -207 342 -212q353 4 354 397z" />
    <glyph glyph-name="u11F42_u11F31" unicode="&#x11f42;&#x11f31;" horiz-adv-x="729" 
d="M501 86v421q0 255 -133 351h261v122h-465l-11 -83q189 -125 195 -354v-447q-9 -254 -226 -256q-139 1 -246 119l-71 -58q123 -207 342 -212q353 4 354 397zM-100 -279v269h-150v-253zM-100 -392v193l-150 -24v-155q0 -150 -82 -150q-68 1 -149 59l-42 -49
q69 -127 209 -133q212 0 214 259z" />
    <glyph glyph-name="u11F42_u11F32" unicode="&#x11f42;&#x11f32;" 
d="M-614 -549h-153v-234q0 -186 -180 -186q-181 0 -181 186v664h-153v-674q0 -307 334 -307q333 0 333 307v244zM-767 -670h153v234v186h181q180 0 180 -186v-664h153v674q0 307 -333 307h-334v-307v-244z" />
    <glyph glyph-name="u11F02_u11F00" unicode="&#x11f02;&#x11f00;" 
d="M-466 1631q-198 0 -239 167l-75 -10q9 -156 96 -236.5t220 -80.5h1q133 0 220 80.5t96 236.5l-75 10q-41 -167 -239 -167h-5zM-685 1992q10 -113 63 -167t142 -57h15h102v144h-102q-109 0 -176 100zM-413 1285l-22 100q-102 -21 -197 -22q-448 0 -478 434l-86 1
q-4 -44 -4 -85q0 -244 141 -356t386 -112q145 0 260 40z" />
    <glyph glyph-name="u11F02_u11F01" unicode="&#x11f02;&#x11f01;" 
d="M-113 1533q-10 113 -63 167t-142 57h-15h-102v-144h102q109 0 176 -100zM-113 1285l-22 100q-102 -21 -197 -22q-448 0 -478 434l-86 1q-4 -44 -4 -85q0 -244 141 -356t386 -112q145 0 260 40z" />
    <glyph glyph-name="u11F02_u11F36" unicode="&#x11f02;&#x11f36;" 
d="M-386 1504q3 -69 19 -112q72 -233 394 -233q321 0 393 234q16 42 19 112q-3 69 -19 111q-72 234 -393 234q-322 0 -394 -233q-16 -43 -19 -113zM27 1276q-272 1 -272 229q0 227 272 228q271 -1 271 -229q0 -227 -271 -228zM-211 1277l-14 88q-59 -7 -118 -7
q-142 0 -247 33q-119 37 -173 122.5t-54 188.5q0 35 7 73l-74 13q-42 -111 -42 -196q0 -131 95 -223q127 -124 388 -124q115 0 232 32z" />
    <glyph glyph-name="u11F02_u11F37" unicode="&#x11f02;&#x11f37;" 
d="M-386 1504q3 -69 19 -112q72 -233 394 -233q321 0 393 234q16 42 19 112q-3 69 -19 111q-72 234 -393 234q-322 0 -394 -233q-16 -43 -19 -113zM27 1276q-272 1 -272 229q0 227 272 228q271 -1 271 -229q0 -227 -271 -228zM197 1398q-10 113 -63 167t-142 57h-15h-102
v-144h102q109 0 176 -100zM-213 1285l-22 100q-102 -21 -197 -22q-448 0 -478 434l-86 1q-4 -44 -4 -85q0 -244 141 -356t386 -112q145 0 260 40z" />
    <glyph glyph-name="u11F02_u11F40" unicode="&#x11f02;&#x11f40;" 
d="M-386 1504l2 -34q1 -35 17 -78q72 -233 394 -233q321 0 393 234q16 52 19 112q-3 69 -19 111q-72 234 -393 234q-322 0 -394 -233q-16 -43 -19 -113zM27 1276q-272 1 -272 229q0 227 272 228q271 -1 271 -229q0 -227 -271 -228zM70 1675h-41h-41v-134h-184v-36v-36h184
v-134h41h41v134h184v36v36h-184v134zM-213 1285l-22 100q-102 -21 -197 -22q-448 0 -478 434l-86 1q-4 -44 -4 -85q0 -244 141 -356t386 -112q145 0 260 40z" />
    <glyph glyph-name="u11F02_u11F35" unicode="&#x11f02;&#x11f35;" horiz-adv-x="415" 
d="M315 0h-153v1524q-10 241 -338 241q-121 0 -188.5 -35t-67.5 -96l2 -18q9 -62 149 -67.5t232.5 -46t117.5 -126.5l3 -10q4 -19 4 -37q0 -100 -104 -162t-273 -62q-332 0 -527 229l52 65q214 -161 456 -161q38 0 77 4q163 5 163 89q0 87 -164.5 92.5t-240.5 45.5
q-100 51 -100 173q0 94 95 166.5t305 72.5q271 0 384 -100t116 -262v-1519z" />
    <glyph glyph-name="u11F36_u11F00" unicode="&#x11f36;&#x11f00;" 
d="M491 1963q-198 0 -239 167l-75 -10q9 -156 96 -236.5t220 -80.5h1q133 0 220 80.5t96 236.5l-75 10q-41 -167 -239 -167h-5zM272 2324q10 -113 63 -167t142 -57h15h102v144h-102q-109 0 -176 100zM-386 1504q3 -69 19 -112q72 -233 394 -233q321 0 393 234q16 42 19 112
q-3 69 -19 111q-72 234 -393 234q-322 0 -394 -233q-16 -43 -19 -113zM27 1276q-272 1 -272 229q0 227 272 228q271 -1 271 -229q0 -227 -271 -228z" />
    <glyph glyph-name="u11F36_u11F01" unicode="&#x11f36;&#x11f01;" 
d="M587 1828q-10 113 -63 167t-142 57h-15h-102v-144h102q109 0 176 -100zM-386 1504q3 -69 19 -112q72 -233 394 -233q321 0 393 234q16 42 19 112q-3 69 -19 111q-72 234 -393 234q-322 0 -394 -233q-16 -43 -19 -113zM27 1276q-272 1 -272 229q0 227 272 228
q271 -1 271 -229q0 -227 -271 -228z" />
    <glyph glyph-name="u11F37_u11F00" unicode="&#x11f37;&#x11f00;" 
d="M-386 1504q3 -69 19 -112q72 -233 394 -233q321 0 393 234q16 42 19 112q-3 69 -19 111q-72 234 -393 234q-322 0 -394 -233q-16 -43 -19 -113zM27 1276q-272 1 -272 229q0 227 272 228q271 -1 271 -229q0 -227 -271 -228zM197 1398q-10 113 -63 167t-142 57h-15h-102
v-144h102q109 0 176 -100zM491 1963q-198 0 -239 167l-75 -10q9 -156 96 -236.5t220 -80.5h1q133 0 220 80.5t96 236.5l-75 10q-41 -167 -239 -167h-5zM272 2324q10 -113 63 -167t142 -57h15h102v144h-102q-109 0 -176 100z" />
    <glyph glyph-name="u11F37_u11F01" unicode="&#x11f37;&#x11f01;" 
d="M682 1733q-10 113 -63 167t-142 57h-15h-102v-144h102q109 0 176 -100zM-386 1504q3 -69 19 -112q72 -233 394 -233q321 0 393 234q16 42 19 112q-3 69 -19 111q-72 234 -393 234q-322 0 -394 -233q-16 -43 -19 -113zM27 1276q-272 1 -272 229q0 227 272 228
q271 -1 271 -229q0 -227 -271 -228zM197 1398q-10 113 -63 167t-142 57h-15h-102v-144h102q109 0 176 -100z" />
    <glyph glyph-name="u11F40_u11F00" unicode="&#x11f40;&#x11f00;" 
d="M-386 1504l2 -34q1 -35 17 -78q72 -233 394 -233q321 0 393 234q16 52 19 112q-3 69 -19 111q-72 234 -393 234q-322 0 -394 -233q-16 -43 -19 -113zM27 1276q-272 1 -272 229q0 227 272 228q271 -1 271 -229q0 -227 -271 -228zM70 1675h-41h-41v-134h-184v-36v-36h184
v-134h41h41v134h184v36v36h-184v134zM491 1963q-198 0 -239 167l-75 -10q9 -156 96 -236.5t220 -80.5h1q133 0 220 80.5t96 236.5l-75 10q-41 -167 -239 -167h-5zM272 2324q10 -113 63 -167t142 -57h15h102v144h-102q-109 0 -176 100z" />
    <glyph glyph-name="u11F40_u11F01" unicode="&#x11f40;&#x11f01;" 
d="M-386 1504l2 -34q1 -35 17 -78q72 -233 394 -233q321 0 393 234q16 52 19 112q-3 69 -19 111q-72 234 -393 234q-322 0 -394 -233q-16 -43 -19 -113zM27 1276q-272 1 -272 229q0 227 272 228q271 -1 271 -229q0 -227 -271 -228zM70 1675h-41h-41v-134h-184v-36v-36h184
v-134h41h41v134h184v36v36h-184v134zM587 1828q-10 113 -63 167t-142 57h-15h-102v-144h102q109 0 176 -100z" />
    <glyph glyph-name=".notdef" horiz-adv-x="617" 
d="M-94 -17v1202h813v-1202h-813zM85 80h464l-232 401zM549 1088h-464l232 -401zM617 167v834l-241 -417zM258 584l-250 433v-866z" />
    <glyph glyph-name=".null" 
 />
    <glyph glyph-name="nonmarkingreturn" horiz-adv-x="682" 
 />
    <glyph glyph-name="space" unicode=" " horiz-adv-x="530" 
 />
    <glyph glyph-name="uni00A0" unicode="&#xa0;" horiz-adv-x="530" 
 />
    <glyph glyph-name="uni2002" unicode="&#x2002;" horiz-adv-x="602" 
 />
    <glyph glyph-name="uni2004" unicode="&#x2004;" horiz-adv-x="302" 
 />
    <glyph glyph-name="uni2006" unicode="&#x2006;" horiz-adv-x="102" 
 />
    <glyph glyph-name="uni2009" unicode="&#x2009;" horiz-adv-x="50" 
 />
    <glyph glyph-name="uni200A" unicode="&#x200a;" horiz-adv-x="25" 
 />
    <glyph glyph-name="uni200B" unicode="&#x200b;" 
 />
    <glyph glyph-name="uni200C" unicode="&#x200c;" 
d="M36 1584h-72v-1859h72v1859z" />
    <glyph glyph-name="uni200D" unicode="&#x200d;" 
d="M48 1538l171 168l-49 49l-170 -171l-170 171l-49 -49l171 -168l-171 -169l49 -49l134 136v-1731h72v1731l134 -136l49 49z" />
    <glyph glyph-name="uni25CC" unicode="&#x25cc;" horiz-adv-x="1217" 
d="M932 908q-52 0 -52 -50t52 -50q48 0 48 50t-48 50zM784 1007q-52 0 -52 -51q0 -49 52 -49q48 0 48 49q0 51 -48 51zM1030 759q-51 0 -51 -49q0 -51 49 -51q51 0 51 51q0 49 -49 49zM1067 586q-52 0 -52 -50t52 -50q48 0 48 50t-48 50zM608 1042q-50 0 -50 -49
q0 -51 50 -51t50 51q0 49 -50 49zM434 1007q-49 0 -49 -51q0 -49 49 -49q51 0 51 49q0 51 -51 51zM1028 413q-49 0 -49 -51q0 -49 49 -49q51 0 51 49q0 51 -51 51zM287 908q-50 0 -50 -53q0 -47 50 -47t50 50t-50 50zM932 263q-52 0 -52 -51q0 -49 52 -49q48 0 48 49
q0 51 -48 51zM784 166q-52 0 -52 -52q0 -48 52 -48q48 0 48 48q0 52 -48 52zM188 759q-50 0 -50 -49q0 -51 52 -51q48 0 48 51q0 49 -50 49zM154 586q-52 0 -52 -50t52 -50q49 0 48 50q1 50 -48 50zM608 130q-50 0 -50 -49q0 -51 50 -51t50 51q0 49 -50 49zM188 413
q-50 0 -50 -51q0 -49 50 -49t50 49q0 51 -50 51zM434 166q-49 0 -49 -52q0 -48 49 -48q51 0 51 52q0 48 -51 48zM287 263q-50 0 -50 -51q0 -49 50 -49t50 49q0 51 -50 51z" />
    <glyph glyph-name="u11F00" unicode="&#x11f00;" 
d="M-466 1231q-198 0 -239 167l-75 -10q9 -156 96 -236.5t220 -80.5h1q133 0 220 80.5t96 236.5l-75 10q-41 -167 -239 -167h-5zM-685 1592q10 -113 63 -167t142 -57h15h102v144h-102q-109 0 -176 100z" />
    <glyph glyph-name="u11F01" unicode="&#x11f01;" 
d="M-513 1228q-10 113 -63 167t-142 57h-15h-102v-144h102q109 0 176 -100z" />
    <glyph glyph-name="u11F02" unicode="&#x11f02;" 
d="M-353 1167q119 62 119 162q0 18 -4 37l-3 10q-25 86 -117.5 126.5t-257.5 46t-174 67.5l-2 18q0 61 67.5 96t188.5 35q338 0 362 -334h61q12 56 12 106q0 156 -110.5 250t-333.5 94q-210 0 -305 -72.5t-95 -166.5q0 -122 100 -173q76 -40 265.5 -45.5t189.5 -92.5
q0 -84 -213 -89q-39 -4 -77 -4q-242 0 -456 161l-52 -65q195 -229 527 -229q189 0 308 62z" />
    <glyph glyph-name="u11F03" unicode="&#x11f03;" horiz-adv-x="400" 
d="M387 728q-10 113 -63 167t-142 57h-15h-102v-144h102q109 0 176 -100zM387 128q-10 113 -63 167t-142 57h-15h-102v-144h102q109 0 176 -100z" />
    <glyph glyph-name="u11F04" unicode="&#x11f04;" horiz-adv-x="1289" 
d="M962 498h-323v-121h323v121zM928 0h153v503q1 258 -133 355h241v122h-445l-11 -83q169 -125 195 -354v-543zM312 0q129 2 207 63.5t86 175.5l1 24q0 106 -59.5 179.5t-180.5 94.5q164 50 201 183q8 27 8 54q0 55 -32 109q-48 80 -187 88l-22 1q-126 0 -234 -73l25 -75
q90 27 157 27q131 0 131 -86q-5 -139 -254 -218l10 -94q27 4 53 4q97 0 157.5 -51.5t60.5 -134.5l-2 -32q-14 -104 -126 -117h-189v-122h189z" />
    <glyph glyph-name="u11F05" unicode="&#x11f05;" horiz-adv-x="1555" 
d="M962 498h-323v-121h323v121zM1455 679q-4 193 -133 273q-58 28 -141 28h-437l-11 -83q169 -125 195 -354v-543h153v507q0 255 -133 351h199q62 0 108.5 -45.5t46.5 -127.5v-690h153v684zM312 0q129 2 207 63.5t86 175.5l1 24q0 106 -59.5 179.5t-180.5 94.5
q164 50 201 183q8 27 8 54q0 55 -32 109q-48 80 -187 88l-22 1q-126 0 -234 -73l25 -75q90 27 157 27q131 0 131 -86q-5 -139 -254 -218l10 -94q27 4 53 4q97 0 157.5 -51.5t60.5 -134.5l-2 -32q-14 -104 -126 -117h-189v-122h189z" />
    <glyph glyph-name="u11F06" unicode="&#x11f06;" horiz-adv-x="1318" 
d="M405 124q-148 45 -148 190v406q0 143 131 143q67 0 111.5 -45t60.5 -124l79 -7q105 175 236 183q91 -2 140.5 -100.5t49.5 -274.5q0 -189 -88 -273t-224 -84v-141q222 3 343.5 127t121.5 386q0 494 -337 494q-154 0 -250 -150q-74 146 -247 146q-284 -1 -284 -263v-430
q0 -256 260 -300zM1056 -419q-60 237 -270 319q-106 42 -226 42q-157 0 -279.5 -73t-122.5 -207q0 -99 73 -151t168 -52q55 0 115 19l-5 62q-21 -3 -40 -3q-79 0 -120 32t-41 84q0 49 37 97q64 64 219 64q291 0 421 -268z" />
    <glyph glyph-name="u11F07" unicode="&#x11f07;" horiz-adv-x="1818" 
d="M905 124q-148 45 -148 190v406q0 143 131 143q67 0 111.5 -45t60.5 -124l79 -7q105 175 236 183q91 -2 140.5 -100.5t49.5 -274.5q0 -189 -88 -273t-224 -84v-141q222 3 343.5 127t121.5 386q0 494 -337 494q-154 0 -250 -150q-74 146 -247 146q-284 -1 -284 -263v-430
q0 -256 260 -300zM1362.5 -745q190.5 108 197.5 307v17q0 183 -125.5 273t-343.5 90q-188 0 -310.5 -73t-122.5 -207q0 -99 73 -151t168 -52q55 0 115 19l-5 62q-21 -3 -40 -3q-79 0 -120 32t-41 84q0 49 37 97q64 64 219 64q328 0 328 -242q0 -127 -130 -199.5t-317 -72.5
q-690 24 -693 735q0 387 169.5 754t539.5 647l-67 83q-375 -217 -599.5 -641.5t-224.5 -837.5q8 -885 882 -893q220 0 410.5 108z" />
    <glyph glyph-name="u11F08" unicode="&#x11f08;" horiz-adv-x="797" 
d="M174 -685q114 0 237 87t239.5 174.5t173.5 87.5q117 0 181 -341l88 7q-52 488 -236 497h-15q-86 0 -217 -89t-247 -178.5t-179 -89.5h-6q-96 4 -96 151q1 166 271 352.5t270 337.5q0 123 -181.5 262.5t-181.5 205.5q0 59 89 59h375v142h-469q-90 -1 -137.5 -47.5
t-47.5 -114.5q0 -75 39 -136.5t195.5 -186t156.5 -177.5q0 -21 -8 -36q-45 -81 -283 -249.5t-245 -440.5q0 -262 209 -276z" />
    <glyph glyph-name="u11F09" unicode="&#x11f09;" horiz-adv-x="1007" 
d="M664 560q273 113 380.5 235.5t107.5 261.5q0 161 -125.5 254.5t-365.5 93.5l-45 -1q-397 -11 -714 -314l42 -88q330 253 698 253l28 -1q156 -6 234 -64t78 -141q0 -90 -70 -186t-294 -207zM174 -685q114 0 237 87t239.5 174.5t173.5 87.5q117 0 181 -341l88 7
q-52 488 -236 497h-15q-86 0 -217 -89t-247 -178.5t-179 -89.5h-6q-96 4 -96 151q1 166 271 352.5t270 337.5q0 123 -181.5 262.5t-181.5 205.5q0 59 89 59h375v142h-469q-90 -1 -137.5 -47.5t-47.5 -114.5q0 -75 39 -136.5t195.5 -186t156.5 -177.5q0 -21 -8 -36
q-45 -81 -283 -249.5t-245 -440.5q0 -262 209 -276z" />
    <glyph glyph-name="u11F0A" unicode="&#x11f0a;" horiz-adv-x="1167" 
d="M1067 980h-153v-694q0 -156 -136 -156h-389q-136 0 -136 156v694h-153v-704q0 -277 284 -277h399q284 0 284 277v704zM1056 -419q-60 237 -270 319q-106 42 -226 42q-157 0 -279.5 -73t-122.5 -207q0 -99 73 -151t168 -52q55 0 115 19l-5 62q-21 -3 -40 -3q-79 0 -120 32
t-41 84q0 49 37 97q64 64 219 64q291 0 421 -268z" />
    <glyph glyph-name="u11F0B" unicode="&#x11f0b;" horiz-adv-x="1654" 
d="M1567 980h-153v-694q0 -156 -136 -156h-389q-136 0 -136 156v694h-153v-704q0 -277 284 -277h399q284 0 284 277v704zM1362.5 -745q190.5 108 197.5 307v17q0 183 -125.5 273t-343.5 90q-188 0 -310.5 -73t-122.5 -207q0 -99 73 -151t168 -52q55 0 115 19l-5 62
q-21 -3 -40 -3q-79 0 -120 32t-41 84q0 49 37 97q64 64 219 64q328 0 328 -242q0 -127 -130 -199.5t-317 -72.5q-690 24 -693 735q0 387 169.5 754t539.5 647l-67 83q-375 -217 -599.5 -641.5t-224.5 -837.5q8 -885 882 -893q220 0 410.5 108z" />
    <glyph glyph-name="u11F0C" unicode="&#x11f0c;" horiz-adv-x="1318" 
d="M405 124q-148 45 -148 190v406q0 143 131 143q67 0 111.5 -45t60.5 -124l79 -7q105 175 246 183q91 -2 135.5 -75.5t44.5 -199.5v-595h153v610q0 394 -307 394q-184 0 -280 -150q-74 146 -247 146q-284 -1 -284 -263v-430q0 -256 260 -300zM1461 -520q-25 295 -246 414
q3 34 3 68v151l-153 40v-213q-87 19 -222 19h-26q-456 -28 -485 -333q0 -282 331 -292q224 0 366.5 117.5t168.5 305.5q131 -101 187 -293zM488 -375v3q15 209 390 209q103 0 186 -29q-27 -169 -131.5 -257t-246.5 -88q-198 4 -198 162z" />
    <glyph glyph-name="u11F0D" unicode="&#x11f0d;" horiz-adv-x="1318" 
d="M405 124q-148 45 -148 190v406q0 143 131 143q67 0 111.5 -45t60.5 -124l79 -7q105 175 246 183q91 -2 135.5 -75.5t44.5 -199.5v-595h153v610q0 394 -307 394q-184 0 -280 -150q-74 146 -247 146q-284 -1 -284 -263v-430q0 -256 260 -300zM1065 -1027q395 150 396 507
q0 295 -246 414q3 34 3 68v151l-153 40v-213q-87 19 -222 19h-26q-456 -28 -485 -333q0 -282 331 -292q224 0 366.5 117.5t158.5 285.5q118 -97 120 -271v-6q0 -265 -307 -365q-169 -55 -345 -55q-289 0 -468.5 115t-286.5 344l-87 -41q128 -304 327 -433.5t514 -129.5
q200 0 410 78zM488 -375v3q15 209 390 209q103 0 186 -29q-27 -169 -131.5 -257t-246.5 -88q-198 4 -198 162z" />
    <glyph glyph-name="u11F0E" unicode="&#x11f0e;" horiz-adv-x="1269" 
d="M884 -177l4 86q-368 27 -502.5 180t-134.5 359q0 184 97 291.5t268 109.5q236 -3 322.5 -122.5t86.5 -345.5q0 -161 -62 -161q-65 0 -105 132q-32 169 -168 185l-30 2q-82 0 -124 -48t-42 -121q0 -107 101 -268l79 35q-59 130 -59 198q0 78 40 78q56 0 95 -137
q53 -192 211 -192q93 0 150.5 90t57.5 254l-2 67q-15 221 -135.5 352.5t-420.5 132.5q-243 -4 -377 -151t-134 -364q0 -309 199 -476t527 -167z" />
    <glyph glyph-name="u11F0F" unicode="&#x11f0f;" horiz-adv-x="1318" 
d="M1218 610q0 394 -307 394q-184 0 -280 -150q-74 146 -247 146q-284 -1 -284 -263v-430q0 -256 260 -300l45 117q-148 45 -148 190v406q0 143 131 143q67 0 111.5 -45t60.5 -124l79 -7q105 175 246 183q91 -2 135.5 -75.5t44.5 -199.5v-261q0 -200 -265 -293t-509 -210
t-251 -389l157 9q1 196 256.5 315t509.5 216.5t255 367.5v260zM523 -740q104 114 161 114q79 0 157 -110t178 -110q111 0 177.5 80.5t66.5 223.5q0 398 -451 547l-35 -72q124 -58 234.5 -177t110.5 -308q0 -141 -93 -144q-60 0 -142 112.5t-190 120.5h-15q-86 0 -188 -118.5
t-201 -118.5q-96 4 -96 151l-157 -9q0 -282 232 -296q147 0 251 114z" />
    <glyph glyph-name="u11F10" unicode="&#x11f10;" horiz-adv-x="1318" 
d="M1218 610q0 394 -307 394q-184 0 -280 -150q-74 146 -247 146q-284 -1 -284 -263v-430q0 -256 260 -300l45 117q-148 45 -148 190v406q0 143 131 143q67 0 111.5 -45t60.5 -124l79 -7q105 175 246 183q91 -2 135.5 -75.5t44.5 -199.5v-261q0 -200 -265 -313t-509 -235
t-251 -334q0 -139 53.5 -214t155.5 -82l25 -1q114 0 237 87t239.5 174.5t173.5 87.5q117 0 181 -341l88 7q-52 488 -236 497h-15q-86 0 -217 -89t-247 -178.5t-179 -89.5h-6q-96 4 -96 151q1 136 256.5 255t509.5 236.5t255 397.5v260z" />
    <glyph glyph-name="u11F12" unicode="&#x11f12;" horiz-adv-x="1237" 
d="M1137 703q0 277 -284 277h-469q-284 0 -284 -277v-704h153v694q0 156 136 156h459q136 0 136 -156v-694h153v704zM549 943v-943h153v863z" />
    <glyph glyph-name="u11F13" unicode="&#x11f13;" horiz-adv-x="1240" 
d="M546 849v-572q0 -277 264 -277h67q263 0 263 277v426q0 277 -283 277h-473q-284 0 -284 -277v-703h153v683q0 166 136 166h157zM988 277q0 -146 -117 -146h-56q-116 0 -116 146v572h152q137 0 137 -166v-406z" />
    <glyph glyph-name="u11F14" unicode="&#x11f14;" horiz-adv-x="1237" 
d="M1137 703q0 277 -284 277h-469q-284 0 -284 -277v-704h153v694q0 156 136 156h459q136 0 136 -156v-694h153v704z" />
    <glyph glyph-name="u11F15" unicode="&#x11f15;" horiz-adv-x="1564" 
d="M261 264q0 74 75 150q94 96 184 174.5t90 201.5q-16 193 -207 205q-253 -3 -253 -247q0 -26 3 -55l80 -17q32 191 165 191q66 -1 72 -74l1 -15q0 -55 -168 -188q-203 -162 -203 -325q0 -109 80 -186.5t279 -78.5q265 0 360 215q110 -217 345 -217q98 0 180 56
q116 79 120 292v634h-143v-660q0 -193 -172 -193q-97 0 -179.5 98.5t-82.5 211.5v544h-153v-554q0 -286 -265 -286q-208 3 -208 123z" />
    <glyph glyph-name="u11F16" unicode="&#x11f16;" horiz-adv-x="1167" 
d="M100 287q0 -290 347 -290h626v141h-618q-198 0 -198 156v426q0 143 131 143q67 0 111.5 -45t60.5 -124l79 -7q111 174 251 174h12q89 -6 89 -93q0 -51 -38 -123l62 -33q102 98 102 195l-2 30q-26 167 -224 167q-154 0 -260 -150q-74 146 -247 146q-284 -1 -284 -263v-450
z" />
    <glyph glyph-name="u11F17" unicode="&#x11f17;" horiz-adv-x="1030" 
d="M584 130h-319q79 82 156 269t81 474q278 0 447 -75l31 69q-155 134 -473 134h-154v-50q0 -340 -94 -547t-209 -309l50 -96h489q354 0 354 372q0 371 -272 409l-33 -97q84 -26 118 -94t34 -221q0 -238 -206 -238z" />
    <glyph glyph-name="u11F18" unicode="&#x11f18;" horiz-adv-x="1354" 
d="M312 141q-56 4 -88 41.5t-32 95.5q0 125 84 168q44 22 94 22q94 0 167 -102q-126 -225 -219 -225h-6zM1267 371q0 371 -272 409l-33 -97q84 -26 118 -94t34 -221q0 -226 -116 -228q-95 7 -267 237q91 209 95 496q278 0 447 -75l31 69q-155 134 -473 134h-154v-50
q0 -286 -76 -450q-100 105 -228 105q-97 0 -176.5 -47t-117.5 -140q-29 -72 -29 -145q0 -60 21 -121q48 -143 215 -151l21 -1q95 0 190 79t146 185q84 -101 172.5 -183.5t190.5 -82.5q261 0 261 372z" />
    <glyph glyph-name="u11F19" unicode="&#x11f19;" horiz-adv-x="1082" 
d="M534 -15q194 0 448 128l-38 97q-120 -51 -231 -70.5t-174 -19.5h-6q-276 4 -276 201v121l-157 -3v-127q0 -169 108.5 -244t300.5 -82zM100 350h157v370q0 143 250 153q268 0 437 -75l31 69q-155 134 -473 134q-194 -3 -298 -71.5t-104 -202.5v-377zM942 548h-483v-121
h483v121z" />
    <glyph glyph-name="u11F1A" unicode="&#x11f1a;" horiz-adv-x="1913" 
d="M405 124q-148 45 -148 190v406q0 143 131 143q67 0 111.5 -45t60.5 -124l79 -7q105 175 246 183q91 -2 135.5 -75.5t44.5 -199.5v-595h153v610q0 394 -307 394q-184 0 -280 -150q-74 146 -247 146q-284 -1 -284 -263v-430q0 -256 260 -300zM1813 1000h-153v-690
q0 -84 -33 -133t-115 -49q-141 0 -323 269l-56 -57q166 -345 428 -345q121 0 184.5 84t67.5 237v684z" />
    <glyph glyph-name="u11F1B" unicode="&#x11f1b;" horiz-adv-x="1833" 
d="M1733 679q-4 193 -133 273q-78 48 -169 48q-262 0 -358 -285l56 -57q112 209 273 209q72 0 125 -49t53 -133v-685h153v679zM405 124q-148 45 -148 190v406q0 143 131 143q67 0 111.5 -45t60.5 -124l79 -7q105 175 246 183q91 -2 135.5 -75.5t44.5 -199.5v-595h153v610
q0 394 -307 394q-184 0 -280 -150q-74 146 -247 146q-284 -1 -284 -263v-430q0 -256 260 -300z" />
    <glyph glyph-name="u11F1C" unicode="&#x11f1c;" horiz-adv-x="1082" 
d="M534 -15q194 0 448 128l-38 97q-120 -51 -231 -70.5t-174 -19.5h-6q-276 4 -276 201v121l-157 -3v-127q0 -169 108.5 -244t300.5 -82zM100 350h157v370q0 143 250 153q268 0 437 -75l31 69q-155 134 -473 134q-194 -3 -298 -71.5t-104 -202.5v-377z" />
    <glyph glyph-name="u11F1D" unicode="&#x11f1d;" horiz-adv-x="1115" 
d="M716 281q0 122 94 124h5q88 0 91 -76q0 -132 -143 -179q-47 59 -47 131zM100 350h157v370q0 143 250 153q268 0 437 -75l31 69q-155 134 -473 134q-194 -3 -298 -71.5t-104 -202.5v-377zM539 120h-6q-276 4 -276 201v121l-157 -3v-127q0 -169 108.5 -244t300.5 -82l25 -1
q101 0 211 30.5t191 104t86 177.5v29q-12 161 -179 171l-24 1q-148 0 -194 -108q-25 -61 -25 -114q0 -65 47 -147q-65 -9 -108 -9z" />
    <glyph glyph-name="u11F1E" unicode="&#x11f1e;" horiz-adv-x="1246" 
d="M100 320h157v400q0 143 250 153q268 0 437 -75l31 69q-155 134 -473 134q-194 -3 -298 -71.5t-104 -202.5v-407zM667 317h-15q-86 0 -132 -59t-77 -98.5t-84 -39.5h-6q-96 4 -96 171v151l-157 -3v-157q0 -139 53.5 -214t155.5 -82l25 -1q84 0 137 37t94.5 99.5t88.5 62.5
q67 0 98 -94.5t81 -94.5q178 7 274 141q65 91 65 195q0 120 -62 198.5t-186 88.5l-39 2l-14 -57q86 -40 124 -87.5t38 -119.5q-1 -109 -70 -163q-49 -39 -114 -53q-15 169 -182 177z" />
    <glyph glyph-name="u11F1F" unicode="&#x11f1f;" horiz-adv-x="1246" 
d="M100 320h157v400q0 143 250 153q268 0 437 -75l31 69q-155 134 -473 134q-194 -3 -298 -71.5t-104 -202.5v-407zM334 -15q84 0 137 37t94.5 99.5t88.5 62.5q67 0 98 -94.5t81 -94.5q178 7 274 141q65 91 65 195q0 114 -52 178t-141 64q-152 0 -250 -148l41 -52
q118 74 181 74q82 0 82 -91q-2 -177 -184 -216q-15 169 -182 177h-15q-86 0 -132 -59t-77 -98.5t-84 -39.5h-6q-96 4 -96 171v151l-157 -3v-157q0 -282 209 -296z" />
    <glyph glyph-name="u11F20" unicode="&#x11f20;" horiz-adv-x="1765" 
d="M1121 226v477q0 146 116 146h159q116 0 116 -146v-703h153v703q0 277 -284 277h-129q-284 0 -284 -277v-481q0 -90 -85 -90q-86 0 -86 91v480q0 277 -284 277h-129q-284 0 -284 -277v-703h153v703q0 146 116 146h139q136 0 136 -146v-477q0 -233 239 -233q238 0 238 233z
" />
    <glyph glyph-name="u11F21" unicode="&#x11f21;" horiz-adv-x="1240" 
d="M851 849q136 0 136 -166v-683h153v703q0 277 -284 277h-473q-283 0 -283 -277v-426q0 -277 263 -277h67q264 0 264 277v572h157zM252 683q0 166 137 166h152v-572q0 -146 -116 -146h-56q-117 0 -117 146v406z" />
    <glyph glyph-name="u11F22" unicode="&#x11f22;" horiz-adv-x="1050" 
d="M687 348q-10 103 -63 157t-142 57h-15h-102v-134h102q109 0 176 -100zM100 320h157v400q0 143 250 153q268 0 437 -75l31 69q-155 134 -473 134q-194 -3 -298 -71.5t-104 -202.5v-407zM938 340h-153v-54q0 -156 -136 -156h-259q-136 0 -136 156v54h-153v-64
q0 -277 284 -277h269q284 0 284 277v64zM938 446q0 296 -272 334l-33 -97q94 -26 123 -79t29 -155v-132l153 -10v139z" />
    <glyph glyph-name="u11F23" unicode="&#x11f23;" horiz-adv-x="1050" 
d="M950 103q-9 205 -183 214h-15q-106 0 -173.5 -60.5t-117 -98.5t-102.5 -38h-6q-96 4 -96 171v151l-157 -3v-157q0 -139 53.5 -214t155.5 -82l25 -1q104 0 172 37t129.5 99.5t108.5 62.5t53 -91v-94h153v104zM100 320h157v400q0 143 250 153q268 0 437 -75l31 69
q-155 134 -473 134q-194 -3 -298 -71.5t-104 -202.5v-407z" />
    <glyph glyph-name="u11F24" unicode="&#x11f24;" horiz-adv-x="1242" 
d="M100 320h157v400q0 143 250 153q268 0 437 -75l31 69q-155 134 -473 134q-194 -3 -298 -71.5t-104 -202.5v-407zM667 317h-15q-86 0 -132 -59t-77 -98.5t-84 -39.5h-6q-96 4 -96 171v151l-157 -3v-157q0 -139 53.5 -214t155.5 -82l25 -1q84 0 137 37t94.5 99.5t88.5 62.5
q67 0 98 -94.5t81 -94.5q178 7 274 141q65 91 65 195q0 120 -70 236t-301 247l-53 -65q193 -151 239 -236t46 -157q-1 -109 -70 -163q-49 -39 -114 -53q-15 169 -182 177z" />
    <glyph glyph-name="u11F25" unicode="&#x11f25;" horiz-adv-x="1050" 
d="M950 103q-3 154 -121.5 246.5t-341.5 92.5q-133 0 -262 -52l16 -84q63 21 158 21q194 0 299 -70q96 -71 99 -164v-94h153v104zM100 0h157v720q0 143 250 153q268 0 437 -75l31 69q-155 134 -473 134q-194 -3 -298 -71.5t-104 -202.5v-727z" />
    <glyph glyph-name="u11F26" unicode="&#x11f26;" horiz-adv-x="1167" 
d="M1067 980h-153v-694q0 -156 -136 -156h-389q-136 0 -136 156v694h-153v-704q0 -277 284 -277h399q284 0 284 277v704z" />
    <glyph glyph-name="u11F27" unicode="&#x11f27;" horiz-adv-x="1236" 
d="M1096.5 136q89.5 137 89.5 364l-1 36q-16 456 -322 459q-191 -12 -207 -205q0 -201 269 -281l41 90q-171 84 -171 179l1 15q6 73 72 74q75 0 123.5 -68.5t52.5 -270.5v-18q0 -179 -51.5 -276t-140.5 -97q-86 0 -133 49q-45 45 -87 131h-79q-86 -183 -172 -183
q-65 2 -96.5 46t-31.5 128v696h-153v-678q0 -326 257 -326q156 0 230 150q74 -146 254 -151q166 0 255.5 137z" />
    <glyph glyph-name="u11F28" unicode="&#x11f28;" horiz-adv-x="1318" 
d="M753 -3q222 3 343.5 127t121.5 386q0 494 -337 494q-154 0 -250 -150q-74 146 -247 146q-284 -1 -284 -263v-450q0 -290 347 -290h306zM1015.5 769.5q49.5 -98.5 49.5 -274.5q0 -189 -88 -273t-224 -84h-298q-198 0 -198 156v426q0 143 131 143q67 0 111.5 -45t60.5 -124
l79 -7q105 175 236 183q91 -2 140.5 -100.5z" />
    <glyph glyph-name="u11F29" unicode="&#x11f29;" horiz-adv-x="1050" 
d="M950 343q-3 154 -121.5 246.5t-341.5 92.5q-133 0 -262 -52l16 -84q63 21 158 21q194 0 299 -70q96 -71 99 -164v-334h153v344zM100 0h157v720q0 143 250 153q268 0 437 -75l31 69q-155 134 -473 134q-194 -3 -298 -71.5t-104 -202.5v-727z" />
    <glyph glyph-name="u11F2A" unicode="&#x11f2a;" horiz-adv-x="1144" 
d="M891 348q0 -214 -151 -216h-347q-112 13 -126 112l-2 31q0 93 78.5 154t192.5 64h78h188h89v-145zM615 607h-56q-131 5 -198.5 47.5t-68.5 115.5q0 40 43 75.5t156 43.5l-9 92l-23 -1q-176 -8 -252 -69.5t-76 -149.5q0 -26 7 -51q23 -84 85.5 -120.5t115.5 -42.5
q-119 -32 -179 -108.5t-60 -175.5l1 -24q7 -111 77.5 -174t204.5 -65h359q301 4 302 330v650h-153v-186v-187h-276z" />
    <glyph glyph-name="u11F2B" unicode="&#x11f2b;" horiz-adv-x="1664" 
d="M987 981h-153v-554q0 -286 -265 -286q-306 0 -316 337q0 193 66 285.5t158 96.5q73 -4 99 -76.5t-73 -214.5l86 -45q155 161 118 308t-239 147q-153 0 -260.5 -126t-107.5 -366q10 -487 459 -487q265 0 360 215q110 -217 345 -217q98 0 180 56q116 79 120 292v634h-143
v-660q0 -193 -172 -193q-97 0 -179.5 98.5t-82.5 211.5v544z" />
    <glyph glyph-name="u11F2C" unicode="&#x11f2c;" horiz-adv-x="706" 
d="M448 507q0 255 -133 351h341v122h-545l-11 -83q169 -125 195 -354v-543h153v507z" />
    <glyph glyph-name="u11F2D" unicode="&#x11f2d;" horiz-adv-x="1381" 
d="M614 306q0 -307 334 -307q333 0 333 307v674h-153v-664q0 -186 -180 -186q-181 0 -181 186v234h-153v-244zM100 334q0 -296 272 -334l33 97q-94 26 -123 79t-29 155v332q0 186 181 186q180 0 180 -186v-234h153v244q0 307 -333 307q-334 0 -334 -307v-339z" />
    <glyph glyph-name="u11F2E" unicode="&#x11f2e;" horiz-adv-x="1050" 
d="M100 320h157v400q0 143 250 153q268 0 437 -75l31 69q-155 134 -473 134q-194 -3 -298 -71.5t-104 -202.5v-407zM938 340h-153v-54q0 -156 -136 -156h-259q-136 0 -136 156v54h-153v-64q0 -277 284 -277h269q284 0 284 277v64zM938 446q0 296 -272 334l-33 -97
q94 -26 123 -79t29 -155v-132l153 -10v139z" />
    <glyph glyph-name="u11F2F" unicode="&#x11f2f;" horiz-adv-x="1237" 
d="M1137 703q0 277 -284 277h-469q-284 0 -284 -277v-704h153v694q0 156 136 156h459q136 0 136 -156v-694h153v704zM1012 498h-583v-121h583v121z" />
    <glyph glyph-name="u11F30" unicode="&#x11f30;" horiz-adv-x="1167" 
d="M1067 980h-153v-694q0 -156 -136 -156h-389q-136 0 -136 156v694h-153v-704q0 -277 284 -277h399q284 0 284 277v704zM1012 498h-583v-121h583v121z" />
    <glyph glyph-name="u11F31" unicode="&#x11f31;" horiz-adv-x="1074" 
d="M253 -4v984h-153v-984h153zM167 237q249 -239 467 -239q138 0 220 56q116 79 120 292v634h-143v-660q0 -193 -202 -193q-174 0 -401 198z" />
    <glyph glyph-name="u11F32" unicode="&#x11f32;" horiz-adv-x="1381" 
d="M767 550h-153v-234q0 -186 -180 -186q-181 0 -181 186v664h-153v-674q0 -307 334 -307q333 0 333 307v244zM614 429h153v234v186h181q180 0 180 -186v-664h153v674q0 307 -333 307h-334v-307v-244z" />
    <glyph glyph-name="u11F33" unicode="&#x11f33;" horiz-adv-x="1082" 
d="M534 -15q194 0 448 128l-38 97q-120 -51 -231 -70.5t-174 -19.5h-6q-276 4 -276 201v121l-157 -3v-127q0 -169 108.5 -244t300.5 -82zM100 350h157v370q0 143 250 153q268 0 437 -75l31 69q-155 134 -473 134q-194 -3 -298 -71.5t-104 -202.5v-377zM942 548h-483v-121
h483v121zM1026 -419q-60 237 -270 319q-106 42 -226 42q-157 0 -279.5 -73t-122.5 -207q0 -99 73 -151t168 -52q55 0 115 19l-5 62q-21 -3 -40 -3q-79 0 -120 32t-41 84q0 49 37 97q64 64 219 64q291 0 421 -268z" />
    <glyph glyph-name="u11F34" unicode="&#x11f34;" horiz-adv-x="639" 
d="M539 684q-4 161 -81.5 242t-196.5 81q-188 0 -261 -219l78 -38q61 125 154 125q72 0 113 -48t41 -137v-690h153v684z" />
    <glyph glyph-name="u11F35" unicode="&#x11f35;" horiz-adv-x="415" 
d="M315 1344q-6 166 -115 245t-377 79h-29q-291 -4 -387 -76.5t-101 -196.5v-39q22 -222 302 -247l8 88q-167 37 -167 157l1 17q3 74 62 110.5t280 40.5h34q176 0 252.5 -40.5t83.5 -131.5v-1350h153v1344z" />
    <glyph glyph-name="u11F36" unicode="&#x11f36;" 
d="M-486 1504q3 -69 19 -112q72 -233 394 -233q321 0 393 234q16 42 19 112q-3 69 -19 111q-72 234 -393 234q-322 0 -394 -233q-16 -43 -19 -113zM-73 1276q-272 1 -272 229q0 227 272 228q271 -1 271 -229q0 -227 -271 -228z" />
    <glyph glyph-name="u11F37" unicode="&#x11f37;" 
d="M-486 1504q3 -69 19 -112q72 -233 394 -233q321 0 393 234q16 42 19 112q-3 69 -19 111q-72 234 -393 234q-322 0 -394 -233q-16 -43 -19 -113zM-73 1276q-272 1 -272 229q0 227 272 228q271 -1 271 -229q0 -227 -271 -228zM97 1398q-10 113 -63 167t-142 57h-15h-102
v-144h102q109 0 176 -100z" />
    <glyph glyph-name="u11F38" unicode="&#x11f38;" 
d="M-100 -269v269h-150v-253zM-100 -382v193l-150 -24v-155q0 -150 -82 -150q-68 1 -149 59l-42 -49q69 -127 209 -133q212 0 214 259z" />
    <glyph glyph-name="u11F39" unicode="&#x11f39;" 
d="M-100 -269v269h-150v-253zM-313 -332q-10 93 -63 147t-142 57h-15h-102v-134h102q109 0 176 -100zM-100 -382v193l-150 -24v-155q0 -150 -82 -150q-68 1 -149 59l-42 -49q69 -127 209 -133q212 0 214 259z" />
    <glyph glyph-name="u11F3A" unicode="&#x11f3a;" 
d="M-988.5 -483.5q-88.5 46.5 -88.5 99.5v6q5 54 94 54q90 -1 228 -122l42 40q-102 204 -285 204q-237 -2 -237 -182q0 -122 133 -206q149 -92 386 -93q579 10 579 387q0 160 -153 283l-72 -57q88 -104 88 -198q0 -120 -111 -187.5t-330 -74.5q-185 0 -273.5 46.5z" />
    <glyph glyph-name="u11F3E" unicode="&#x11f3e;" horiz-adv-x="797" 
d="M623 64q60 71 60 148q0 138 -153 243l-48 -45q32 -38 51.5 -82t19.5 -86q0 -123 -150 -123q-144 0 -144 169v342q0 243 180 243q168 0 297 -95l51 79q-175 144 -343 144q-174 -3 -258 -86.5t-84 -267.5v-379q0 -281 277 -290q171 0 244 86z" />
    <glyph glyph-name="u11F3F" unicode="&#x11f3f;" horiz-adv-x="797" 
d="M806 1181q-60 237 -270 319q-106 42 -226 42q-157 0 -279.5 -73t-122.5 -207q0 -99 73 -151t168 -52q55 0 115 19l-5 62q-21 -3 -40 -3q-79 0 -120 32t-41 84q0 49 37 97q64 64 219 64q291 0 421 -268zM623 64q60 71 60 148q0 138 -153 243l-48 -45q32 -38 51.5 -82
t19.5 -86q0 -123 -150 -123q-144 0 -144 169v342q0 243 180 243q168 0 297 -95l51 79q-175 144 -343 144q-174 -3 -258 -86.5t-84 -267.5v-379q0 -281 277 -290q171 0 244 86z" />
    <glyph glyph-name="u11F40" unicode="&#x11f40;" 
d="M-486 1504l2 -34q1 -35 17 -78q72 -233 394 -233q321 0 393 234q16 52 19 112q-3 69 -19 111q-72 234 -393 234q-322 0 -394 -233q-16 -43 -19 -113zM-73 1276q-272 1 -272 229q0 227 272 228q271 -1 271 -229q0 -227 -271 -228zM-30 1675h-41h-41v-134h-184v-36v-36h184
v-134h41h41v134h184v36v36h-184v134z" />
    <glyph glyph-name="u11F41" unicode="&#x11f41;" horiz-adv-x="425" 
d="M-890 1105l91 -55q187 297 529 297q430 -24 433 -499v-671q0 -309 -148 -491t-557 -271l13 -98q468 51 656.5 268.5t188.5 571.5v686q-8 649 -593 657q-408 0 -613 -395z" />
    <glyph glyph-name="u11F42" unicode="&#x11f42;" 
d="M-579 -146h-61v-340h30h31v340zM-779 -285v-61h340v61h-340z" />
    <glyph glyph-name="u11F43" unicode="&#x11f43;" horiz-adv-x="598" 
d="M390 503q-1 258 -113 355h221v122h-385l-11 -83q129 -125 135 -354v-1165q-6 -250 -137 -447l69 -61q198 162 221 490v1143z" />
    <glyph glyph-name="u11F44" unicode="&#x11f44;" horiz-adv-x="898" 
d="M390 763q-1 228 -285 217v-117q126 -12 132 -114v-1371q-6 -250 -137 -447l69 -61q198 162 221 490v1403zM690 503q-1 258 -113 355h221v122h-385l-11 -83q129 -125 135 -354v-1165q-6 -250 -137 -447l69 -61q198 162 221 490v1143z" />
    <glyph glyph-name="u11F45" unicode="&#x11f45;" horiz-adv-x="1743" 
d="M1535 503q-1 258 -113 355h221v122h-385l-11 -83q129 -125 135 -354v-1165q-6 -250 -137 -447l69 -61q198 162 221 490v1143zM257 314v406q0 143 131 143q67 0 111.5 -45t60.5 -124l79 -7q105 175 246 183q91 -2 135.5 -75.5t44.5 -199.5v-595h153v610q0 394 -307 394
q-184 0 -280 -150q-74 146 -247 146q-284 -1 -284 -263v-402zM380 -22q181 0 254 86q60 71 60 148q0 133 -129 243l-52 -45q26 -27 40 -73t14 -83q0 -64 -42.5 -99.5t-110.5 -35.5q-151 0 -157 184v410l-157 10v-394q1 -324 252 -351h28zM859 -478q-133 56 -133 167
q0 54 41.5 82.5t91.5 28.5q131 0 250 -187l34 22q-50 147 -126 220.5t-191 73.5q-135 0 -193 -83q-42 -59 -42 -126q0 -189 240 -257zM773 -1134q443 25 445 566v1016h-153v-1020q-7 -391 -338 -412l-41 -1q-313 0 -581 312l-67 -67q249 -396 681 -396z" />
    <glyph glyph-name="u11F46" unicode="&#x11f46;" horiz-adv-x="1743" 
d="M1535 503q-1 258 -113 355h221v122h-385l-11 -83q129 -125 135 -354v-1165q-6 -250 -137 -447l69 -61q198 162 221 490v1143zM257 314v406q0 143 131 143q67 0 111.5 -45t60.5 -124l79 -7q105 175 246 183q91 -2 135.5 -75.5t44.5 -199.5v-595h153v610q0 394 -307 394
q-184 0 -280 -150q-74 146 -247 146q-284 -1 -284 -263v-402zM380 -22q181 0 254 86q60 71 60 148q0 133 -129 243l-52 -45q26 -27 40 -73t14 -83q0 -64 -42.5 -99.5t-110.5 -35.5q-151 0 -157 184v410l-157 10v-394q1 -324 252 -351h28zM859 -478q-133 56 -133 167
q0 54 41.5 82.5t91.5 28.5q131 0 250 -187l34 22q-50 147 -126 220.5t-191 73.5q-135 0 -193 -83q-42 -59 -42 -126q0 -189 240 -257zM773 -1134q443 25 445 566v1016h-153v-1020q-7 -391 -338 -412l-41 -1q-313 0 -581 312l-67 -67q249 -396 681 -396zM1157 1167
q119 62 119 162q0 18 -4 37l-3 10q-25 86 -117.5 126.5t-257.5 46t-174 67.5l-2 18q0 61 67.5 96t188.5 35q338 0 362 -334h61q12 56 12 106q0 156 -110.5 250t-333.5 94q-210 0 -305 -72.5t-95 -166.5q0 -122 100 -173q76 -40 265.5 -45.5t189.5 -92.5q0 -84 -213 -89
q-39 -4 -77 -4q-242 0 -456 161l-52 -65q195 -229 527 -229q189 0 308 62z" />
    <glyph glyph-name="u11F47" unicode="&#x11f47;" horiz-adv-x="1401" 
d="M297 745q-63 64 -62.5 118.5t11.5 88.5q34 10 88 11t118 -63l27 88q-49 48 -123 52.5t-180 -14.5l-5 -4q-19 -107 -14.5 -181t53.5 -123zM1337 517q-62 68 -135 200q-48 87 -137 87q-53 0 -121 -31q31 68 31 121q0 89 -87 137q-132 73 -200 135h-7q-69 -62 -201 -135
q-86 -48 -86 -137q0 -53 31 -121q-68 31 -121 31q-89 0 -137 -87q-73 -132 -135 -200v-7q62 -69 135 -200q48 -87 137 -87q53 0 121 31q-31 -68 -31 -121q0 -89 86 -137q132 -73 201 -135h7q68 62 200 135q87 48 87 137q0 53 -31 121q68 -31 121 -31q89 0 137 87
q73 131 135 200v7zM1122 370q-44 -66 -102 -66q-45 0 -100 42l-45 44l-67 -67l45 -44q41 -55 41 -101q0 -58 -65 -102q-113 -66 -144 -93q-32 27 -145 93q-65 44 -65 102q0 46 41 101l45 44l-57 67l-55 -44q-55 -42 -102 -42q-60 0 -110 66q-56 112 -83 144q27 31 83 143
q50 66 110 66q47 0 102 -42l55 -44l57 67l-45 44q-41 55 -41 101q0 58 65 102q113 65 145 93q31 -28 144 -93q65 -44 65 -102q0 -46 -41 -101l-45 -44l67 -67l45 44q55 42 100 42q58 0 102 -66q66 -112 93 -143q-27 -32 -93 -144zM886 42q49 -49 123 -53.5t180 14.5l5 5
q19 106 14.5 180t-53.5 123l-87 -27q63 -63 62.5 -117.5t-10.5 -88.5q-35 -11 -89 -11.5t-118 62.5zM452 129q-64 -63 -118 -62.5t-89 11.5q-10 34 -10.5 88.5t62.5 117.5l-87 27q-49 -49 -53.5 -123t14.5 -180l5 -5q106 -19 180 -14.5t123 53.5zM1155 718q49 49 53.5 123
t-14.5 181l-5 4q-106 19 -180 14.5t-123 -52.5l27 -88q64 64 118 63t88 -11q11 -34 11.5 -88.5t-62.5 -118.5zM453 517q2 -46 11 -76q40 -157 223 -157q182 0 221 158q10 29 12 76q-2 47 -12 75q-39 159 -221 159q-183 0 -223 -158q-9 -29 -11 -77zM687 366q-133 0 -142 152
q9 151 142 152q131 -1 141 -153q-10 -151 -141 -151zM892 478l259 20v37l-259 20v-77zM222 498l259 -20v77l-259 -20v-37zM725 722l-20 259h-37l-20 -259h77zM705 52l20 259h-77l20 -259h37z" />
    <glyph glyph-name="u11F48" unicode="&#x11f48;" horiz-adv-x="706" 
d="M312 0q129 2 207 63.5t86 175.5l1 24q0 106 -59.5 179.5t-180.5 94.5q164 50 201 183q8 27 8 54q0 55 -32 109q-48 80 -187 88l-22 1q-126 0 -234 -73l25 -75q90 27 157 27q131 0 131 -86q-5 -139 -254 -218l10 -94q27 4 53 4q97 0 157.5 -51.5t60.5 -134.5l-2 -32
q-14 -104 -126 -117h-189v-122h189z" />
    <glyph glyph-name="u11F49" unicode="&#x11f49;" horiz-adv-x="400" 
d="M387 728q-10 113 -63 167t-142 57h-15h-102v-144h102q109 0 176 -100z" />
    <glyph glyph-name="u11F4A" unicode="&#x11f4a;" horiz-adv-x="400" 
d="M387 728q-10 113 -63 167t-142 57h-15h-102v-144h102q109 0 176 -100zM387 128q-10 113 -63 167t-142 57h-15h-102v-144h102q109 0 176 -100z" />
    <glyph glyph-name="u11F4B" unicode="&#x11f4b;" horiz-adv-x="400" 
d="M387 728q-10 113 -63 167t-142 57h-15h-102v-144h102q109 0 176 -100zM387 28q-10 113 -63 167t-142 57h-15h-102v-144h102q109 0 176 -100zM387 378q-10 113 -63 167t-142 57h-15h-102v-144h102q109 0 176 -100z" />
    <glyph glyph-name="u11F4C" unicode="&#x11f4c;" horiz-adv-x="1243" 
d="M595 130q-159 7 -252.5 106.5t-93.5 238.5q0 179 103.5 285.5t292.5 109.5q181 -12 265.5 -118.5t84.5 -265.5q0 -166 -105 -261.5t-270 -95.5zM614 -11q229 0 379 134t150 366q0 214 -121.5 357.5t-376.5 157.5q-263 -5 -402.5 -150t-142.5 -363q0 -224 136 -360
t361 -142h17z" />
    <glyph glyph-name="u11F4D" unicode="&#x11f4d;" horiz-adv-x="1243" 
d="M595 130q-159 7 -252.5 106.5t-93.5 238.5q0 179 103.5 285.5t292.5 109.5q181 -12 265.5 -118.5t84.5 -265.5q0 -166 -105 -261.5t-270 -95.5zM614 -11q229 0 379 134t150 366q0 214 -121.5 357.5t-376.5 157.5q-263 -5 -402.5 -150t-142.5 -363q0 -224 136 -360
t361 -142h17zM787 388q-10 103 -63 157t-142 57h-15h-102v-134h102q109 0 176 -100z" />
    <glyph glyph-name="u11F4E" unicode="&#x11f4e;" horiz-adv-x="1243" 
d="M825 -13q318 163 318 502q0 214 -121.5 357.5t-376.5 157.5q-263 -5 -402.5 -160t-142.5 -373v-17q0 -207 105.5 -329.5t249.5 -127.5h19q271 12 285 283v7q0 256 -286 378l-43 -65q190 -126 190 -297l-1 -27q-14 -156 -143 -156l-17 1q-74 3 -142 81t-68 256
t103.5 293.5t292.5 118.5q181 -12 265.5 -122.5t84.5 -268.5q0 -254 -215 -425z" />
    <glyph glyph-name="u11F4F" unicode="&#x11f4f;" horiz-adv-x="3176" 
d="M474 -3q271 12 285 283v7q0 256 -286 378l-43 -65q190 -126 190 -297l-1 -27q-14 -156 -143 -156l-17 1q-74 3 -142 81t-68 256t103.5 293.5t292.5 118.5q181 -12 266 -122q13 -18 26 -32q73 -94 138 -212q146 -241 305 -241q89 0 191.5 63.5t210 130t165.5 66.5
q84 0 228 -107t291 -116q281 6 610 224l-36 64q-288 -148 -504 -148q-155 0 -303 115.5t-285 115.5q-122 -3 -296 -126.5t-254 -123.5q-73 0 -123 71q-75 98 -137.5 194.5t-115.5 160.5q-122 143 -377 157q-263 -5 -402.5 -160t-142.5 -373v-17q0 -207 105.5 -329.5
t249.5 -127.5h19z" />
    <glyph glyph-name="u11F50" unicode="&#x11f50;" horiz-adv-x="921" 
d="M122 475q3 -64 15 -105q56 -218 308 -218t307 219q13 40 16 105q-3 65 -16 104q-55 220 -307 220t-308 -218q-12 -41 -15 -107zM445 274q-176 0 -188 202q12 201 188 202q175 -1 188 -203q-13 -201 -188 -201z" />
    <glyph glyph-name="u11F51" unicode="&#x11f51;" horiz-adv-x="1243" 
d="M825 -13q318 163 318 502q0 214 -121.5 357.5t-376.5 157.5q-263 -5 -402.5 -160t-142.5 -373v-17q0 -207 105.5 -329.5t249.5 -127.5h19q271 12 279 249v9q0 228 -393 235l-12 -94q246 -17 252 -146v-10q0 -120 -124 -120l-17 1q-74 3 -142 81t-68 256t103.5 293.5
t292.5 118.5q181 -12 265.5 -122.5t84.5 -268.5q0 -254 -215 -425z" />
    <glyph glyph-name="u11F52" unicode="&#x11f52;" horiz-adv-x="1248" 
d="M995 -572q-7 -391 -338 -412l-41 -1q-313 0 -581 312l-67 -67q249 -396 681 -396l54 2q443 25 445 566v1016q-5 255 -126.5 398.5t-376.5 157.5q-263 -5 -402.5 -160t-142.5 -373v-17q0 -207 105.5 -329.5t249.5 -127.5h19q271 12 279 249v9q0 228 -393 235l-12 -94
q246 -17 252 -146v-10q0 -120 -124 -120l-17 1q-74 3 -142 81t-68 256t103.5 293.5t292.5 118.5q181 -12 265.5 -122.5t84.5 -268.5v-1051z" />
    <glyph glyph-name="u11F53" unicode="&#x11f53;" horiz-adv-x="1243" 
d="M825 -13q318 163 318 502q0 214 -121.5 357.5t-376.5 157.5q-263 -5 -402.5 -160t-142.5 -373v-17q0 -207 105.5 -329.5t249.5 -127.5h19q271 12 279 249v9q0 228 -393 235l-12 -94q246 -17 252 -146v-10q0 -120 -124 -120l-17 1q-74 3 -142 81t-68 256t103.5 293.5
t292.5 118.5q181 -12 265.5 -122.5t84.5 -268.5q0 -254 -215 -425zM1003.5 -995q158.5 131 159.5 381q0 288 -367 502l-43 -69q247 -201 247 -420q0 -199 -108 -287t-299 -88q-327 0 -603 320l-64 -61q254 -409 692 -409q227 0 385.5 131z" />
    <glyph glyph-name="u11F54" unicode="&#x11f54;" horiz-adv-x="726" 
d="M332 0q129 2 207 63.5t86 175.5l1 24q0 106 -59.5 179.5t-180.5 94.5q164 50 201 183q8 27 8 54q0 55 -32 109q-48 80 -187 88l-22 1q-126 0 -224 -83l15 -55q90 27 157 27q131 0 131 -96q-5 -139 -254 -218l10 -94q27 4 53 4q97 0 157.5 -51.5t60.5 -134.5l-2 -32
q-14 -104 -126 -117h-189v-122h189z" />
    <glyph glyph-name="u11F55" unicode="&#x11f55;" horiz-adv-x="726" 
d="M332 0q129 2 207 63.5t86 175.5l1 24q0 106 -59.5 179.5t-180.5 94.5q164 50 201 183q8 27 8 54q0 55 -32 109q-48 80 -187 88l-22 1q-126 0 -224 -83l15 -55q90 27 157 27q131 0 131 -96q-5 -139 -254 -218l10 -94q27 4 53 4q97 0 157.5 -51.5t60.5 -134.5l-2 -32
q-14 -104 -126 -117h-189v-122h189zM-92 1420q60 -237 270 -319q106 -42 226 -42q157 0 279.5 73t122.5 207q0 99 -73 151t-168 52q-55 0 -115 -19l5 -62q21 3 40 3q79 0 120 -32t41 -84q0 -49 -37 -97q-64 -64 -219 -64q-291 0 -421 268z" />
    <glyph glyph-name="u11F56" unicode="&#x11f56;" horiz-adv-x="1304" 
d="M968 -722q240 148 250 338v11q0 182 -273 274q-406 132 -528 288q-95 123 -95 279q0 164 97 271.5t268 109.5q222 -3 305 -100q104 -121 104 -368q0 -81 -18 -121t-44 -40q-65 0 -105 132q-32 169 -168 185l-30 2q-82 0 -124 -48t-42 -121q0 -107 101 -268l69 35
q-49 130 -49 198q0 78 40 78q56 0 95 -137q53 -192 211 -192q93 0 150.5 90t57.5 254l-2 67q-15 221 -135.5 352.5t-420.5 132.5q-243 -4 -377 -151t-134 -364q0 -319 293 -503q165 -104 385 -177q238 -79 238 -194l-1 -15q-16 -125 -153 -258z" />
    <glyph glyph-name="u11F57" unicode="&#x11f57;" horiz-adv-x="1381" 
d="M614 306q0 -307 334 -307q333 0 333 307v674h-153v-664q0 -186 -180 -186q-181 0 -181 186v234h-153v-244zM100 334q0 -296 272 -334l33 97q-94 26 -123 79t-29 155v332q0 186 181 186q180 0 180 -186v-234h153v244q0 307 -333 307q-334 0 -334 -307v-339zM208 1420
q60 -237 270 -319q106 -42 226 -42q157 0 279.5 73t122.5 207q0 99 -73 151t-168 52q-55 0 -115 -19l5 -62q21 3 40 3q79 0 120 -32t41 -84q0 -49 -37 -97q-64 -64 -219 -64q-291 0 -421 268z" />
    <glyph glyph-name="u11F58" unicode="&#x11f58;" horiz-adv-x="1211" 
d="M689 -3l427 1000h-154l-326 -768l-326 768h-164l437 -1000h106zM178 1420q60 -237 270 -319q106 -42 226 -42q157 0 279.5 73t122.5 207q0 99 -73 151t-168 52q-55 0 -115 -19l5 -62q21 3 40 3q79 0 120 -32t41 -84q0 -49 -37 -97q-64 -64 -219 -64q-291 0 -421 268z" />
    <glyph glyph-name="u11F59" unicode="&#x11f59;" horiz-adv-x="1473" 
d="M822 397q-86 0 -187 -89t-172 -128.5t-134 -39.5h-6q-96 4 -96 151q1 206 226.5 400t494.5 253l-22 90q-385 -75 -617 -277.5t-239 -474.5q0 -139 53.5 -214t155.5 -82l25 -1q114 0 207 62t164.5 124.5t128.5 62.5q79 0 167 -120t188 -120q111 0 177.5 80.5t66.5 223.5
q0 221 -252 424l-75 -65q176 -180 176 -369q0 -61 -17.5 -101.5t-65.5 -42.5q-60 0 -142 122.5t-190 130.5h-15zM308 1420q60 -237 270 -319q106 -42 226 -42q157 0 279.5 73t122.5 207q0 99 -73 151t-168 52q-55 0 -115 -19l5 -62q21 3 40 3q79 0 120 -32t41 -84
q0 -49 -37 -97q-64 -64 -219 -64q-291 0 -421 268z" />
    <glyph glyph-name="uF1F02" unicode="&#xf1f02;" horiz-adv-x="1420" 
d="M68 1055v121h120v68h-188v-189h68zM430 1176v68h-169v-68h169zM672 1176v68h-84h-83v-68h167zM915 1176v68h-168v-68h168zM68 738h-68v-167h68v167zM68 982h-68v-168h68v168zM68 254h-68v-168h68v168zM68 496h-68v-167h68v167zM188 -660v69h-120v119h-68v-188h188z
M915 -660v69h-168v-69h168zM430 -660v69h-169v-69h169zM672 -660v69h-167v-69h167zM68 -230h-68v-168h68v168zM68 12h-68v-167h68v167zM1351 1176v-121h69v189h-189v-68h120zM1420 982h-69v-168h69v168zM1157 1176v68h-168v-68h168zM1420 738h-69v-167h69v167zM1420 254h-69
v-168h69v168zM1420 496h-69v-167h69v167zM1420 -660v188h-69v-119h-120v-69h189zM1157 -660v69h-168v-69h168zM1420 -230h-69v-168h69v168zM1420 12h-69v-167h69v167zM987 -3q119 62 119 162q0 18 -4 37l-3 10q-25 86 -117.5 126.5t-257.5 46t-174 67.5l-2 18q0 61 67.5 96
t188.5 35q338 0 362 -334h61q12 56 12 106q0 156 -110.5 250t-333.5 94q-210 0 -305 -72.5t-95 -166.5q0 -122 100 -173q76 -40 265.5 -45.5t189.5 -92.5q0 -84 -213 -89q-39 -4 -77 -4q-242 0 -456 161l-52 -65q195 -229 527 -229q189 0 308 62z" />
    <glyph glyph-name="uF1F42" unicode="&#xf1f42;" horiz-adv-x="1420" 
d="M1034 908q-52 0 -52 -50t52 -50q48 0 48 50t-48 50zM886 1007q-52 0 -52 -51q0 -49 52 -49q48 0 48 49q0 51 -48 51zM1132 759q-51 0 -51 -49q0 -51 49 -51q51 0 51 51q0 49 -49 49zM1169 586q-52 0 -52 -50t52 -50q48 0 48 50t-48 50zM710 1042q-50 0 -50 -49
q0 -51 50 -51t50 51q0 49 -50 49zM536 1007q-49 0 -49 -51q0 -49 49 -49q51 0 51 49q0 51 -51 51zM1130 413q-49 0 -49 -51q0 -49 49 -49q51 0 51 49q0 51 -51 51zM389 908q-50 0 -50 -53q0 -47 50 -47t50 50t-50 50zM1034 263q-52 0 -52 -51q0 -49 52 -49q48 0 48 49
q0 51 -48 51zM886 166q-52 0 -52 -52q0 -48 52 -48q48 0 48 48q0 52 -48 52zM290 759q-50 0 -50 -49q0 -51 52 -51q48 0 48 51q0 49 -50 49zM256 586q-52 0 -52 -50t52 -50q49 0 48 50q1 50 -48 50zM710 130q-50 0 -50 -49q0 -51 50 -51t50 51q0 49 -50 49zM290 413
q-50 0 -50 -51q0 -49 50 -49t50 49q0 51 -50 51zM536 166q-49 0 -49 -52q0 -48 49 -48q51 0 51 52q0 48 -51 48zM389 263q-50 0 -50 -51q0 -49 50 -49t50 49q0 51 -50 51zM742 -39h-61v-340h30h31v340zM542 -178v-61h340v61h-340zM68 1055v121h120v68h-188v-189h68z
M430 1176v68h-169v-68h169zM672 1176v68h-84h-83v-68h167zM915 1176v68h-168v-68h168zM68 738h-68v-167h68v167zM68 982h-68v-168h68v168zM68 254h-68v-168h68v168zM68 496h-68v-167h68v167zM188 -660v69h-120v119h-68v-188h188zM915 -660v69h-168v-69h168zM430 -660v69
h-169v-69h169zM672 -660v69h-167v-69h167zM68 -230h-68v-168h68v168zM68 12h-68v-167h68v167zM1351 1176v-121h69v189h-189v-68h120zM1420 982h-69v-168h69v168zM1157 1176v68h-168v-68h168zM1420 738h-69v-167h69v167zM1420 254h-69v-168h69v168zM1420 496h-69v-167h69v167
zM1420 -660v188h-69v-119h-120v-69h189zM1157 -660v69h-168v-69h168zM1420 -230h-69v-168h69v168zM1420 12h-69v-167h69v167z" />
    <glyph glyph-name="u11F10_u11F34" horiz-adv-x="1775" 
d="M1526.5 -702.5q235.5 150.5 235.5 357.5q0 93 -59.5 138.5t-154.5 45.5q-112 0 -364 -142q-108 -62 -184 -62q-68 1 -68 60l1 16q9 74 208.5 168t387.5 192.5t189 337.5v201q0 394 -307 394q-184 0 -280 -150q-74 146 -247 146q-284 -1 -284 -263v-430q0 -256 260 -300
l45 117q-148 45 -148 190v406q0 143 131 143q67 0 111.5 -45t60.5 -124l79 -7q105 175 246 183q180 -4 180 -275v-189q0 -172 -199 -266t-362 -174t-210 -188q-24 -54 -24 -105q0 -79 49.5 -135t151.5 -57h8q125 0 238 58q273 140 330 140q54 0 54 -56q0 -62 -93 -146
t-234.5 -130.5t-328.5 -46.5q-690 24 -693 735q0 387 169.5 754t539.5 647l-67 83q-375 -217 -599.5 -641.5t-224.5 -837.5q8 -885 882 -893q339 0 574.5 150.5z" />
    <glyph glyph-name="u11F42_u11F2C.below" 
d="M33 -296q0 160 -153 283l-72 -57q88 -104 88 -198q0 -120 -111 -187.5t-330 -74.5q-437 0 -624 297l-91 -55q205 -395 714 -395q579 10 579 387z" />
    <glyph glyph-name="u11F42_u11F30_u11F42_u11F2A" horiz-adv-x="729" 
d="M472 198h-403v-121h403v121zM501 86v421q0 255 -133 351h261v122h-465l-11 -83q189 -125 195 -354v-447q-9 -254 -226 -256q-139 1 -246 119l-71 -58q123 -207 342 -212q353 4 354 397zM183 -1308q335 0 619 208l-38 72q-287 -128 -507 -132h-16q-476 0 -476 311
q0 99 63 191q102 150 331 150q107 0 172.5 -48t65.5 -115v-10q-7 -124 -160 -124t-253 150l-76 -56q63 -114 141.5 -166.5t191.5 -52.5q135 0 215 70.5t80 186.5q0 130 -97 213.5t-301 83.5q-234 0 -382 -134.5t-151 -329.5v-11q0 -199 141 -321.5t420 -135.5h17z" />
    <glyph glyph-name="u11F42_u11F30.below" 
d="M33 -296q0 160 -153 283l-72 -57q88 -104 88 -198q0 -120 -111 -187.5t-330 -74.5q-437 0 -624 297l-91 -55q205 -395 714 -395q579 10 579 387zM-293 -412q-10 93 -63 147t-142 57h-15h-102v-134h102q109 0 176 -100z" />
    <glyph glyph-name="u11F42_u11F32.post" horiz-adv-x="975" 
d="M875 679q-4 193 -133 273q-58 28 -141 28h-245l-11 -83l23 -39h199q62 0 108.5 -45.5t46.5 -127.5v-690h153v684zM501 86v421q0 255 -133 351h261l-173 122h-292l-11 -83q189 -125 195 -354v-447q-9 -254 -226 -256q-139 1 -246 119l-71 -58q123 -207 342 -212
q353 4 354 397z" />
    <glyph glyph-name="u11F02_u11F36_u11F00" 
d="M-386 1504q3 -69 19 -112q72 -233 394 -233q321 0 393 234q16 42 19 112q-3 69 -19 111q-72 234 -393 234q-322 0 -394 -233q-16 -43 -19 -113zM27 1276q-272 1 -272 229q0 227 272 228q271 -1 271 -229q0 -227 -271 -228zM-211 1277l-14 88q-59 -7 -118 -7
q-142 0 -247 33q-119 37 -173 122.5t-54 188.5q0 35 7 73l-74 13q-42 -111 -42 -196q0 -131 95 -223q127 -124 388 -124q115 0 232 32zM491 1963q-198 0 -239 167l-75 -10q9 -156 96 -236.5t220 -80.5h1q133 0 220 80.5t96 236.5l-75 10q-41 -167 -239 -167h-5zM272 2324
q10 -113 63 -167t142 -57h15h102v144h-102q-109 0 -176 100z" />
    <glyph glyph-name="u11F02_u11F36_u11F01" 
d="M-386 1504q3 -69 19 -112q72 -233 394 -233q321 0 393 234q16 42 19 112q-3 69 -19 111q-72 234 -393 234q-322 0 -394 -233q-16 -43 -19 -113zM27 1276q-272 1 -272 229q0 227 272 228q271 -1 271 -229q0 -227 -271 -228zM-211 1277l-14 88q-59 -7 -118 -7
q-142 0 -247 33q-119 37 -173 122.5t-54 188.5q0 35 7 73l-74 13q-42 -111 -42 -196q0 -131 95 -223q127 -124 388 -124q115 0 232 32zM587 1828q-10 113 -63 167t-142 57h-15h-102v-144h102q109 0 176 -100z" />
    <glyph glyph-name="u11F02_u11F37_u11F00" 
d="M-386 1504q3 -69 19 -112q72 -233 394 -233q321 0 393 234q16 42 19 112q-3 69 -19 111q-72 234 -393 234q-322 0 -394 -233q-16 -43 -19 -113zM27 1276q-272 1 -272 229q0 227 272 228q271 -1 271 -229q0 -227 -271 -228zM197 1398q-10 113 -63 167t-142 57h-15h-102
v-144h102q109 0 176 -100zM-213 1285l-22 100q-102 -21 -197 -22q-448 0 -478 434l-86 1q-4 -44 -4 -85q0 -244 141 -356t386 -112q145 0 260 40zM491 1963q-198 0 -239 167l-75 -10q9 -156 96 -236.5t220 -80.5h1q133 0 220 80.5t96 236.5l-75 10q-41 -167 -239 -167h-5z
M272 2324q10 -113 63 -167t142 -57h15h102v144h-102q-109 0 -176 100z" />
    <glyph glyph-name="u11F02_u11F37_u11F01" 
d="M-386 1504q3 -69 19 -112q72 -233 394 -233q321 0 393 234q16 42 19 112q-3 69 -19 111q-72 234 -393 234q-322 0 -394 -233q-16 -43 -19 -113zM27 1276q-272 1 -272 229q0 227 272 228q271 -1 271 -229q0 -227 -271 -228zM197 1398q-10 113 -63 167t-142 57h-15h-102
v-144h102q109 0 176 -100zM-213 1285l-22 100q-102 -21 -197 -22q-448 0 -478 434l-86 1q-4 -44 -4 -85q0 -244 141 -356t386 -112q145 0 260 40zM587 1828q-10 113 -63 167t-142 57h-15h-102v-144h102q109 0 176 -100z" />
    <glyph glyph-name="u11F02_u11F40_u11F00" 
d="M-386 1504l2 -34q1 -35 17 -78q72 -233 394 -233q321 0 393 234q16 52 19 112q-3 69 -19 111q-72 234 -393 234q-322 0 -394 -233q-16 -43 -19 -113zM27 1276q-272 1 -272 229q0 227 272 228q271 -1 271 -229q0 -227 -271 -228zM70 1675h-41h-41v-134h-184v-36v-36h184
v-134h41h41v134h184v36v36h-184v134zM-213 1285l-22 100q-102 -21 -197 -22q-448 0 -478 434l-86 1q-4 -44 -4 -85q0 -244 141 -356t386 -112q145 0 260 40zM491 1963q-198 0 -239 167l-75 -10q9 -156 96 -236.5t220 -80.5h1q133 0 220 80.5t96 236.5l-75 10
q-41 -167 -239 -167h-5zM272 2324q10 -113 63 -167t142 -57h15h102v144h-102q-109 0 -176 100z" />
    <glyph glyph-name="u11F02_u11F40_u11F01" 
d="M-386 1504l2 -34q1 -35 17 -78q72 -233 394 -233q321 0 393 234q16 52 19 112q-3 69 -19 111q-72 234 -393 234q-322 0 -394 -233q-16 -43 -19 -113zM27 1276q-272 1 -272 229q0 227 272 228q271 -1 271 -229q0 -227 -271 -228zM70 1675h-41h-41v-134h-184v-36v-36h184
v-134h41h41v134h184v36v36h-184v134zM-213 1285l-22 100q-102 -21 -197 -22q-448 0 -478 434l-86 1q-4 -44 -4 -85q0 -244 141 -356t386 -112q145 0 260 40zM587 1828q-10 113 -63 167t-142 57h-15h-102v-144h102q109 0 176 -100z" />
    <glyph glyph-name="u11F35.alt2" horiz-adv-x="414" 
d="M-14 610q273 113 380.5 235.5t107.5 261.5q0 161 -125.5 254.5t-365.5 93.5l-45 -1q-397 -11 -714 -314l42 -88q330 253 698 253l28 -1q156 -6 234 -64t78 -141q0 -90 -70 -186t-294 -207z" />
    <glyph glyph-name="u11F42_u11F2B.below" horiz-adv-x="434" 
d="M93 -1162q-7 -461 -315 -494t-532 176q546 -63 637 282l-83 35q-158 -286 -725 -173l-48 -79q287 -439 752 -401.5t467 658.5v2136h-153v-2140z" />
    <glyph glyph-name="u11F42_u11F2D.below" 
d="M-563 -1387q-57 217 -294 217q-284 0 -284 -307v-19q0 -296 272 -334l33 97q-94 26 -123 79t-29 155v32q0 146 141 146q86 0 122 -102l55 -160q83 -248 297 -248q273 0 273 307v424h-153v-414q0 -166 -120 -166q-82 0 -128 118z" />
    <glyph glyph-name="u11F42_u11F2D_u11F38.below" 
d="M84.5 -1901.5q60.5 49.5 60.5 147.5q-6 177 -179 350l-94 -80q133 -118 133 -255q0 -93 -113 -93q-37 0 -83 13l-29 -77q69 -49 162 -55q82 0 142.5 49.5zM-563 -1387q-57 217 -294 217q-284 0 -284 -307v-19q0 -296 272 -334l33 97q-94 26 -123 79t-29 155v32
q0 146 141 146q86 0 122 -102l55 -160q83 -248 297 -248q273 0 273 307v424h-153v-414q0 -166 -120 -166q-82 0 -128 118z" />
    <glyph glyph-name="u11F42_u11F2D_u11F39.below" 
d="M194.5 -1901.5q60.5 49.5 60.5 147.5q-6 205 -293 438l-75 -80q228 -206 228 -343q0 -93 -113 -93q-37 0 -83 13l-29 -77q69 -49 162 -55q82 0 142.5 49.5zM137 -1822q-10 93 -63 147t-142 57h-15h-102v-134h102q109 0 176 -100zM-563 -1387q-57 217 -294 217
q-284 0 -284 -307v-19q0 -296 272 -334l33 97q-94 26 -123 79t-29 155v32q0 146 141 146q86 0 122 -102l55 -160q83 -248 297 -248q273 0 273 307v424h-153v-414q0 -166 -120 -166q-82 0 -128 118z" />
    <glyph glyph-name="u11F42_u11F2E.below" 
d="M-280 -1824.5q94 73.5 94 193.5q-3 239 -374 261l-21 -90q248 -26 248 -168q0 -66 -61 -102.5t-187 -38.5q-110 4 -175 54.5t-65 162.5q0 117 108.5 194t458.5 77h21l-1 88q-89 8 -169 8q-282 0 -431 -99.5t-149 -287.5q0 -155 107 -243t319 -88q183 5 277 78.5z" />
    <glyph glyph-name="u11F42_u11F2E_u11F38.below" 
d="M-280 -1824.5q94 73.5 94 193.5q-3 239 -374 261l-21 -90q248 -26 248 -168q0 -66 -61 -102.5t-187 -38.5q-110 4 -175 54.5t-65 162.5q0 117 108.5 194t458.5 77h21l-1 88q-89 8 -169 8q-282 0 -431 -99.5t-149 -287.5q0 -155 107 -243t319 -88q183 5 277 78.5z
M84.5 -1901.5q60.5 49.5 60.5 147.5q-6 177 -179 350l-94 -80q133 -118 133 -255q0 -93 -113 -93q-37 0 -83 13l-29 -77q69 -49 162 -55q82 0 142.5 49.5z" />
    <glyph glyph-name="u11F42_u11F2E_u11F39.below" 
d="M-280 -1824.5q94 73.5 94 193.5q-3 239 -374 261l-21 -90q248 -26 248 -168q0 -66 -61 -102.5t-187 -38.5q-110 4 -175 54.5t-65 162.5q0 117 108.5 194t458.5 77h21l-1 88q-89 8 -169 8q-282 0 -431 -99.5t-149 -287.5q0 -155 107 -243t319 -88q183 5 277 78.5z
M157 -1822q-10 93 -63 147t-142 57h-15h-102v-134h102q109 0 176 -100zM214.5 -1901.5q60.5 49.5 60.5 147.5q-6 205 -293 438l-75 -80q228 -206 228 -343q0 -93 -113 -93q-37 0 -83 13l-29 -77q69 -49 162 -55q82 0 142.5 49.5z" />
    <glyph glyph-name="u11F42_u11F2B.raConj" horiz-adv-x="440" 
d="M274 -707v1685h-153v-1689zM274 -119h-153v-704q0 -136 -110 -136q-111 0 -111 136v704h-153v-694q0 -287 264 -287q263 0 263 287v694z" />
    <glyph glyph-name="u11F42_u11F2B.below.raConj" horiz-adv-x="440" 
d="M356 -1407v2385h-153v-2389zM356 -119h-153v-1404q0 -136 -110 -136q-111 0 -175 102l-86 -67q104 -176 261 -176q263 0 263 287v1394z" />
  </font>
</defs>
</svg>
